{"glyphs":{"0":{"ha":772,"x_min":0,"x_max":0,"o":"m 649 815 b 376 971 592 919 501 971 b 86 750 236 971 140 897 b 43 465 58 671 43 576 b 115 125 43 324 67 210 b 375 -26 172 25 258 -26 b 654 160 504 -26 597 35 b 714 488 694 246 714 354 b 649 815 714 626 692 736 z m 525 169 b 375 85 489 113 438 85 b 207 222 296 85 240 131 b 175 461 186 283 175 363 b 226 760 175 593 193 693 b 383 861 260 828 311 861 b 542 754 461 861 514 826 b 582 482 568 683 582 593 b 525 169 582 329 563 225 z "},"1":{"ha":772,"x_min":0,"x_max":0,"o":"m 133 781 l 133 688 l 361 688 l 361 0 l 492 0 l 492 967 l 396 967 b 318 825 378 892 351 844 b 133 781 283 804 221 790 z "},"2":{"ha":772,"x_min":0,"x_max":0,"o":"m 96 218 b 43 0 65 157 49 83 l 710 0 l 710 115 l 179 115 b 265 246 192 164 219 207 b 369 317 290 268 325 292 l 463 368 b 633 485 544 413 601 453 b 715 683 688 539 715 606 b 638 885 715 757 689 824 b 394 975 586 944 506 975 b 114 833 260 975 167 928 b 67 626 85 781 68 711 l 192 626 b 219 768 193 688 203 733 b 393 863 251 831 310 863 b 529 813 450 863 494 846 b 579 678 563 781 579 735 b 524 550 579 631 561 586 b 401 463 500 525 460 496 l 271 388 b 96 218 183 336 125 281 z "},"3":{"ha":772,"x_min":0,"x_max":0,"o":"m 111 68 b 361 -26 163 6 246 -26 b 621 61 472 -26 560 3 b 713 288 682 119 713 194 b 669 435 713 346 697 394 b 550 515 640 475 600 501 b 626 569 581 528 607 547 b 675 715 658 607 675 656 b 593 907 675 799 647 863 b 364 972 539 951 463 972 b 101 838 238 972 150 926 b 58 653 72 786 58 725 l 178 653 b 207 781 181 707 190 750 b 376 861 239 835 294 861 b 496 822 422 861 463 849 b 549 710 531 796 549 758 b 471 575 549 644 522 600 b 358 553 442 560 404 553 l 331 553 b 299 556 321 554 311 554 l 299 449 b 324 450 307 449 315 449 l 349 450 b 519 410 421 450 478 436 b 581 269 560 383 581 336 b 522 136 581 215 561 171 b 368 85 483 101 432 85 b 196 161 285 85 228 111 b 161 299 178 190 167 235 l 33 299 b 111 68 33 208 58 132 z "},"4":{"ha":772,"x_min":0,"x_max":0,"o":"m 35 238 l 461 238 l 461 0 l 583 0 l 583 238 l 726 238 l 726 344 l 583 344 l 583 974 l 481 974 l 35 357 z m 147 344 l 460 783 l 460 344 z "},"5":{"ha":772,"x_min":0,"x_max":0,"o":"m 172 247 l 44 247 b 147 43 53 156 86 86 b 357 -25 207 -1 278 -25 b 629 81 481 -25 572 11 b 714 324 685 150 714 232 b 621 542 714 411 682 485 b 394 628 558 600 483 628 b 268 606 347 628 304 621 b 204 567 249 597 226 583 l 246 838 l 658 838 l 658 954 l 154 954 l 81 432 l 186 426 b 263 493 207 456 232 478 b 371 518 293 510 329 518 b 521 463 429 518 479 500 b 582 306 561 425 582 374 b 529 151 582 249 564 199 b 369 83 494 106 442 83 b 268 103 331 83 297 89 b 172 247 213 129 179 178 z "},"6":{"ha":772,"x_min":0,"x_max":0,"o":"m 633 892 b 406 975 590 947 515 975 b 96 733 257 975 153 894 b 53 426 67 650 53 547 b 151 79 53 263 86 147 b 386 -25 217 10 296 -25 b 632 78 493 -25 575 8 b 718 311 690 144 718 224 b 628 544 718 414 688 492 b 414 622 567 596 496 622 b 285 594 367 622 322 613 b 178 503 242 575 206 544 b 246 774 183 619 206 711 b 408 868 286 838 340 868 b 542 807 468 868 513 847 b 576 717 557 785 569 756 l 697 717 b 633 892 697 776 676 835 z m 542 149 b 397 83 510 106 463 83 b 249 146 333 83 285 104 b 194 301 213 188 194 239 b 254 458 194 371 214 424 b 392 511 293 493 339 511 b 547 443 467 511 518 489 b 589 301 575 399 589 350 b 542 149 589 242 574 192 z "},"7":{"ha":772,"x_min":0,"x_max":0,"o":"m 726 849 l 726 954 l 51 954 l 51 832 l 588 832 b 393 553 519 754 454 661 b 189 0 288 369 219 185 l 324 0 b 375 217 346 100 363 172 b 464 447 396 286 425 363 b 603 690 504 535 550 615 b 726 849 654 765 694 818 z "},"8":{"ha":772,"x_min":0,"x_max":0,"o":"m 132 568 b 211 518 151 549 178 532 b 86 422 157 494 115 463 b 44 272 58 379 44 331 b 143 50 44 175 78 100 b 382 -28 208 -1 289 -28 b 626 61 488 -28 568 1 b 713 279 683 121 713 193 b 647 456 713 351 690 410 b 553 519 625 479 593 500 b 633 581 589 539 615 560 b 679 728 664 618 679 668 b 600 900 679 794 653 851 b 381 974 547 950 474 974 b 157 896 285 974 210 949 b 79 710 106 843 79 782 b 132 568 79 651 96 604 z m 504 610 b 378 564 474 579 432 564 b 258 603 332 564 292 578 b 207 710 224 629 207 665 b 246 817 207 751 219 786 b 374 863 272 847 315 863 b 506 817 433 863 476 847 b 550 717 535 786 550 753 b 504 610 550 675 535 639 z m 526 129 b 385 83 489 99 442 83 b 229 139 315 83 263 101 b 178 269 196 175 178 219 b 233 408 178 329 197 375 b 376 458 271 442 318 458 b 524 408 436 458 486 442 b 582 265 563 376 582 329 b 526 129 582 206 564 160 z "},"9":{"ha":772,"x_min":0,"x_max":0,"o":"m 185 235 l 61 235 b 135 47 61 160 86 97 b 351 -28 185 -1 257 -28 b 653 203 493 -28 593 50 b 706 518 689 293 706 400 b 661 781 706 624 692 711 b 368 972 607 908 510 972 b 131 872 263 972 183 939 b 50 639 76 806 50 728 b 132 414 50 549 76 472 b 353 326 186 356 260 326 b 483 353 400 326 443 336 b 583 443 522 371 556 401 b 496 147 567 294 538 196 b 347 75 454 99 406 75 b 263 94 315 75 288 82 b 185 235 214 121 188 168 z m 503 482 b 369 433 463 450 418 433 b 222 490 303 433 253 453 b 176 640 192 528 176 578 b 229 801 176 708 194 761 b 371 861 264 842 311 861 b 508 810 426 861 472 843 b 563 649 544 774 563 721 b 503 482 563 569 543 514 z "}," ":{"ha":386,"x_min":0,"x_max":0,"o":""},"\u0000":{"ha":0,"x_min":0,"x_max":0,"o":""},"\t":{"ha":386,"x_min":0,"x_max":0,"o":""},"!":{"ha":386,"x_min":0,"x_max":0,"o":"m 299 668 l 299 996 l 161 996 l 161 668 l 196 238 l 265 238 z m 296 0 l 296 142 l 161 142 l 161 0 z "},"\"":{"ha":493,"x_min":0,"x_max":0,"o":"m 76 597 l 158 597 l 178 996 l 56 996 z m 308 597 l 390 597 l 411 996 l 288 996 z "},"#":{"ha":772,"x_min":0,"x_max":0,"o":"m 242 614 l 178 381 l 21 381 l 0 301 l 157 301 l 75 0 l 176 0 l 257 301 l 408 301 l 326 0 l 426 0 l 510 301 l 665 301 l 686 381 l 528 381 l 593 614 l 750 614 l 771 693 l 614 693 l 696 996 l 596 996 l 513 693 l 363 693 l 444 996 l 344 996 l 263 693 l 106 693 l 85 614 z m 342 614 l 492 614 l 428 381 l 279 381 z "},"$":{"ha":772,"x_min":0,"x_max":0,"o":"m 139 903 b 63 717 88 847 63 785 b 132 536 63 640 86 579 b 349 443 179 493 251 463 l 349 74 b 193 160 272 81 221 110 b 164 296 176 189 167 233 l 43 296 b 82 111 43 218 57 156 b 350 -29 129 26 218 -21 l 350 -161 l 414 -161 l 414 -29 b 603 26 496 -21 558 -1 b 719 283 681 78 719 163 b 628 471 719 367 689 429 b 414 554 590 497 519 525 l 414 883 b 550 811 476 882 522 857 b 579 724 567 786 575 757 l 697 724 b 622 908 694 800 669 863 b 414 988 574 956 504 982 l 414 1076 l 350 1076 l 350 986 b 139 903 260 986 189 957 z m 229 619 b 185 725 200 644 185 681 b 222 832 185 763 197 797 b 349 886 247 865 289 883 l 349 567 b 229 619 299 578 258 594 z m 575 156 b 414 71 546 103 492 74 l 414 428 b 535 378 471 411 511 396 b 597 250 576 349 597 306 b 575 156 597 214 590 182 z "},"%":{"ha":1235,"x_min":0,"x_max":0,"o":"m 381 -26 l 924 967 l 849 967 l 306 -26 z m 449 872 b 281 942 403 919 347 942 b 114 872 215 942 160 919 b 44 706 68 826 44 771 b 114 539 44 640 68 585 b 281 469 160 492 215 469 b 449 539 347 469 403 492 b 518 706 494 585 518 640 b 449 872 518 771 494 826 z m 381 607 b 281 565 353 579 319 565 b 182 607 242 565 210 579 b 142 706 154 635 142 667 b 182 804 142 744 154 778 b 281 844 210 832 242 844 b 381 804 319 844 353 832 b 421 706 407 776 421 744 b 381 607 421 667 407 635 z m 1114 403 b 947 472 1068 449 1013 472 b 779 403 881 472 825 449 b 710 236 733 357 710 301 b 779 69 710 171 733 115 b 947 0 825 24 881 0 b 1114 69 1013 0 1068 24 b 1183 236 1160 115 1183 171 b 1114 403 1183 301 1160 357 z m 1046 138 b 947 96 1018 110 985 96 b 847 138 908 96 875 110 b 807 236 819 165 807 197 b 847 335 807 275 819 307 b 947 376 875 363 908 376 b 1046 335 985 376 1018 363 b 1086 236 1072 307 1086 275 b 1046 138 1086 197 1072 165 z "},"&":{"ha":926,"x_min":0,"x_max":0,"o":"m 896 0 l 721 213 b 753 286 724 217 735 240 b 799 469 776 344 792 406 l 683 469 b 668 394 678 438 674 413 b 643 314 664 376 656 349 l 461 531 b 579 628 517 567 556 600 b 639 794 619 675 639 731 b 581 936 639 850 619 897 b 419 994 543 975 489 994 b 244 932 347 994 289 974 b 179 772 201 889 179 836 b 201 676 179 742 188 710 b 286 554 215 643 243 603 b 129 439 208 508 157 469 b 60 250 83 388 60 325 b 131 61 60 179 85 117 b 357 -24 178 4 253 -24 b 543 26 426 -24 489 -7 b 644 114 574 44 607 74 l 738 0 z m 314 843 b 418 893 333 876 368 893 b 496 861 451 893 476 882 b 525 785 517 840 525 814 b 486 683 525 749 513 714 b 397 608 469 664 439 639 b 321 707 361 649 336 682 b 299 786 306 732 299 758 b 314 843 299 807 303 826 z m 494 118 b 365 85 460 96 415 85 b 242 126 321 85 281 99 b 183 249 203 156 183 196 b 229 374 183 297 199 339 b 353 471 249 396 289 428 l 579 196 b 494 118 558 168 531 142 z "},"'":{"ha":265,"x_min":0,"x_max":0,"o":"m 128 597 l 207 597 l 229 996 l 106 996 z "},"(":{"ha":463,"x_min":0,"x_max":0,"o":"m 411 1013 l 326 1013 b 160 714 242 881 186 781 b 96 357 117 610 96 490 b 104 244 96 321 99 283 b 157 29 114 168 132 97 b 208 -86 175 -19 193 -58 b 331 -283 224 -115 265 -181 l 413 -283 b 279 6 347 -158 301 -61 b 225 365 243 114 225 233 b 272 708 225 494 240 608 b 411 1013 293 774 340 875 z "},")":{"ha":463,"x_min":0,"x_max":0,"o":"m 49 -283 l 133 -283 b 299 14 217 -153 272 -53 b 363 372 342 119 363 239 b 349 532 363 424 358 476 b 303 699 340 586 324 643 b 256 807 286 744 269 781 b 128 1013 240 833 199 901 l 46 1013 b 179 724 113 888 157 790 b 235 365 217 615 235 496 b 188 24 235 233 219 119 b 49 -283 167 -42 119 -143 z "},"*":{"ha":540,"x_min":0,"x_max":0,"o":"m 453 897 l 306 844 l 306 996 l 226 996 l 226 843 l 81 897 l 53 821 l 203 774 l 110 646 l 178 597 l 268 729 l 357 597 l 424 646 l 332 774 l 481 821 z "},"+":{"ha":811,"x_min":0,"x_max":0,"o":"m 358 411 l 63 411 l 63 297 l 358 297 l 358 0 l 474 0 l 474 297 l 769 297 l 769 411 l 474 411 l 474 708 l 358 708 z "},",":{"ha":386,"x_min":0,"x_max":0,"o":"m 115 -142 l 115 -206 b 228 -131 169 -197 206 -172 b 260 11 250 -90 260 -43 l 260 147 l 115 147 l 115 0 l 189 0 b 192 -8 190 -3 190 -6 l 192 -17 b 181 -76 192 -36 188 -56 b 115 -142 168 -115 146 -136 z "},"-":{"ha":463,"x_min":0,"x_max":0,"o":"m 399 324 l 399 450 l 58 450 l 58 324 z "},".":{"ha":386,"x_min":0,"x_max":0,"o":"m 260 0 l 260 147 l 118 147 l 118 0 z "},"/":{"ha":386,"x_min":0,"x_max":0,"o":"m 103 0 l 419 996 l 317 996 l 0 0 z "},":":{"ha":386,"x_min":0,"x_max":0,"o":"m 296 569 l 296 717 l 154 717 l 154 569 z m 296 0 l 296 147 l 154 147 l 154 0 z "},";":{"ha":386,"x_min":0,"x_max":0,"o":"m 299 569 l 299 717 l 154 717 l 154 569 z m 154 -142 l 154 -206 b 278 -111 213 -196 254 -164 b 299 11 292 -78 299 -37 l 299 147 l 154 147 l 154 0 l 228 0 b 229 -11 229 -6 229 -8 l 229 -17 b 219 -79 229 -39 226 -60 b 154 -142 207 -115 186 -136 z "},"<":{"ha":811,"x_min":0,"x_max":0,"o":"m 811 600 l 811 722 l 19 411 l 19 299 l 811 -12 l 811 110 l 164 354 z "},"=":{"ha":811,"x_min":0,"x_max":0,"o":"m 63 443 l 769 443 l 769 557 l 63 557 z m 63 150 l 769 150 l 769 267 l 63 267 z "},">":{"ha":811,"x_min":0,"x_max":0,"o":"m 19 110 l 19 -12 l 811 297 l 811 411 l 19 722 l 19 600 l 667 354 z "},"?":{"ha":772,"x_min":0,"x_max":0,"o":"m 189 921 b 106 685 133 861 106 782 l 226 685 b 254 819 229 743 238 788 b 411 903 283 875 336 903 b 543 854 472 903 517 888 b 582 739 569 822 582 783 b 554 647 582 707 574 676 b 515 600 544 631 532 615 l 461 546 b 360 410 408 494 376 450 b 338 254 344 371 338 318 l 458 254 b 478 383 458 311 464 354 b 561 490 490 413 518 447 b 681 621 621 547 661 592 b 710 738 700 651 710 690 b 631 933 710 817 683 882 b 415 1010 576 983 504 1010 b 189 921 319 1010 243 979 z m 469 0 l 469 142 l 335 142 l 335 0 z "},"@":{"ha":1410,"x_min":0,"x_max":0,"o":"m 275 147 b 713 -29 378 29 522 -29 b 979 18 810 -29 899 -14 b 1161 119 1060 50 1121 85 l 1117 181 b 939 86 1064 142 1004 110 b 729 50 875 61 806 50 b 358 186 569 50 446 94 b 247 471 285 263 247 357 b 364 793 247 600 286 707 b 758 943 456 893 586 943 b 1054 854 882 943 981 914 b 1164 607 1128 793 1164 711 b 1103 396 1164 519 1143 449 b 964 315 1061 342 1015 315 b 922 329 949 315 933 319 b 903 374 908 338 903 353 b 907 410 903 383 904 396 b 922 465 911 425 915 443 l 1013 763 l 913 763 l 879 649 b 832 746 876 686 861 719 b 717 785 801 772 763 785 b 526 682 649 785 586 751 b 438 444 468 614 438 535 b 490 289 438 381 456 329 b 625 229 525 249 569 229 b 739 261 664 229 701 239 b 829 371 775 282 806 318 b 826 354 828 365 826 360 b 825 339 825 349 825 343 b 857 261 825 308 836 282 b 956 229 878 239 911 229 b 1163 339 1032 229 1101 265 b 1256 603 1225 411 1256 499 b 1126 901 1256 725 1213 825 b 746 1024 1033 983 907 1024 b 301 851 560 1024 413 965 b 153 475 203 749 153 622 b 275 147 153 351 193 242 z m 819 682 b 847 606 838 660 847 633 b 796 413 847 549 831 485 b 653 306 761 342 714 306 b 579 342 624 306 600 318 b 550 442 560 364 550 399 b 607 624 550 503 569 563 b 742 715 644 685 690 715 b 819 682 775 715 800 704 z "},"A":{"ha":926,"x_min":0,"x_max":0,"o":"m 910 0 l 549 996 l 396 996 l 21 0 l 158 0 l 267 299 l 661 299 l 761 0 z m 306 408 l 465 849 l 617 408 z "},"B":{"ha":926,"x_min":0,"x_max":0,"o":"m 531 996 l 103 996 l 103 0 l 524 0 b 810 117 654 0 750 39 b 871 290 850 169 871 226 b 804 471 871 368 849 428 b 689 536 779 494 740 517 b 769 594 724 554 751 574 b 822 750 806 635 822 686 b 779 892 822 803 808 850 b 531 996 729 961 647 996 z m 481 575 l 235 575 l 235 883 l 475 883 b 608 865 535 883 579 878 b 688 733 661 842 688 799 b 613 599 688 668 663 624 b 481 575 581 583 538 575 z m 525 115 l 235 115 l 235 465 l 503 465 b 639 444 558 465 604 460 b 736 297 703 418 736 369 b 703 188 736 254 725 218 b 525 115 667 139 608 115 z "},"C":{"ha":1003,"x_min":0,"x_max":0,"o":"m 819 924 b 525 1024 750 990 651 1024 b 178 869 378 1024 261 972 b 61 508 100 776 61 656 b 217 79 61 315 113 172 b 508 -26 294 10 392 -26 b 828 103 642 -26 749 17 b 944 367 894 174 933 261 l 813 367 b 751 207 800 300 779 247 b 524 93 699 131 624 93 b 281 203 417 93 335 129 b 199 486 226 275 199 369 b 289 803 199 628 229 733 b 526 906 350 871 429 906 b 715 850 607 906 669 888 b 804 697 758 813 789 761 l 935 697 b 819 924 928 782 889 857 z "},"D":{"ha":1003,"x_min":0,"x_max":0,"o":"m 515 996 l 113 996 l 113 0 l 514 0 b 875 226 685 0 806 75 b 935 514 915 313 935 407 b 835 850 935 650 901 763 b 515 996 758 947 653 996 z m 489 115 l 247 115 l 247 881 l 488 881 b 724 778 596 881 675 846 b 797 490 774 710 797 614 b 788 386 797 458 794 424 b 729 232 776 322 756 271 b 601 129 696 181 653 147 b 489 115 572 119 533 115 z "},"E":{"ha":926,"x_min":0,"x_max":0,"o":"m 844 874 l 844 996 l 118 996 l 118 0 l 856 0 l 856 118 l 250 118 l 250 457 l 800 457 l 800 572 l 250 572 l 250 874 z "},"F":{"ha":849,"x_min":0,"x_max":0,"o":"m 810 874 l 810 996 l 118 996 l 118 0 l 254 0 l 254 453 l 743 453 l 743 572 l 254 572 l 254 874 z "},"G":{"ha":1081,"x_min":0,"x_max":0,"o":"m 779 968 b 536 1022 711 1004 631 1022 b 203 881 400 1022 289 975 b 67 483 113 782 67 650 b 206 88 67 315 114 183 b 511 -26 290 11 393 -26 b 736 24 603 -26 678 -10 b 858 128 772 43 813 78 l 890 0 l 978 0 l 978 533 l 540 533 l 540 421 l 851 421 b 761 168 850 304 821 221 b 538 89 703 115 628 89 b 283 201 421 89 336 126 b 206 490 232 275 206 372 b 300 800 206 628 238 731 b 533 903 364 868 440 903 b 726 854 611 903 675 888 b 828 694 778 821 811 767 l 961 694 b 779 968 939 825 878 915 z "},"H":{"ha":1003,"x_min":0,"x_max":0,"o":"m 246 585 l 246 996 l 110 996 l 110 0 l 246 0 l 246 465 l 764 465 l 764 0 l 900 0 l 900 996 l 764 996 l 764 585 z "},"I":{"ha":386,"x_min":0,"x_max":0,"o":"m 272 0 l 272 996 l 136 996 l 136 0 z "},"J":{"ha":694,"x_min":0,"x_max":0,"o":"m 594 297 l 594 996 l 461 996 l 461 332 b 440 161 461 249 454 192 b 300 86 418 111 372 86 b 188 128 249 86 211 100 b 150 250 163 156 150 196 l 150 321 l 24 321 l 24 250 b 103 35 24 146 50 75 b 294 -26 156 -6 219 -26 b 557 101 424 -26 511 17 b 594 297 582 147 594 213 z "},"K":{"ha":926,"x_min":0,"x_max":0,"o":"m 238 511 l 238 996 l 106 996 l 106 0 l 238 0 l 238 347 l 397 500 l 746 0 l 921 0 l 494 594 l 910 996 l 724 996 z "},"L":{"ha":772,"x_min":0,"x_max":0,"o":"m 240 118 l 240 996 l 106 996 l 106 0 l 746 0 l 746 118 z "},"M":{"ha":1157,"x_min":0,"x_max":0,"o":"m 582 154 l 296 996 l 103 996 l 103 0 l 232 0 l 232 588 b 231 699 232 611 231 649 b 228 810 229 749 228 785 l 228 840 l 514 0 l 647 0 l 932 840 b 931 689 932 786 931 736 b 929 588 929 642 929 608 l 929 0 l 1057 0 l 1057 996 l 867 996 z "},"N":{"ha":1003,"x_min":0,"x_max":0,"o":"m 768 189 l 265 996 l 106 996 l 106 0 l 235 0 l 235 807 l 746 0 l 897 0 l 897 996 l 768 996 z "},"O":{"ha":1081,"x_min":0,"x_max":0,"o":"m 926 854 b 536 1024 842 967 711 1024 b 154 839 368 1024 240 961 b 54 493 88 743 54 628 b 172 122 54 344 93 221 b 533 -29 260 22 379 -29 b 913 144 697 -29 824 29 b 1025 515 988 243 1025 367 b 926 854 1025 653 992 765 z m 808 219 b 550 92 754 135 668 92 b 278 206 424 92 333 129 b 194 485 222 281 194 374 b 292 797 194 622 226 726 b 544 903 357 868 440 903 b 796 796 650 903 733 868 b 888 514 857 725 888 631 b 808 219 888 403 861 304 z "},"P":{"ha":926,"x_min":0,"x_max":0,"o":"m 567 996 l 118 996 l 118 0 l 254 0 l 254 421 l 567 421 b 790 508 667 421 742 450 b 863 711 839 565 863 633 b 781 922 863 801 836 871 b 567 996 726 971 656 996 z m 644 860 b 726 710 699 833 726 783 b 669 574 726 644 707 600 b 522 535 632 549 582 535 l 254 535 l 254 881 l 522 881 b 644 860 575 881 615 874 z "},"Q":{"ha":1081,"x_min":0,"x_max":0,"o":"m 796 38 l 950 -79 l 1017 3 l 881 110 b 1001 331 938 167 978 240 b 1025 515 1017 389 1025 451 b 926 854 1025 653 992 765 b 536 1024 842 967 711 1024 b 154 839 368 1024 240 961 b 54 493 88 743 54 628 b 171 122 54 344 93 221 b 533 -29 258 22 379 -29 b 675 -11 585 -29 632 -24 b 796 38 718 1 758 18 z m 629 97 b 550 92 604 93 578 92 b 285 199 433 92 346 126 b 194 485 225 269 194 364 b 289 801 194 626 225 732 b 544 903 351 869 436 903 b 796 796 650 903 733 868 b 888 514 857 725 888 631 b 865 346 888 460 879 404 b 781 188 850 288 822 235 l 651 289 l 583 206 l 693 119 b 629 97 674 108 653 101 z "},"R":{"ha":1003,"x_min":0,"x_max":0,"o":"m 583 996 l 122 996 l 122 0 l 257 0 l 257 428 l 564 428 b 686 408 619 428 660 421 b 758 278 731 386 754 343 l 767 113 b 774 33 768 74 771 47 b 783 0 776 19 779 8 l 950 0 l 950 22 b 906 83 928 31 914 51 b 897 168 901 101 897 131 l 892 301 b 860 428 890 360 879 401 b 771 490 839 453 810 474 b 875 581 815 513 850 543 b 911 728 899 619 911 668 b 771 963 911 842 865 921 b 583 996 722 985 660 996 z m 569 540 l 257 540 l 257 881 l 586 881 b 697 860 633 881 669 874 b 775 715 749 835 775 786 b 719 578 775 649 756 603 b 569 540 682 553 632 540 z "},"S":{"ha":926,"x_min":0,"x_max":0,"o":"m 194 321 l 67 321 b 171 65 65 214 100 129 b 461 -29 240 3 338 -29 b 742 42 568 -29 661 -6 b 861 279 821 89 861 168 b 767 482 861 368 829 435 b 610 544 729 508 678 529 l 471 576 b 289 631 376 599 317 617 b 229 738 249 653 229 689 b 281 854 229 782 246 821 b 453 904 315 888 374 904 b 663 826 550 904 621 879 b 706 704 685 799 699 757 l 832 704 b 724 946 832 814 796 896 b 457 1021 650 996 561 1021 b 193 935 343 1021 256 993 b 100 715 132 878 100 804 b 196 528 100 632 132 569 b 382 463 232 504 294 482 l 518 432 b 679 374 590 415 644 396 b 729 257 713 350 729 311 b 608 107 729 185 690 135 b 471 85 568 92 521 85 b 233 183 357 85 279 118 b 194 321 210 219 197 265 z "},"T":{"ha":849,"x_min":0,"x_max":0,"o":"m 494 878 l 831 878 l 831 996 l 22 996 l 22 878 l 358 878 l 358 0 l 494 0 z "},"U":{"ha":1003,"x_min":0,"x_max":0,"o":"m 253 381 l 253 996 l 115 996 l 115 436 b 165 154 115 314 132 219 b 507 -26 225 33 339 -26 b 850 154 675 -26 790 33 b 900 436 883 219 900 314 l 900 996 l 763 996 l 763 381 b 729 208 763 308 753 251 b 496 92 689 131 611 92 b 293 200 401 92 333 128 b 253 381 265 249 253 308 z "},"V":{"ha":926,"x_min":0,"x_max":0,"o":"m 753 996 l 471 147 l 185 996 l 35 996 l 399 0 l 542 0 l 904 996 z "},"W":{"ha":1311,"x_min":0,"x_max":0,"o":"m 585 996 l 360 186 l 172 996 l 25 996 l 286 0 l 428 0 l 658 826 l 889 0 l 1031 0 l 1292 996 l 1144 996 l 956 186 l 731 996 z "},"X":{"ha":926,"x_min":0,"x_max":0,"o":"m 385 511 l 29 0 l 192 0 l 467 410 l 736 0 l 903 0 l 553 511 l 888 996 l 726 996 l 474 615 l 219 996 l 51 996 z "},"Y":{"ha":926,"x_min":0,"x_max":0,"o":"m 472 518 l 186 996 l 29 996 l 406 401 l 406 0 l 540 0 l 540 401 l 917 996 l 758 996 z "},"Z":{"ha":849,"x_min":0,"x_max":0,"o":"m 76 878 l 643 878 l 32 113 l 32 0 l 817 0 l 817 118 l 203 118 l 817 881 l 817 996 l 76 996 z "},"[":{"ha":386,"x_min":0,"x_max":0,"o":"m 347 903 l 347 1003 l 86 1003 l 86 -274 l 347 -274 l 347 -174 l 203 -174 l 203 903 z "},"\\":{"ha":386,"x_min":0,"x_max":0,"o":"m 340 0 l 446 0 l 58 996 l -47 996 z "},"]":{"ha":386,"x_min":0,"x_max":0,"o":"m 176 903 l 176 -174 l 32 -174 l 32 -274 l 292 -274 l 292 1003 l 32 1003 l 32 903 z "},"^":{"ha":651,"x_min":0,"x_max":0,"o":"m 553 411 l 664 411 l 424 996 l 319 996 l 82 411 l 193 411 l 372 860 z "},"_":{"ha":772,"x_min":0,"x_max":0,"o":"m 772 -106 l 0 -106 l 0 -174 l 772 -174 z "},"`":{"ha":463,"x_min":0,"x_max":0,"o":"m 26 1018 l 207 822 l 300 822 l 176 1018 z "},"a":{"ha":772,"x_min":0,"x_max":0,"o":"m 479 440 l 285 415 b 118 347 215 407 161 385 b 56 190 76 310 56 258 b 119 38 56 129 78 78 b 285 -25 163 -4 218 -25 b 439 11 342 -25 392 -12 b 546 96 486 35 521 64 b 567 29 550 67 557 44 b 658 -15 586 0 617 -15 b 699 -14 675 -15 689 -15 b 743 -3 710 -12 724 -8 l 743 86 b 721 85 735 86 728 85 b 703 83 714 83 708 83 b 669 94 686 83 675 86 b 663 125 665 101 663 113 l 663 543 b 582 694 663 611 636 663 b 375 744 529 728 460 744 b 181 692 300 744 236 726 b 93 504 124 657 94 594 l 207 504 b 236 589 211 542 221 571 b 372 640 263 624 308 640 b 499 613 426 640 469 632 b 543 522 528 594 543 564 b 535 475 543 501 540 486 b 479 440 525 456 507 443 z m 222 110 b 183 193 196 131 183 158 b 239 294 183 240 203 274 b 339 322 261 308 294 317 l 413 332 b 482 346 435 335 458 340 b 540 369 506 351 525 360 l 540 271 b 438 110 540 196 506 143 b 314 79 399 89 356 79 b 222 110 278 79 247 89 z "},"b":{"ha":772,"x_min":0,"x_max":0,"o":"m 199 638 l 199 1000 l 81 1000 l 81 0 l 193 0 l 193 93 b 265 17 218 58 243 32 b 406 -24 303 -10 350 -24 b 636 90 503 -24 581 15 b 719 376 692 167 719 263 b 636 653 719 499 692 590 b 415 746 579 714 506 746 b 294 718 372 746 332 736 b 199 638 257 700 225 672 z m 546 164 b 397 85 513 111 463 85 b 218 204 310 85 250 125 b 192 371 201 247 192 303 b 256 575 192 465 213 533 b 401 636 296 615 346 636 b 546 561 464 636 513 611 b 594 371 579 511 594 447 b 546 164 594 285 579 215 z "},"c":{"ha":694,"x_min":0,"x_max":0,"o":"m 569 688 b 369 747 518 728 451 747 b 133 640 274 747 194 713 b 40 343 71 569 40 471 b 125 83 40 239 68 153 b 351 -21 181 14 257 -21 b 560 46 436 -21 506 1 b 663 257 614 90 649 161 l 543 257 b 482 131 532 203 511 161 b 361 83 453 99 413 83 b 217 158 296 83 247 108 b 171 342 186 207 171 269 b 203 524 171 414 181 475 b 369 638 236 600 292 638 b 493 594 426 638 468 624 b 543 482 519 564 536 526 l 663 482 b 569 688 651 579 621 647 z "},"d":{"ha":772,"x_min":0,"x_max":0,"o":"m 490 704 b 350 739 453 728 406 739 b 119 624 250 739 174 700 b 38 347 65 546 38 454 b 126 76 38 235 68 144 b 338 -26 186 8 257 -26 b 471 4 388 -26 432 -15 b 572 101 510 24 543 57 l 572 0 l 682 0 l 682 1000 l 564 1000 l 564 633 b 490 704 536 667 513 690 z m 217 160 b 167 354 183 211 167 276 b 225 563 167 446 186 515 b 374 633 263 608 313 633 b 513 567 429 633 475 611 b 569 363 550 522 569 454 b 515 154 569 272 550 203 b 375 81 478 106 432 81 b 217 160 303 81 250 107 z "},"e":{"ha":772,"x_min":0,"x_max":0,"o":"m 542 707 b 392 743 493 731 443 743 b 144 633 289 743 207 706 b 49 349 81 561 49 465 b 143 74 49 231 81 139 b 374 -26 206 7 283 -26 b 472 -15 410 -26 443 -22 b 610 58 528 -1 574 22 b 671 139 633 79 653 106 b 701 228 689 172 699 201 l 582 228 b 536 143 574 196 557 168 b 383 81 497 101 447 81 b 232 147 315 81 264 103 b 179 324 200 192 182 250 l 713 324 b 701 485 713 397 708 451 b 653 613 693 533 676 576 b 542 707 628 651 590 682 z m 586 421 l 183 421 b 243 576 185 483 206 535 b 385 636 282 615 328 636 b 551 549 463 636 519 607 b 586 421 571 517 582 474 z "},"f":{"ha":386,"x_min":0,"x_max":0,"o":"m 146 949 b 119 838 131 925 122 888 l 119 724 l 19 724 l 19 626 l 119 626 l 119 0 l 240 0 l 240 626 l 363 626 l 363 724 l 242 724 b 253 869 242 801 246 850 b 319 899 260 889 282 899 l 336 899 b 363 897 342 897 350 897 l 363 1008 l 335 1010 b 311 1011 326 1011 318 1011 b 146 949 231 1011 175 989 z "},"g":{"ha":772,"x_min":0,"x_max":0,"o":"m 494 697 b 346 739 453 725 403 739 b 131 636 261 739 190 706 b 42 351 71 568 42 474 b 131 75 42 224 71 131 b 336 -8 189 19 258 -8 b 472 18 393 -8 438 0 b 561 101 507 36 536 64 b 538 -107 563 1 554 -68 b 353 -206 508 -174 447 -206 b 224 -165 294 -206 251 -193 b 188 -90 206 -147 194 -122 l 64 -90 b 153 -256 69 -165 100 -219 b 350 -307 207 -289 272 -307 b 638 -160 492 -307 586 -258 b 678 58 665 -106 678 -33 l 678 719 l 565 719 l 565 628 b 494 697 542 658 518 682 z m 510 567 b 565 367 547 522 565 457 b 536 210 565 307 556 254 b 350 90 500 131 438 90 b 217 156 294 90 250 113 b 167 342 183 199 167 260 b 192 511 167 411 175 468 b 368 632 224 592 282 632 b 510 567 426 632 472 610 z "},"h":{"ha":772,"x_min":0,"x_max":0,"o":"m 211 628 l 211 1000 l 89 1000 l 89 0 l 211 0 l 211 385 b 274 582 211 482 232 549 b 411 635 315 617 360 635 b 536 575 472 635 514 615 b 556 458 550 550 556 511 l 556 0 l 682 0 l 682 465 b 651 633 682 538 671 593 b 436 744 614 707 542 744 b 289 706 378 744 329 731 b 211 628 267 690 240 665 z "},"i":{"ha":308,"x_min":0,"x_max":0,"o":"m 214 858 l 214 996 l 89 996 l 89 858 z m 214 0 l 214 724 l 89 724 l 89 0 z "},"j":{"ha":308,"x_min":0,"x_max":0,"o":"m 89 996 l 89 856 l 211 856 l 211 996 z m -26 -183 l -26 -289 l 6 -292 b 24 -293 11 -293 18 -293 b 186 -226 103 -293 157 -271 b 211 -108 203 -200 211 -161 l 211 724 l 89 724 l 89 -94 b 74 -169 89 -136 85 -161 b -26 -183 61 -176 29 -182 z "},"k":{"ha":694,"x_min":0,"x_max":0,"o":"m 204 418 l 204 996 l 86 996 l 86 0 l 204 0 l 204 272 l 307 367 l 533 0 l 689 0 l 396 454 l 674 726 l 518 726 z "},"l":{"ha":308,"x_min":0,"x_max":0,"o":"m 215 0 l 215 996 l 93 996 l 93 0 z "},"m":{"ha":1157,"x_min":0,"x_max":0,"o":"m 210 624 l 210 726 l 89 726 l 89 0 l 211 0 l 211 385 b 268 579 211 479 231 543 b 394 633 306 615 347 633 b 497 582 444 633 479 615 b 515 474 510 560 515 524 l 515 0 l 639 0 l 639 422 b 692 583 639 497 657 551 b 815 632 726 615 767 632 b 904 604 850 632 879 622 b 940 504 928 586 940 553 l 940 0 l 1067 0 l 1067 483 b 1039 636 1067 549 1057 599 b 839 743 1003 707 936 743 b 715 715 793 743 753 733 b 619 628 679 696 647 667 b 565 700 604 660 585 683 b 426 743 531 728 483 743 b 289 701 375 743 329 729 b 210 624 265 685 239 660 z "},"n":{"ha":772,"x_min":0,"x_max":0,"o":"m 206 624 l 206 726 l 89 726 l 89 0 l 211 0 l 211 381 b 221 490 211 428 215 464 b 260 564 228 515 240 540 b 349 624 286 594 315 614 b 419 633 367 631 390 633 b 538 565 476 633 517 610 b 557 458 550 538 557 501 l 557 0 l 682 0 l 682 465 b 651 635 682 539 671 596 b 443 743 615 707 546 743 b 315 715 396 743 353 733 b 206 624 276 696 240 665 z "},"o":{"ha":772,"x_min":0,"x_max":0,"o":"m 619 654 b 382 747 556 717 476 747 b 133 639 278 747 194 711 b 40 347 71 567 40 469 b 128 75 40 233 69 143 b 367 -26 188 7 267 -26 b 632 88 486 -26 575 11 b 717 378 689 165 717 261 b 619 654 717 500 685 592 z m 544 171 b 378 79 514 110 458 79 b 217 156 304 79 250 104 b 165 349 182 207 165 272 b 217 556 165 431 182 499 b 379 640 250 613 304 640 b 557 540 463 640 522 607 b 589 375 579 497 589 443 b 544 171 589 300 575 232 z "},"p":{"ha":772,"x_min":0,"x_max":0,"o":"m 199 626 l 199 724 l 81 724 l 81 -289 l 203 -289 l 203 82 b 275 11 229 49 253 25 b 413 -25 313 -12 357 -25 b 596 40 482 -25 543 -3 b 719 379 678 108 719 221 b 633 650 719 496 692 586 b 424 744 576 713 506 744 b 279 703 368 744 319 731 b 199 626 250 685 224 660 z m 539 154 b 396 82 500 106 453 82 b 222 194 313 82 254 119 b 197 338 206 233 197 282 b 222 510 197 407 206 464 b 396 636 254 594 311 636 b 569 517 481 636 538 597 b 594 368 586 475 594 425 b 539 154 594 272 576 201 z "},"q":{"ha":772,"x_min":0,"x_max":0,"o":"m 500 697 b 349 743 460 728 408 743 b 126 631 258 743 183 706 b 40 344 69 556 40 461 b 132 68 40 221 71 128 b 340 -24 193 7 263 -24 b 475 6 393 -24 439 -14 b 558 83 511 25 539 51 l 558 -289 l 682 -289 l 682 726 l 565 726 l 565 625 b 500 697 544 657 522 681 z m 194 196 b 168 353 176 238 168 290 b 225 567 168 449 188 521 b 361 635 263 611 308 635 b 535 526 444 635 501 599 b 564 369 554 485 564 433 b 538 201 564 301 556 246 b 363 82 506 122 447 82 b 194 196 282 82 226 119 z "},"r":{"ha":463,"x_min":0,"x_max":0,"o":"m 208 601 l 208 726 l 93 726 l 93 0 l 215 0 l 215 418 b 264 554 215 469 232 515 b 406 614 297 594 344 614 b 426 613 414 614 421 614 b 446 610 433 613 439 611 l 446 739 l 418 742 b 407 743 413 743 408 743 b 279 690 358 743 317 725 b 208 601 242 656 218 625 z "},"s":{"ha":694,"x_min":0,"x_max":0,"o":"m 163 228 l 44 228 b 117 46 49 156 72 94 b 347 -28 163 -3 239 -28 b 571 43 447 -28 521 -4 b 644 210 619 89 644 146 b 574 357 644 278 621 326 b 397 419 543 376 485 399 l 317 439 b 236 468 281 447 254 457 b 189 544 204 488 189 513 b 225 614 189 574 201 597 b 329 640 249 632 283 640 b 475 593 399 640 447 625 b 504 518 492 571 503 546 l 619 518 b 576 649 621 564 607 608 b 339 746 528 714 449 746 b 140 682 256 746 189 724 b 65 515 90 639 65 583 b 144 378 65 457 92 411 b 281 326 174 358 219 342 l 378 301 b 482 267 431 289 464 278 b 524 196 510 251 524 228 b 472 106 524 154 507 125 b 353 75 438 86 399 75 b 193 135 276 75 224 94 b 163 228 175 156 165 188 z "},"t":{"ha":386,"x_min":0,"x_max":0,"o":"m 238 726 l 238 929 l 114 929 l 114 726 l 15 726 l 15 626 l 114 626 l 114 146 b 144 32 114 99 124 61 b 260 -11 165 3 203 -11 b 310 -8 278 -11 294 -11 b 353 0 325 -7 339 -4 l 353 96 b 329 94 344 96 336 94 l 311 94 b 263 101 289 94 272 97 b 238 153 246 111 238 128 l 238 626 l 353 626 l 353 726 z "},"u":{"ha":772,"x_min":0,"x_max":0,"o":"m 211 244 l 211 726 l 86 726 l 86 232 b 117 85 86 171 97 121 b 329 -19 154 15 225 -19 b 499 38 396 -19 451 0 b 557 107 522 57 542 79 l 556 0 l 671 0 l 671 726 l 550 726 l 550 369 b 524 203 550 299 542 243 b 350 88 493 126 435 88 b 229 153 292 88 251 110 b 211 244 218 176 211 207 z "},"v":{"ha":694,"x_min":0,"x_max":0,"o":"m 546 726 l 343 135 l 149 726 l 7 726 l 275 0 l 406 0 l 679 726 z "},"w":{"ha":1003,"x_min":0,"x_max":0,"o":"m 428 726 l 286 154 l 146 726 l 13 726 l 222 0 l 349 0 l 492 563 l 639 0 l 767 0 l 978 726 l 856 726 l 707 157 l 564 726 z "},"x":{"ha":694,"x_min":0,"x_max":0,"o":"m 346 471 l 178 726 l 21 726 l 263 372 l 7 0 l 163 0 l 338 272 l 518 0 l 674 0 l 418 372 l 663 724 l 514 726 z "},"y":{"ha":694,"x_min":0,"x_max":0,"o":"m 678 726 l 543 726 l 347 135 l 153 726 l 14 726 l 283 -21 l 253 -96 b 228 -151 238 -129 231 -147 b 201 -179 221 -162 211 -172 b 151 -190 190 -186 174 -190 b 126 -187 144 -190 136 -189 b 81 -176 117 -186 101 -183 l 81 -289 b 115 -296 93 -292 106 -294 b 154 -297 124 -297 138 -297 b 303 -236 225 -297 274 -278 b 453 103 332 -196 382 -83 b 564 407 482 181 519 283 b 678 726 622 574 661 679 z "},"z":{"ha":694,"x_min":0,"x_max":0,"o":"m 67 617 l 465 617 l 35 96 l 35 0 l 643 0 l 643 110 l 203 110 l 631 626 l 631 726 l 67 726 z "},"{":{"ha":464,"x_min":0,"x_max":0,"o":"m 265 -3 l 265 99 b 240 253 265 164 257 215 b 64 367 210 321 150 358 b 240 476 151 375 210 411 b 265 633 257 513 265 565 l 265 708 b 286 840 265 765 272 808 b 433 936 313 897 361 931 l 433 1014 b 211 925 322 1004 247 975 b 156 724 174 875 156 808 l 156 613 b 132 493 156 561 147 521 b -29 406 104 444 51 414 l -29 328 b 132 236 50 318 104 289 b 156 119 147 208 156 169 l 156 -19 b 235 -212 156 -110 182 -174 b 433 -283 288 -251 353 -275 l 433 -204 b 318 -153 392 -200 353 -182 b 265 -3 283 -122 265 -74 z "},"|":{"ha":361,"x_min":0,"x_max":0,"o":"m 97 1011 l 97 0 l 214 0 l 214 1011 z "},"}":{"ha":464,"x_min":0,"x_max":0,"o":"m 222 476 b 399 367 253 411 311 375 b 222 253 313 358 253 321 b 197 99 206 215 197 164 l 197 -3 b 149 -146 197 -67 181 -114 b 29 -204 117 -178 76 -199 l 29 -283 b 228 -214 108 -275 175 -251 b 307 -19 281 -175 307 -111 l 307 119 b 329 236 307 168 314 207 b 492 328 358 289 413 319 l 492 406 b 329 494 411 414 357 443 b 307 613 314 522 307 561 l 307 724 b 265 906 307 804 293 865 b 29 1014 225 968 144 1004 l 29 936 b 176 844 101 931 151 899 b 197 708 190 814 197 768 l 197 633 b 222 476 197 564 206 513 z "},"~":{"ha":811,"x_min":0,"x_max":0,"o":"m 264 465 b 224 469 250 468 236 469 b 146 453 194 469 168 464 b 85 403 124 442 104 425 b 38 314 63 369 46 340 b 13 217 29 288 19 254 l 92 217 b 131 304 104 258 117 288 b 219 349 151 333 182 349 b 265 343 232 349 247 347 b 318 328 283 340 301 335 l 457 275 b 529 249 489 263 513 254 b 601 236 557 240 581 236 b 753 317 668 236 719 263 b 819 492 786 369 808 428 l 740 492 b 694 396 732 454 717 422 b 610 357 671 369 643 357 b 547 367 592 357 571 360 b 490 388 532 372 513 378 l 339 446 b 264 465 315 456 290 463 z "}," ":{"ha":386,"x_min":0,"x_max":0,"o":""},"¡":{"ha":463,"x_min":0,"x_max":0,"o":"m 296 585 l 296 726 l 157 726 l 157 585 z m 261 489 l 193 489 l 157 58 l 157 -271 l 296 -271 l 296 58 z "},"¢":{"ha":772,"x_min":0,"x_max":0,"o":"m 440 746 b 411 747 431 747 421 747 b 161 638 304 747 221 711 b 71 353 100 564 71 469 b 114 140 71 275 85 203 b 261 -3 143 76 192 29 l 215 -161 l 272 -161 l 315 -19 b 349 -28 326 -24 339 -25 b 389 -29 358 -29 372 -29 b 642 86 499 -29 583 10 b 713 254 675 131 697 186 l 594 254 b 543 140 581 203 563 165 b 400 76 510 97 463 76 b 369 79 386 76 376 78 b 346 85 361 81 354 82 l 496 617 b 565 558 526 606 550 586 b 593 479 579 532 588 506 l 707 479 b 653 632 701 539 683 590 b 526 728 622 674 581 706 l 564 865 l 508 865 l 472 740 b 440 746 463 743 451 744 z m 231 182 b 194 354 206 226 194 285 b 253 561 194 440 214 510 b 397 639 292 614 340 639 b 425 638 408 639 417 639 l 443 633 l 293 107 b 231 182 265 128 244 153 z "},"£":{"ha":772,"x_min":0,"x_max":0,"o":"m 740 44 l 685 136 b 635 106 663 121 646 110 b 576 93 617 97 597 93 b 471 117 560 93 525 101 b 342 142 418 133 375 142 b 253 128 313 142 283 136 b 161 89 222 118 192 106 b 289 221 218 133 261 176 b 329 354 315 265 329 310 b 326 392 329 368 328 379 b 317 440 324 403 321 419 l 508 440 l 508 511 l 286 511 b 221 643 253 575 232 618 b 206 717 211 668 206 693 b 254 838 206 764 222 804 b 399 888 288 871 335 888 b 544 835 463 888 513 869 b 592 678 576 799 592 747 l 717 678 b 638 913 715 779 689 857 b 408 994 585 967 510 994 b 161 911 301 994 219 967 b 75 722 104 856 75 792 b 81 665 75 701 76 683 b 92 619 83 649 86 633 b 122 553 96 606 107 583 b 144 511 135 526 143 513 l 38 511 l 38 440 l 188 440 b 206 390 197 419 203 403 b 215 339 213 371 215 353 b 168 199 215 289 200 242 b 44 81 138 156 96 115 l 113 -17 b 182 21 140 0 164 13 b 279 38 213 32 244 38 b 432 7 317 38 367 28 b 568 -25 494 -14 540 -25 b 672 0 606 -25 639 -17 b 740 44 693 10 715 25 z "},"€":{"ha":1033,"x_min":0,"x_max":0,"o":"m 226 451 l 93 451 l 65 356 l 236 356 b 356 79 254 238 293 144 b 601 -26 422 10 504 -26 b 869 103 714 -26 803 17 b 968 367 925 174 957 261 l 857 367 b 806 207 846 300 829 247 b 614 93 761 131 697 93 b 410 201 524 93 456 129 b 351 356 382 244 363 296 l 707 356 l 735 451 l 342 451 l 342 486 b 343 558 342 511 342 536 l 707 558 l 735 656 l 357 656 b 417 803 369 715 389 764 b 617 906 468 871 535 906 b 775 850 685 906 738 888 b 849 697 811 813 838 761 l 960 697 b 863 924 954 782 921 857 b 615 1024 804 990 722 1024 b 324 869 492 1024 394 972 b 238 656 282 810 253 738 l 93 656 l 65 558 l 226 558 b 225 508 226 542 225 525 b 226 451 225 489 226 469 z "},"¥":{"ha":772,"x_min":0,"x_max":0,"o":"m 626 953 l 378 494 l 131 953 l -21 953 l 157 651 l 35 651 l 35 558 l 210 558 l 297 411 l 67 411 l 67 319 l 314 319 l 314 0 l 442 0 l 442 319 l 694 319 l 694 411 l 458 411 l 546 558 l 717 558 l 717 651 l 599 651 l 778 953 z "},"Š":{"ha":926,"x_min":0,"x_max":0,"o":"m 274 1299 l 411 1101 l 540 1101 l 679 1299 l 568 1299 l 476 1168 l 385 1299 z m 194 321 l 67 321 b 171 65 65 214 100 129 b 461 -29 240 3 338 -29 b 742 42 568 -29 661 -6 b 861 279 821 89 861 168 b 767 482 861 368 829 435 b 610 544 729 508 678 529 l 471 576 b 289 631 376 599 317 617 b 229 738 249 653 229 689 b 281 854 229 782 246 821 b 453 904 315 888 374 904 b 663 826 550 904 621 879 b 706 704 685 799 699 757 l 832 704 b 724 946 832 814 796 896 b 457 1021 650 996 561 1021 b 193 935 343 1021 256 993 b 100 715 132 878 100 804 b 196 528 100 632 132 569 b 382 463 232 504 294 482 l 518 432 b 679 374 590 415 644 396 b 729 257 713 350 729 311 b 608 107 729 185 690 135 b 471 85 568 92 521 85 b 233 183 357 85 279 118 b 194 321 210 219 197 265 z "},"§":{"ha":772,"x_min":0,"x_max":0,"o":"m 200 929 b 132 764 154 885 132 829 b 150 681 132 735 138 707 b 196 622 161 660 176 640 b 90 529 153 596 117 564 b 51 411 64 494 51 456 b 104 276 51 361 68 317 b 207 193 125 253 158 225 l 328 113 b 394 67 349 97 371 82 b 465 17 435 39 458 24 b 496 -14 478 6 489 -4 b 514 -72 508 -32 514 -51 b 454 -172 514 -121 494 -154 b 369 -186 433 -182 406 -186 b 257 -131 317 -186 278 -168 b 232 -32 244 -110 236 -76 l 113 -32 b 154 -190 117 -100 131 -153 b 378 -293 197 -258 271 -293 b 569 -226 458 -293 522 -271 b 640 -68 617 -182 640 -129 b 621 17 640 -37 635 -10 b 565 89 608 43 589 67 b 660 172 610 121 642 149 b 708 313 693 211 708 260 b 481 582 708 407 633 497 b 303 689 396 631 336 665 b 265 731 286 700 274 715 b 253 782 257 746 253 763 b 286 864 253 815 264 843 b 383 893 308 883 340 893 b 494 838 436 893 474 875 b 518 743 507 817 514 785 l 636 743 b 601 889 635 803 624 851 b 376 997 560 961 486 997 b 200 929 303 997 244 975 z m 496 146 l 242 310 b 179 381 211 329 190 353 b 171 433 174 396 171 413 b 206 525 171 468 182 500 b 265 567 219 539 239 553 l 463 446 b 553 381 508 418 539 397 b 589 290 578 356 589 326 b 556 192 589 251 578 218 b 496 146 543 176 522 161 z "},"š":{"ha":694,"x_min":0,"x_max":0,"o":"m 150 1018 l 288 822 l 417 822 l 554 1018 l 443 1018 l 351 889 l 260 1018 z m 163 228 l 44 228 b 117 46 49 156 72 94 b 347 -28 163 -3 239 -28 b 571 43 447 -28 521 -4 b 644 210 619 89 644 146 b 574 357 644 278 621 326 b 397 419 543 376 485 399 l 317 439 b 236 468 281 447 254 457 b 189 544 204 488 189 513 b 225 614 189 574 201 597 b 329 640 249 632 283 640 b 475 593 399 640 447 625 b 504 518 492 571 503 546 l 619 518 b 576 649 621 564 607 608 b 339 746 528 714 449 746 b 140 682 256 746 189 724 b 65 515 90 639 65 583 b 144 378 65 457 92 411 b 281 326 174 358 219 342 l 378 301 b 482 267 431 289 464 278 b 524 196 510 251 524 228 b 472 106 524 154 507 125 b 353 75 438 86 399 75 b 193 135 276 75 224 94 b 163 228 175 156 165 188 z "},"©":{"ha":1024,"x_min":0,"x_max":0,"o":"m 864 146 b 1010 500 960 244 1010 363 b 864 851 1010 638 960 754 b 511 996 767 949 649 996 b 158 851 374 996 256 949 b 13 500 61 754 13 638 b 158 146 13 363 61 244 b 511 0 256 49 374 0 b 864 146 649 0 767 49 z m 208 803 b 511 929 292 888 393 929 b 813 803 629 929 729 888 b 936 500 896 719 936 618 b 813 194 936 381 896 279 b 511 68 729 111 629 68 b 208 194 392 68 292 111 b 85 500 126 279 85 381 b 208 803 85 618 126 719 z m 676 261 b 756 403 719 294 746 342 l 674 403 b 621 318 664 365 646 338 b 528 288 596 297 565 288 b 396 351 471 288 426 308 b 350 507 365 393 350 446 b 378 629 350 550 360 592 b 521 717 407 688 456 717 b 628 679 568 717 603 704 b 669 592 651 654 665 625 l 753 592 b 642 765 746 672 710 731 b 511 794 604 785 560 794 b 325 711 435 794 372 767 b 253 503 276 656 253 586 b 332 290 253 414 279 344 b 524 210 385 236 449 210 b 676 261 582 210 633 228 z "},"ª":{"ha":514,"x_min":0,"x_max":0,"o":"m 297 842 l 189 828 b 100 800 151 822 122 813 b 40 693 60 776 40 740 b 78 601 40 658 53 628 b 190 561 103 575 140 561 b 276 576 217 561 244 565 b 357 631 307 585 335 604 b 378 581 358 610 367 593 b 431 561 389 568 406 561 b 458 563 440 561 450 561 b 488 569 467 564 476 567 l 488 640 l 464 639 b 439 647 451 639 443 642 b 433 669 436 653 433 661 l 433 883 b 407 975 433 922 425 953 b 260 1024 379 1007 331 1024 b 113 986 190 1024 140 1011 b 64 881 83 961 67 926 l 150 881 b 175 932 153 901 161 919 b 246 951 190 946 213 951 b 317 935 279 951 301 946 b 338 882 331 924 338 906 b 325 853 338 867 333 857 b 297 842 318 847 308 844 z m 336 792 l 336 740 b 301 660 336 703 324 676 b 211 635 279 642 249 635 b 160 650 189 635 172 639 b 143 694 149 661 143 675 b 228 768 143 731 171 756 b 336 792 279 775 315 782 z "},"«":{"ha":772,"x_min":0,"x_max":0,"o":"m 350 492 l 350 614 l 132 443 l 132 315 l 350 144 l 350 267 l 204 379 z m 635 492 l 635 614 l 415 443 l 415 315 l 635 144 l 635 267 l 489 379 z "},"¬":{"ha":811,"x_min":0,"x_max":0,"o":"m 656 150 l 769 150 l 769 557 l 63 557 l 63 443 l 656 443 z "},"­":{"ha":463,"x_min":0,"x_max":0,"o":"m 399 324 l 399 450 l 58 450 l 58 324 z "},"®":{"ha":1024,"x_min":0,"x_max":0,"o":"m 864 146 b 1010 500 960 244 1010 363 b 864 851 1010 638 960 754 b 511 996 767 949 649 996 b 160 851 374 996 257 949 b 14 500 63 754 14 636 b 158 146 14 361 63 243 b 511 0 256 49 374 0 b 864 146 649 0 767 49 z m 208 803 b 511 929 292 888 393 929 b 814 803 629 929 731 888 b 939 500 897 719 939 618 b 814 194 939 381 897 279 b 511 68 731 111 629 68 b 207 194 392 68 290 111 b 83 500 125 279 83 381 b 208 803 83 618 125 719 z m 501 775 l 310 775 l 310 228 l 406 228 l 406 443 l 482 443 b 589 426 533 443 569 438 b 640 300 624 406 640 364 l 640 257 l 643 239 b 644 233 643 238 643 235 l 646 228 l 736 228 l 732 235 b 728 263 731 239 728 249 b 726 304 726 278 726 290 l 726 344 b 696 429 726 372 717 400 b 603 482 676 458 644 475 b 682 508 636 488 663 496 b 735 617 718 532 735 568 b 650 754 735 685 707 731 b 501 775 618 768 569 775 z m 606 689 b 640 608 629 675 640 649 b 585 522 640 567 622 538 b 493 511 564 515 533 511 l 406 511 l 406 708 l 489 708 b 606 689 542 708 581 701 z "},"¯":{"ha":463,"x_min":0,"x_max":0,"o":"m 449 869 l 449 950 l 14 950 l 14 869 z "},"°":{"ha":556,"x_min":0,"x_max":0,"o":"m 426 911 b 281 971 386 951 339 971 b 136 911 225 971 176 951 b 75 764 96 871 75 822 b 133 622 75 710 94 663 b 281 561 172 581 221 561 b 424 619 335 561 382 581 b 485 767 464 658 485 707 b 426 911 485 824 465 871 z m 188 674 b 149 765 163 699 149 729 b 189 858 149 801 163 833 b 281 897 214 883 244 897 b 374 858 317 897 347 883 b 411 767 399 832 411 801 b 372 674 411 729 399 699 b 281 635 346 647 315 635 b 188 674 244 635 214 647 z "},"±":{"ha":763,"x_min":0,"x_max":0,"o":"m 358 485 l 63 485 l 63 378 l 358 378 l 358 163 l 474 163 l 474 378 l 769 378 l 769 485 l 474 485 l 474 708 l 358 708 z m 63 0 l 769 0 l 769 110 l 63 110 z "},"²":{"ha":463,"x_min":0,"x_max":0,"o":"m 56 546 b 7 388 24 506 7 453 l 442 388 l 442 482 l 132 482 b 268 586 144 517 190 551 b 400 671 328 615 372 643 b 442 793 428 699 442 739 b 385 926 442 851 422 896 b 232 971 346 956 296 971 b 82 918 171 971 121 954 b 24 761 43 882 24 829 l 131 761 b 153 846 131 794 139 822 b 229 881 167 868 193 881 b 310 853 265 881 292 871 b 335 781 326 835 335 811 b 304 717 335 754 324 732 b 174 642 285 700 240 675 b 56 546 126 618 86 586 z "},"³":{"ha":463,"x_min":0,"x_max":0,"o":"m 104 564 l 4 564 b 69 411 7 492 28 440 b 218 368 111 382 160 368 b 376 414 279 368 332 383 b 443 547 421 446 443 490 b 419 643 443 586 435 618 b 339 694 404 668 376 685 b 400 736 365 701 386 715 b 421 813 414 756 421 782 b 367 925 421 857 403 894 b 224 971 331 956 283 971 b 75 919 161 971 113 954 b 19 776 38 885 19 838 l 117 776 b 147 863 118 815 128 844 b 224 888 168 879 193 888 b 296 864 257 888 281 879 b 318 807 311 847 318 828 b 268 735 318 771 301 747 b 175 726 250 729 218 725 l 175 644 b 271 635 214 646 246 642 b 340 549 317 621 340 592 b 313 478 340 521 331 497 b 218 450 293 460 261 450 b 124 488 172 450 142 463 b 104 564 114 501 108 526 z "},"Ž":{"ha":849,"x_min":0,"x_max":0,"o":"m 254 1271 l 392 1075 l 521 1075 l 660 1271 l 549 1271 l 457 1140 l 365 1271 z m 76 878 l 643 878 l 32 113 l 32 0 l 817 0 l 817 118 l 203 118 l 817 881 l 817 996 l 76 996 z "},"µ":{"ha":800,"x_min":0,"x_max":0,"o":"m 183 211 l 293 725 l 168 725 l -51 -286 l 74 -286 l 140 19 b 189 -7 150 8 167 0 b 254 -19 211 -15 232 -19 b 439 51 321 -19 383 4 b 503 122 471 79 492 103 l 474 0 l 592 0 l 747 725 l 624 725 l 536 328 b 447 160 522 263 493 207 b 281 86 403 111 347 86 b 192 121 236 86 207 99 b 178 174 182 135 178 151 b 179 192 178 179 179 186 b 183 211 181 197 181 204 z "},"¶":{"ha":746,"x_min":0,"x_max":0,"o":"m 538 918 l 538 -246 l 638 -246 l 638 918 l 722 918 l 722 996 l 332 996 b 42 854 197 996 100 949 b -7 675 8 801 -7 742 b 65 458 -7 596 17 524 b 282 357 114 392 185 358 l 282 -246 l 381 -246 l 381 918 z "},"·":{"ha":386,"x_min":0,"x_max":0,"o":"m 251 538 b 189 563 233 554 214 563 b 128 538 165 563 144 554 b 103 475 111 521 103 499 b 128 414 103 451 111 432 b 189 389 144 397 165 389 b 251 414 213 389 233 397 b 276 475 268 432 276 451 b 251 538 276 499 268 521 z "},"ž":{"ha":694,"x_min":0,"x_max":0,"o":"m 157 1018 l 294 822 l 424 822 l 561 1018 l 450 1018 l 358 889 l 267 1018 z m 67 617 l 465 617 l 35 96 l 35 0 l 643 0 l 643 110 l 203 110 l 631 626 l 631 726 l 67 726 z "},"¹":{"ha":463,"x_min":0,"x_max":0,"o":"m 208 782 l 208 388 l 318 388 l 318 967 l 229 967 b 172 876 219 922 200 892 b 58 856 153 868 115 860 l 58 782 z "},"º":{"ha":507,"x_min":0,"x_max":0,"o":"m 415 965 b 260 1024 376 1004 324 1024 b 71 928 174 1024 111 992 b 33 789 46 886 33 839 b 71 651 33 738 46 692 b 253 561 108 592 169 561 b 419 628 325 561 381 583 b 475 794 457 671 475 726 b 415 965 475 869 456 926 z m 165 904 b 258 944 188 931 218 944 b 342 907 290 944 318 932 b 376 794 364 882 376 844 b 357 704 376 760 369 729 b 249 639 336 661 300 639 b 160 682 208 639 178 654 b 132 785 142 711 132 746 b 165 904 132 838 143 876 z "},"»":{"ha":772,"x_min":0,"x_max":0,"o":"m 132 492 l 275 379 l 132 267 l 132 144 l 350 315 l 350 443 l 132 614 z m 415 492 l 558 379 l 415 267 l 415 144 l 635 315 l 635 443 l 415 614 z "},"Œ":{"ha":1389,"x_min":0,"x_max":0,"o":"m 626 986 b 475 1018 583 1008 532 1018 b 135 831 322 1018 208 956 b 50 489 78 736 50 622 b 172 106 50 326 90 200 b 446 -24 254 19 346 -24 b 626 14 521 -24 581 -11 b 725 104 671 39 704 68 l 725 0 l 1340 0 l 1340 118 l 856 118 l 856 457 l 1314 457 l 1314 572 l 856 572 l 856 878 l 1338 878 l 1338 996 l 726 996 l 726 896 b 626 986 701 933 668 964 z m 644 143 b 486 86 596 106 543 86 b 258 199 382 86 306 124 b 186 483 210 274 186 368 b 233 744 186 586 201 672 b 481 908 283 853 365 908 b 650 847 547 908 604 888 b 718 683 694 808 718 753 l 718 332 b 644 143 718 243 694 181 z "},"œ":{"ha":1311,"x_min":0,"x_max":0,"o":"m 139 635 b 49 354 78 560 49 467 b 144 69 49 229 81 133 b 382 -28 210 4 289 -28 b 529 4 433 -28 483 -17 b 647 118 576 25 615 64 b 775 3 685 63 728 24 b 925 -29 821 -18 871 -29 b 1129 39 1003 -29 1071 -6 b 1244 228 1186 85 1225 147 l 1122 228 b 1072 138 1108 189 1092 160 b 926 75 1036 96 988 75 b 744 179 839 75 779 110 b 714 324 726 217 715 264 l 1251 324 b 1243 476 1251 393 1247 444 b 1188 614 1233 528 1215 575 b 1078 711 1157 657 1121 689 b 931 744 1033 733 985 744 b 774 707 872 744 821 732 b 661 603 726 682 690 647 b 582 690 636 640 610 669 b 392 746 532 726 468 746 b 139 635 283 746 199 708 z m 533 142 b 390 76 490 99 442 76 b 235 150 326 76 275 101 b 174 347 194 199 174 264 b 235 568 174 446 194 519 b 388 639 276 615 328 639 b 540 574 450 639 500 617 b 600 372 579 528 600 461 b 533 142 600 261 578 183 z m 1125 418 l 715 418 b 808 600 724 501 754 563 b 921 636 843 624 881 636 b 1092 546 1001 636 1058 606 b 1125 418 1110 513 1122 469 z "},"Ÿ":{"ha":926,"x_min":0,"x_max":0,"o":"m 433 1092 l 433 1232 l 307 1232 l 307 1092 z m 658 1092 l 658 1232 l 531 1232 l 531 1092 z m 472 518 l 186 996 l 29 996 l 406 401 l 406 0 l 540 0 l 540 401 l 917 996 l 758 996 z "},"¿":{"ha":849,"x_min":0,"x_max":0,"o":"m 504 588 l 504 729 l 369 729 l 369 588 z m 289 254 l 257 222 b 158 103 213 176 179 138 b 126 -17 138 68 126 29 b 215 -210 126 -99 156 -164 b 429 -281 274 -257 346 -281 b 643 -201 513 -281 583 -254 b 729 44 703 -149 732 -67 l 613 44 b 581 -99 607 -22 597 -69 b 435 -174 551 -149 504 -174 b 299 -126 374 -174 328 -158 b 256 -10 269 -94 256 -56 b 267 51 256 10 260 31 b 315 119 275 72 290 96 l 368 176 b 481 324 429 242 467 290 b 501 475 494 356 501 407 l 381 475 b 365 357 381 424 376 385 b 289 254 356 329 331 294 z "},"À":{"ha":926,"x_min":0,"x_max":0,"o":"m 272 1271 l 454 1075 l 547 1075 l 424 1271 z m 910 0 l 549 996 l 396 996 l 21 0 l 158 0 l 267 299 l 661 299 l 761 0 z m 306 408 l 465 849 l 617 408 z "},"Á":{"ha":926,"x_min":0,"x_max":0,"o":"m 336 1075 l 431 1075 l 611 1271 l 461 1271 z m 910 0 l 549 996 l 396 996 l 21 0 l 158 0 l 267 299 l 661 299 l 761 0 z m 306 408 l 465 849 l 617 408 z "},"Â":{"ha":926,"x_min":0,"x_max":0,"o":"m 567 1075 l 678 1075 l 540 1271 l 411 1271 l 274 1075 l 383 1075 l 475 1206 z m 910 0 l 549 996 l 396 996 l 21 0 l 158 0 l 267 299 l 661 299 l 761 0 z m 306 408 l 465 849 l 617 408 z "},"Ã":{"ha":926,"x_min":0,"x_max":0,"o":"m 510 1204 b 435 1231 478 1217 453 1226 b 383 1238 415 1236 399 1238 b 268 1175 332 1238 294 1217 b 239 1088 256 1153 246 1124 l 306 1088 b 326 1135 310 1108 317 1125 b 365 1151 336 1146 350 1151 b 406 1146 378 1151 392 1149 b 457 1128 418 1142 435 1135 l 492 1115 b 533 1103 504 1110 518 1106 b 571 1097 549 1100 561 1097 b 660 1129 603 1097 633 1108 b 714 1249 686 1151 704 1190 l 643 1249 b 631 1210 640 1232 636 1218 b 576 1186 619 1194 601 1186 b 544 1190 565 1186 554 1188 b 510 1204 535 1194 522 1199 z m 910 0 l 549 996 l 396 996 l 21 0 l 158 0 l 267 299 l 661 299 l 761 0 z m 306 408 l 465 849 l 617 408 z "},"Ä":{"ha":926,"x_min":0,"x_max":0,"o":"m 417 1092 l 417 1232 l 289 1232 l 289 1092 z m 640 1092 l 640 1232 l 514 1232 l 514 1092 z m 910 0 l 549 996 l 396 996 l 21 0 l 158 0 l 267 299 l 661 299 l 761 0 z m 306 408 l 465 849 l 617 408 z "},"Å":{"ha":926,"x_min":0,"x_max":0,"o":"m 475 1319 b 376 1278 436 1319 404 1306 b 335 1178 347 1250 335 1217 b 376 1078 335 1139 347 1106 b 475 1036 404 1050 436 1036 b 576 1078 514 1036 549 1050 b 617 1178 604 1106 617 1139 b 576 1278 617 1217 604 1250 b 475 1319 549 1306 514 1319 z m 475 1093 b 415 1118 453 1093 433 1100 b 390 1178 399 1135 390 1154 b 415 1239 390 1201 399 1221 b 475 1264 433 1256 453 1264 b 536 1239 499 1264 519 1256 b 561 1178 553 1221 561 1201 b 536 1118 561 1154 553 1135 b 475 1093 519 1100 499 1093 z m 910 0 l 549 996 l 396 996 l 21 0 l 158 0 l 267 299 l 661 299 l 761 0 z m 306 408 l 465 849 l 617 408 z "},"Æ":{"ha":1389,"x_min":0,"x_max":0,"o":"m 1308 878 l 1308 996 l 415 996 l 11 0 l 157 0 l 268 296 l 635 296 l 635 0 l 1321 0 l 1321 118 l 768 118 l 768 460 l 1264 460 l 1264 572 l 768 572 l 768 878 z m 635 410 l 315 410 l 500 881 l 635 881 z "},"Ç":{"ha":1003,"x_min":0,"x_max":0,"o":"m 819 924 b 525 1024 750 990 651 1024 b 178 869 378 1024 261 972 b 61 508 100 776 61 656 b 219 68 61 315 114 168 b 457 -26 299 6 376 -26 l 388 -121 l 411 -149 b 439 -140 422 -144 432 -142 b 465 -137 447 -137 456 -137 b 514 -153 486 -137 501 -143 b 532 -190 525 -164 532 -176 b 496 -242 532 -215 521 -232 b 453 -250 485 -247 469 -250 b 403 -242 438 -250 421 -247 l 363 -229 l 339 -283 b 397 -303 364 -292 383 -299 b 472 -312 424 -310 449 -312 b 597 -275 528 -312 569 -300 b 638 -186 624 -250 638 -221 b 607 -108 638 -153 628 -126 b 528 -81 586 -90 560 -81 b 478 -87 507 -81 490 -83 l 522 -26 b 828 103 647 -26 749 17 b 944 367 894 174 933 261 l 813 367 b 751 207 800 300 779 247 b 524 93 699 131 624 93 b 281 203 417 93 335 129 b 199 486 226 275 199 369 b 289 803 199 628 229 733 b 526 906 350 871 429 906 b 715 850 607 906 669 888 b 804 697 758 813 789 761 l 935 697 b 819 924 928 782 889 857 z "},"È":{"ha":926,"x_min":0,"x_max":0,"o":"m 293 1271 l 475 1075 l 568 1075 l 444 1271 z m 844 874 l 844 996 l 118 996 l 118 0 l 856 0 l 856 118 l 250 118 l 250 457 l 800 457 l 800 572 l 250 572 l 250 874 z "},"É":{"ha":926,"x_min":0,"x_max":0,"o":"m 365 1075 l 458 1075 l 639 1271 l 489 1271 z m 844 874 l 844 996 l 118 996 l 118 0 l 856 0 l 856 118 l 250 118 l 250 457 l 800 457 l 800 572 l 250 572 l 250 874 z "},"Ê":{"ha":926,"x_min":0,"x_max":0,"o":"m 589 1075 l 700 1075 l 561 1271 l 433 1271 l 294 1075 l 406 1075 l 497 1206 z m 844 874 l 844 996 l 118 996 l 118 0 l 856 0 l 856 118 l 250 118 l 250 457 l 800 457 l 800 572 l 250 572 l 250 874 z "},"Ë":{"ha":926,"x_min":0,"x_max":0,"o":"m 447 1092 l 447 1232 l 319 1232 l 319 1092 z m 671 1092 l 671 1232 l 544 1232 l 544 1092 z m 844 874 l 844 996 l 118 996 l 118 0 l 856 0 l 856 118 l 250 118 l 250 457 l 800 457 l 800 572 l 250 572 l 250 874 z "},"Ì":{"ha":386,"x_min":0,"x_max":0,"o":"m 1 1271 l 183 1074 l 276 1074 l 153 1271 z m 261 0 l 261 996 l 125 996 l 125 0 z "},"Í":{"ha":386,"x_min":0,"x_max":0,"o":"m 72 1072 l 167 1072 l 347 1268 l 197 1268 z m 272 0 l 272 996 l 136 996 l 136 0 z "},"Î":{"ha":386,"x_min":0,"x_max":0,"o":"m 289 1078 l 400 1078 l 261 1274 l 133 1274 l -4 1078 l 106 1078 l 197 1208 z m 272 0 l 272 996 l 136 996 l 136 0 z "},"Ï":{"ha":386,"x_min":0,"x_max":0,"o":"m 149 1089 l 149 1229 l 22 1229 l 22 1089 z m 372 1089 l 372 1229 l 246 1229 l 246 1089 z m 272 0 l 272 996 l 136 996 l 136 0 z "},"Ð":{"ha":1003,"x_min":0,"x_max":0,"o":"m 113 996 l 113 586 l 22 586 l 22 465 l 113 465 l 113 0 l 514 0 b 872 219 682 0 801 74 b 935 515 914 306 935 404 b 853 826 935 639 908 743 b 493 996 778 939 658 996 z m 532 465 l 532 586 l 247 586 l 247 881 l 488 881 b 724 778 596 881 675 846 b 797 490 774 710 797 614 b 788 386 797 458 794 424 b 729 232 776 322 756 271 b 601 129 696 181 653 147 b 489 115 572 119 533 115 l 247 115 l 247 465 z "},"Ñ":{"ha":1003,"x_min":0,"x_max":0,"o":"m 544 1204 b 468 1231 513 1217 488 1226 b 417 1238 450 1236 433 1238 b 303 1175 367 1238 328 1217 b 274 1088 289 1153 279 1124 l 340 1088 b 361 1135 343 1108 350 1125 b 400 1151 371 1146 383 1151 b 439 1146 413 1151 425 1149 l 490 1128 l 526 1115 b 567 1103 538 1110 551 1106 b 606 1097 582 1100 594 1097 b 694 1129 636 1097 667 1108 b 749 1249 721 1151 739 1190 l 676 1249 b 665 1210 675 1232 671 1218 b 610 1186 654 1194 636 1186 b 579 1190 600 1186 589 1188 b 544 1204 568 1194 557 1199 z m 768 189 l 265 996 l 106 996 l 106 0 l 235 0 l 235 807 l 746 0 l 897 0 l 897 996 l 768 996 z "},"Ò":{"ha":1081,"x_min":0,"x_max":0,"o":"m 353 1299 l 535 1101 l 628 1101 l 504 1299 z m 926 854 b 536 1024 842 967 711 1024 b 154 839 368 1024 240 961 b 54 493 88 743 54 628 b 172 122 54 344 93 221 b 533 -29 260 22 379 -29 b 913 144 697 -29 824 29 b 1025 515 988 243 1025 367 b 926 854 1025 653 992 765 z m 808 219 b 550 92 754 135 668 92 b 278 206 424 92 333 129 b 194 485 222 281 194 374 b 292 797 194 622 226 726 b 544 903 357 868 440 903 b 796 796 650 903 733 868 b 888 514 857 725 888 631 b 808 219 888 403 861 304 z "},"Ó":{"ha":1081,"x_min":0,"x_max":0,"o":"m 411 1101 l 504 1101 l 686 1299 l 535 1299 z m 926 854 b 536 1024 842 967 711 1024 b 154 839 368 1024 240 961 b 54 493 88 743 54 628 b 172 122 54 344 93 221 b 533 -29 260 22 379 -29 b 913 144 697 -29 824 29 b 1025 515 988 243 1025 367 b 926 854 1025 653 992 765 z m 808 219 b 550 92 754 135 668 92 b 278 206 424 92 333 129 b 194 485 222 281 194 374 b 292 797 194 622 226 726 b 544 903 357 868 440 903 b 796 796 650 903 733 868 b 888 514 857 725 888 631 b 808 219 888 403 861 304 z "},"Ô":{"ha":1081,"x_min":0,"x_max":0,"o":"m 642 1101 l 753 1101 l 614 1299 l 486 1299 l 347 1101 l 458 1101 l 550 1232 z m 926 854 b 536 1024 842 967 711 1024 b 154 839 368 1024 240 961 b 54 493 88 743 54 628 b 172 122 54 344 93 221 b 533 -29 260 22 379 -29 b 913 144 697 -29 824 29 b 1025 515 988 243 1025 367 b 926 854 1025 653 992 765 z m 808 219 b 550 92 754 135 668 92 b 278 206 424 92 333 129 b 194 485 222 281 194 374 b 292 797 194 622 226 726 b 544 903 357 868 440 903 b 796 796 650 903 733 868 b 888 514 857 725 888 631 b 808 219 888 403 861 304 z "},"Õ":{"ha":1081,"x_min":0,"x_max":0,"o":"m 585 1231 b 510 1258 553 1244 528 1253 b 458 1265 490 1263 474 1265 b 343 1203 407 1265 369 1244 b 314 1115 329 1181 319 1151 l 381 1115 b 401 1163 383 1136 392 1153 b 440 1178 411 1172 425 1178 b 479 1172 453 1178 465 1176 l 531 1156 l 567 1142 b 607 1129 579 1138 592 1133 b 646 1125 624 1126 636 1125 b 735 1157 678 1125 707 1135 b 789 1275 761 1179 779 1218 l 718 1275 b 706 1238 715 1258 711 1246 b 651 1214 694 1221 676 1214 b 619 1218 640 1214 629 1215 b 585 1231 608 1221 597 1225 z m 926 854 b 536 1024 842 967 711 1024 b 154 839 368 1024 240 961 b 54 493 88 743 54 628 b 172 122 54 344 93 221 b 533 -29 260 22 379 -29 b 913 144 697 -29 824 29 b 1025 515 988 243 1025 367 b 926 854 1025 653 992 765 z m 808 219 b 550 92 754 135 668 92 b 278 206 424 92 333 129 b 194 485 222 281 194 374 b 292 797 194 622 226 726 b 544 903 357 868 440 903 b 796 796 650 903 733 868 b 888 514 857 725 888 631 b 808 219 888 403 861 304 z "},"Ö":{"ha":1081,"x_min":0,"x_max":0,"o":"m 507 1118 l 507 1260 l 379 1260 l 379 1118 z m 731 1118 l 731 1260 l 604 1260 l 604 1118 z m 926 854 b 536 1024 842 967 711 1024 b 154 839 368 1024 240 961 b 54 493 88 743 54 628 b 172 122 54 344 93 221 b 533 -29 260 22 379 -29 b 913 144 697 -29 824 29 b 1025 515 988 243 1025 367 b 926 854 1025 653 992 765 z m 808 219 b 550 92 754 135 668 92 b 278 206 424 92 333 129 b 194 485 222 281 194 374 b 292 797 194 622 226 726 b 544 903 357 868 440 903 b 796 796 650 903 733 868 b 888 514 857 725 888 631 b 808 219 888 403 861 304 z "},"×":{"ha":811,"x_min":0,"x_max":0,"o":"m 415 435 l 158 693 l 79 613 l 336 354 l 79 97 l 158 15 l 415 272 l 674 15 l 756 97 l 497 354 l 756 613 l 674 693 z "},"Ø":{"ha":1081,"x_min":0,"x_max":0,"o":"m 164 140 l 44 18 l 89 -25 l 204 93 b 318 14 242 58 279 32 b 539 -29 381 -15 454 -29 b 886 118 681 -29 796 19 b 1025 515 979 218 1025 350 b 985 744 1025 601 1013 678 b 914 865 964 793 940 833 l 1021 982 l 978 1024 l 872 911 b 733 994 836 946 789 974 b 529 1024 678 1014 610 1024 b 160 846 369 1024 246 964 b 54 493 89 749 54 631 b 82 303 54 426 63 364 b 164 140 99 243 126 188 z m 699 868 b 782 810 724 856 753 836 l 257 236 b 207 354 233 272 217 311 b 194 485 199 399 194 442 b 290 797 194 621 226 725 b 539 903 354 868 438 903 b 699 868 599 903 651 892 z m 399 117 b 297 189 361 133 328 157 l 819 763 b 861 675 838 731 851 701 b 888 514 878 626 888 572 b 821 243 888 408 865 318 b 550 92 763 143 672 92 b 399 117 486 92 435 100 z "},"Ù":{"ha":1003,"x_min":0,"x_max":0,"o":"m 321 1271 l 503 1075 l 596 1075 l 472 1271 z m 253 381 l 253 996 l 115 996 l 115 436 b 165 154 115 314 132 219 b 507 -26 225 33 339 -26 b 850 154 675 -26 790 33 b 900 436 883 219 900 314 l 900 996 l 763 996 l 763 381 b 729 208 763 308 753 251 b 496 92 689 131 611 92 b 293 200 401 92 333 128 b 253 381 265 249 253 308 z "},"Ú":{"ha":1003,"x_min":0,"x_max":0,"o":"m 386 1075 l 479 1075 l 661 1271 l 510 1271 z m 253 381 l 253 996 l 115 996 l 115 436 b 165 154 115 314 132 219 b 507 -26 225 33 339 -26 b 850 154 675 -26 790 33 b 900 436 883 219 900 314 l 900 996 l 763 996 l 763 381 b 729 208 763 308 753 251 b 496 92 689 131 611 92 b 293 200 401 92 333 128 b 253 381 265 249 253 308 z "},"Û":{"ha":1003,"x_min":0,"x_max":0,"o":"m 610 1075 l 721 1075 l 582 1271 l 454 1271 l 317 1075 l 426 1075 l 518 1206 z m 253 381 l 253 996 l 115 996 l 115 436 b 165 154 115 314 132 219 b 507 -26 225 33 339 -26 b 850 154 675 -26 790 33 b 900 436 883 219 900 314 l 900 996 l 763 996 l 763 381 b 729 208 763 308 753 251 b 496 92 689 131 611 92 b 293 200 401 92 333 128 b 253 381 265 249 253 308 z "},"Ü":{"ha":1003,"x_min":0,"x_max":0,"o":"m 475 1092 l 475 1232 l 347 1232 l 347 1092 z m 699 1092 l 699 1232 l 572 1232 l 572 1092 z m 253 381 l 253 996 l 115 996 l 115 436 b 165 154 115 314 132 219 b 507 -26 225 33 339 -26 b 850 154 675 -26 790 33 b 900 436 883 219 900 314 l 900 996 l 763 996 l 763 381 b 729 208 763 308 753 251 b 496 92 689 131 611 92 b 293 200 401 92 333 128 b 253 381 265 249 253 308 z "},"Ý":{"ha":926,"x_min":0,"x_max":0,"o":"m 346 1075 l 439 1075 l 619 1271 l 469 1271 z m 472 518 l 186 996 l 29 996 l 406 401 l 406 0 l 540 0 l 540 401 l 917 996 l 758 996 z "},"Þ":{"ha":926,"x_min":0,"x_max":0,"o":"m 218 836 l 218 994 l 86 994 l 86 0 l 218 0 l 218 264 l 522 264 b 751 349 621 264 697 292 b 832 549 806 406 832 472 b 757 757 832 635 807 704 b 528 836 707 810 631 836 z m 613 406 b 483 382 583 390 540 383 l 218 382 l 218 719 l 526 719 b 669 643 594 719 642 694 b 693 556 685 617 693 588 b 613 406 693 482 665 432 z "},"ß":{"ha":849,"x_min":0,"x_max":0,"o":"m 135 694 l 135 0 l 257 0 l 257 694 b 278 829 257 756 264 800 b 418 904 301 879 349 904 b 542 861 472 904 514 890 b 582 747 568 832 582 793 b 544 643 582 711 569 676 b 408 593 519 610 474 593 l 394 593 l 376 596 l 376 488 b 407 490 386 489 397 490 b 433 492 417 492 426 492 b 546 463 476 492 514 482 b 624 299 597 429 624 375 b 564 135 624 219 604 165 b 431 88 524 104 479 88 b 400 89 418 88 408 89 l 369 93 l 369 -12 b 410 -18 385 -15 399 -18 b 458 -19 419 -19 436 -19 b 674 76 550 -19 624 13 b 750 306 725 140 750 217 b 693 489 750 385 731 446 b 589 556 665 524 631 546 b 671 633 622 574 650 599 b 701 763 692 667 701 711 b 626 943 701 838 676 897 b 411 1011 576 989 504 1011 b 239 964 343 1011 285 996 b 135 694 169 914 135 824 z "},"à":{"ha":772,"x_min":0,"x_max":0,"o":"m 192 1018 l 374 822 l 465 822 l 343 1018 z m 479 440 l 285 415 b 118 347 215 407 161 385 b 56 190 76 310 56 258 b 119 38 56 129 78 78 b 285 -25 163 -4 218 -25 b 439 11 342 -25 392 -12 b 546 96 486 35 521 64 b 567 29 550 67 557 44 b 658 -15 586 0 617 -15 b 699 -14 675 -15 689 -15 b 743 -3 710 -12 724 -8 l 743 86 b 721 85 735 86 728 85 b 703 83 714 83 708 83 b 669 94 686 83 675 86 b 663 125 665 101 663 113 l 663 543 b 582 694 663 611 636 663 b 375 744 529 728 460 744 b 181 692 300 744 236 726 b 93 504 124 657 94 594 l 207 504 b 236 589 211 542 221 571 b 372 640 263 624 308 640 b 499 613 426 640 469 632 b 543 522 528 594 543 564 b 535 475 543 501 540 486 b 479 440 525 456 507 443 z m 222 110 b 183 193 196 131 183 158 b 239 294 183 240 203 274 b 339 322 261 308 294 317 l 413 332 b 482 346 435 335 458 340 b 540 369 506 351 525 360 l 540 271 b 438 110 540 196 506 143 b 314 79 399 89 356 79 b 222 110 278 79 247 89 z "},"á":{"ha":772,"x_min":0,"x_max":0,"o":"m 256 822 l 349 822 l 531 1018 l 379 1018 z m 479 440 l 285 415 b 118 347 215 407 161 385 b 56 190 76 310 56 258 b 119 38 56 129 78 78 b 285 -25 163 -4 218 -25 b 439 11 342 -25 392 -12 b 546 96 486 35 521 64 b 567 29 550 67 557 44 b 658 -15 586 0 617 -15 b 699 -14 675 -15 689 -15 b 743 -3 710 -12 724 -8 l 743 86 b 721 85 735 86 728 85 b 703 83 714 83 708 83 b 669 94 686 83 675 86 b 663 125 665 101 663 113 l 663 543 b 582 694 663 611 636 663 b 375 744 529 728 460 744 b 181 692 300 744 236 726 b 93 504 124 657 94 594 l 207 504 b 236 589 211 542 221 571 b 372 640 263 624 308 640 b 499 613 426 640 469 632 b 543 522 528 594 543 564 b 535 475 543 501 540 486 b 479 440 525 456 507 443 z m 222 110 b 183 193 196 131 183 158 b 239 294 183 240 203 274 b 339 322 261 308 294 317 l 413 332 b 482 346 435 335 458 340 b 540 369 506 351 525 360 l 540 271 b 438 110 540 196 506 143 b 314 79 399 89 356 79 b 222 110 278 79 247 89 z "},"â":{"ha":772,"x_min":0,"x_max":0,"o":"m 486 822 l 597 822 l 460 1018 l 331 1018 l 193 822 l 303 822 l 394 953 z m 479 440 l 285 415 b 118 347 215 407 161 385 b 56 190 76 310 56 258 b 119 38 56 129 78 78 b 285 -25 163 -4 218 -25 b 439 11 342 -25 392 -12 b 546 96 486 35 521 64 b 567 29 550 67 557 44 b 658 -15 586 0 617 -15 b 699 -14 675 -15 689 -15 b 743 -3 710 -12 724 -8 l 743 86 b 721 85 735 86 728 85 b 703 83 714 83 708 83 b 669 94 686 83 675 86 b 663 125 665 101 663 113 l 663 543 b 582 694 663 611 636 663 b 375 744 529 728 460 744 b 181 692 300 744 236 726 b 93 504 124 657 94 594 l 207 504 b 236 589 211 542 221 571 b 372 640 263 624 308 640 b 499 613 426 640 469 632 b 543 522 528 594 543 564 b 535 475 543 501 540 486 b 479 440 525 456 507 443 z m 222 110 b 183 193 196 131 183 158 b 239 294 183 240 203 274 b 339 322 261 308 294 317 l 413 332 b 482 346 435 335 458 340 b 540 369 506 351 525 360 l 540 271 b 438 110 540 196 506 143 b 314 79 399 89 356 79 b 222 110 278 79 247 89 z "},"ã":{"ha":772,"x_min":0,"x_max":0,"o":"m 429 951 b 354 979 397 965 372 974 b 303 985 335 983 318 985 b 188 924 251 985 214 964 b 158 836 174 900 165 871 l 225 836 b 246 883 229 857 236 872 b 285 899 257 893 269 899 b 324 893 297 899 311 897 b 376 875 338 889 354 883 l 411 863 b 453 850 424 858 436 854 b 490 844 468 847 481 844 b 579 878 522 844 551 856 b 633 996 606 899 624 939 l 563 996 b 550 957 560 979 556 967 b 496 933 539 942 521 933 b 464 939 485 933 474 935 b 429 951 454 942 442 946 z m 479 440 l 285 415 b 118 347 215 407 161 385 b 56 190 76 310 56 258 b 119 38 56 129 78 78 b 285 -25 163 -4 218 -25 b 439 11 342 -25 392 -12 b 546 96 486 35 521 64 b 567 29 550 67 557 44 b 658 -15 586 0 617 -15 b 699 -14 675 -15 689 -15 b 743 -3 710 -12 724 -8 l 743 86 b 721 85 735 86 728 85 b 703 83 714 83 708 83 b 669 94 686 83 675 86 b 663 125 665 101 663 113 l 663 543 b 582 694 663 611 636 663 b 375 744 529 728 460 744 b 181 692 300 744 236 726 b 93 504 124 657 94 594 l 207 504 b 236 589 211 542 221 571 b 372 640 263 624 308 640 b 499 613 426 640 469 632 b 543 522 528 594 543 564 b 535 475 543 501 540 486 b 479 440 525 456 507 443 z m 222 110 b 183 193 196 131 183 158 b 239 294 183 240 203 274 b 339 322 261 308 294 317 l 413 332 b 482 346 435 335 458 340 b 540 369 506 351 525 360 l 540 271 b 438 110 540 196 506 143 b 314 79 399 89 356 79 b 222 110 278 79 247 89 z "},"ä":{"ha":772,"x_min":0,"x_max":0,"o":"m 344 839 l 344 981 l 218 981 l 218 839 z m 568 839 l 568 981 l 442 981 l 442 839 z m 479 440 l 285 415 b 118 347 215 407 161 385 b 56 190 76 310 56 258 b 119 38 56 129 78 78 b 285 -25 163 -4 218 -25 b 439 11 342 -25 392 -12 b 546 96 486 35 521 64 b 567 29 550 67 557 44 b 658 -15 586 0 617 -15 b 699 -14 675 -15 689 -15 b 743 -3 710 -12 724 -8 l 743 86 b 721 85 735 86 728 85 b 703 83 714 83 708 83 b 669 94 686 83 675 86 b 663 125 665 101 663 113 l 663 543 b 582 694 663 611 636 663 b 375 744 529 728 460 744 b 181 692 300 744 236 726 b 93 504 124 657 94 594 l 207 504 b 236 589 211 542 221 571 b 372 640 263 624 308 640 b 499 613 426 640 469 632 b 543 522 528 594 543 564 b 535 475 543 501 540 486 b 479 440 525 456 507 443 z m 222 110 b 183 193 196 131 183 158 b 239 294 183 240 203 274 b 339 322 261 308 294 317 l 413 332 b 482 346 435 335 458 340 b 540 369 506 351 525 360 l 540 271 b 438 110 540 196 506 143 b 314 79 399 89 356 79 b 222 110 278 79 247 89 z "},"å":{"ha":772,"x_min":0,"x_max":0,"o":"m 394 1103 b 294 1061 356 1103 322 1089 b 253 961 267 1033 253 1000 b 294 861 253 922 267 889 b 394 819 322 833 356 819 b 494 861 433 819 467 833 b 536 961 522 889 536 922 b 494 1061 536 1000 522 1033 b 394 1103 467 1089 433 1103 z m 394 875 b 335 900 371 875 351 883 b 310 961 318 918 310 938 b 335 1021 310 985 318 1004 b 394 1046 351 1039 371 1046 b 454 1021 418 1046 438 1039 b 479 961 471 1004 479 985 b 454 900 479 938 471 918 b 394 875 438 883 418 875 z m 479 440 l 285 415 b 118 347 215 407 161 385 b 56 190 76 310 56 258 b 119 38 56 129 78 78 b 285 -25 163 -4 218 -25 b 439 11 342 -25 392 -12 b 546 96 486 35 521 64 b 567 29 550 67 557 44 b 658 -15 586 0 617 -15 b 699 -14 675 -15 689 -15 b 743 -3 710 -12 724 -8 l 743 86 b 721 85 735 86 728 85 b 703 83 714 83 708 83 b 669 94 686 83 675 86 b 663 125 665 101 663 113 l 663 543 b 582 694 663 611 636 663 b 375 744 529 728 460 744 b 181 692 300 744 236 726 b 93 504 124 657 94 594 l 207 504 b 236 589 211 542 221 571 b 372 640 263 624 308 640 b 499 613 426 640 469 632 b 543 522 528 594 543 564 b 535 475 543 501 540 486 b 479 440 525 456 507 443 z m 222 110 b 183 193 196 131 183 158 b 239 294 183 240 203 274 b 339 322 261 308 294 317 l 413 332 b 482 346 435 335 458 340 b 540 369 506 351 525 360 l 540 271 b 438 110 540 196 506 143 b 314 79 399 89 356 79 b 222 110 278 79 247 89 z "},"æ":{"ha":1235,"x_min":0,"x_max":0,"o":"m 464 440 l 271 414 b 132 365 213 407 167 390 b 50 185 76 325 50 265 b 114 33 50 122 71 72 b 293 -25 156 -4 215 -25 b 447 13 349 -25 400 -12 b 574 131 494 36 536 75 b 664 28 586 96 617 61 b 840 -25 715 -7 774 -25 b 942 -12 875 -25 908 -21 b 1039 31 975 -4 1007 10 b 1121 117 1068 50 1094 78 b 1167 228 1147 154 1163 192 l 1043 228 b 979 118 1032 181 1010 144 b 844 81 949 93 904 81 b 699 146 782 81 733 101 b 643 324 664 190 644 249 l 1176 324 b 1164 497 1176 392 1172 450 b 1110 622 1156 544 1136 586 b 999 717 1081 665 1043 697 b 851 744 954 735 904 744 b 717 715 801 744 757 735 b 617 635 676 696 643 669 b 533 711 597 665 569 692 b 379 744 492 733 439 744 b 200 713 303 744 243 733 b 81 503 125 675 85 606 l 197 503 b 265 618 197 553 219 592 b 374 639 292 632 328 639 b 494 608 429 639 469 629 b 533 521 521 589 533 558 b 517 464 533 496 528 478 b 464 440 504 451 488 443 z m 1046 421 l 644 421 b 710 582 649 492 669 546 b 850 636 749 618 796 636 b 988 582 904 636 950 618 b 1046 421 1025 546 1044 492 z m 531 369 l 531 278 b 521 210 528 246 525 224 b 478 146 514 188 500 167 b 396 93 453 122 425 106 b 318 76 367 82 342 76 b 218 107 281 76 246 86 b 174 194 189 128 174 157 b 228 292 174 239 192 271 b 336 322 250 304 286 315 l 439 339 b 497 351 467 343 486 347 b 531 369 508 356 519 363 z "},"ç":{"ha":694,"x_min":0,"x_max":0,"o":"m 569 688 b 369 747 518 728 451 747 b 133 640 274 747 194 713 b 40 343 71 569 40 471 b 138 57 40 226 72 131 b 306 -21 186 4 242 -21 l 232 -121 l 257 -149 b 285 -140 267 -144 276 -142 b 311 -137 292 -137 301 -137 b 360 -153 331 -137 347 -143 b 376 -190 371 -164 376 -176 b 342 -242 376 -215 365 -232 b 299 -250 329 -247 315 -250 b 249 -242 283 -250 267 -247 l 208 -229 l 185 -283 b 243 -303 208 -292 229 -299 b 318 -312 268 -310 293 -312 b 442 -275 374 -312 415 -300 b 483 -186 469 -250 483 -221 b 453 -108 483 -153 472 -126 b 374 -81 432 -90 406 -81 b 322 -87 353 -81 336 -83 l 371 -21 b 560 46 443 -21 506 1 b 663 257 614 90 649 161 l 543 257 b 482 131 532 203 511 161 b 361 83 453 99 413 83 b 217 158 296 83 247 108 b 171 342 186 207 171 269 b 203 524 171 414 181 475 b 369 638 236 600 292 638 b 493 594 426 638 468 624 b 543 482 519 564 536 526 l 663 482 b 569 688 651 579 621 647 z "},"è":{"ha":772,"x_min":0,"x_max":0,"o":"m 194 1018 l 376 822 l 468 822 l 346 1018 z m 542 707 b 392 743 493 731 443 743 b 144 633 289 743 207 706 b 49 349 81 561 49 465 b 143 74 49 231 81 139 b 374 -26 206 7 283 -26 b 472 -15 410 -26 443 -22 b 610 58 528 -1 574 22 b 671 139 633 79 653 106 b 701 228 689 172 699 201 l 582 228 b 536 143 574 196 557 168 b 383 81 497 101 447 81 b 232 147 315 81 264 103 b 179 324 200 192 182 250 l 713 324 b 701 485 713 397 708 451 b 653 613 693 533 676 576 b 542 707 628 651 590 682 z m 586 421 l 183 421 b 243 576 185 483 206 535 b 385 636 282 615 328 636 b 551 549 463 636 519 607 b 586 421 571 517 582 474 z "},"é":{"ha":772,"x_min":0,"x_max":0,"o":"m 258 822 l 351 822 l 533 1018 l 382 1018 z m 542 707 b 392 743 493 731 443 743 b 144 633 289 743 207 706 b 49 349 81 561 49 465 b 143 74 49 231 81 139 b 374 -26 206 7 283 -26 b 472 -15 410 -26 443 -22 b 610 58 528 -1 574 22 b 671 139 633 79 653 106 b 701 228 689 172 699 201 l 582 228 b 536 143 574 196 557 168 b 383 81 497 101 447 81 b 232 147 315 81 264 103 b 179 324 200 192 182 250 l 713 324 b 701 485 713 397 708 451 b 653 613 693 533 676 576 b 542 707 628 651 590 682 z m 586 421 l 183 421 b 243 576 185 483 206 535 b 385 636 282 615 328 636 b 551 549 463 636 519 607 b 586 421 571 517 582 474 z "},"ê":{"ha":772,"x_min":0,"x_max":0,"o":"m 489 822 l 600 822 l 463 1018 l 333 1018 l 196 822 l 306 822 l 397 953 z m 542 707 b 392 743 493 731 443 743 b 144 633 289 743 207 706 b 49 349 81 561 49 465 b 143 74 49 231 81 139 b 374 -26 206 7 283 -26 b 472 -15 410 -26 443 -22 b 610 58 528 -1 574 22 b 671 139 633 79 653 106 b 701 228 689 172 699 201 l 582 228 b 536 143 574 196 557 168 b 383 81 497 101 447 81 b 232 147 315 81 264 103 b 179 324 200 192 182 250 l 713 324 b 701 485 713 397 708 451 b 653 613 693 533 676 576 b 542 707 628 651 590 682 z m 586 421 l 183 421 b 243 576 185 483 206 535 b 385 636 282 615 328 636 b 551 549 463 636 519 607 b 586 421 571 517 582 474 z "},"ë":{"ha":772,"x_min":0,"x_max":0,"o":"m 347 839 l 347 981 l 221 981 l 221 839 z m 571 839 l 571 981 l 444 981 l 444 839 z m 542 707 b 392 743 493 731 443 743 b 144 633 289 743 207 706 b 49 349 81 561 49 465 b 143 74 49 231 81 139 b 374 -26 206 7 283 -26 b 472 -15 410 -26 443 -22 b 610 58 528 -1 574 22 b 671 139 633 79 653 106 b 701 228 689 172 699 201 l 582 228 b 536 143 574 196 557 168 b 383 81 497 101 447 81 b 232 147 315 81 264 103 b 179 324 200 192 182 250 l 713 324 b 701 485 713 397 708 451 b 653 613 693 533 676 576 b 542 707 628 651 590 682 z m 586 421 l 183 421 b 243 576 185 483 206 535 b 385 636 282 615 328 636 b 551 549 463 636 519 607 b 586 421 571 517 582 474 z "},"ì":{"ha":386,"x_min":0,"x_max":0,"o":"m 6 1018 l 188 822 l 281 822 l 157 1018 z m 253 0 l 253 724 l 128 724 l 128 0 z "},"í":{"ha":386,"x_min":0,"x_max":0,"o":"m 69 822 l 164 822 l 344 1018 l 194 1018 z m 253 0 l 253 724 l 128 724 l 128 0 z "},"î":{"ha":386,"x_min":0,"x_max":0,"o":"m 293 822 l 406 822 l 267 1018 l 138 1018 l 0 822 l 111 822 l 203 953 z m 253 0 l 253 724 l 128 724 l 128 0 z "},"ï":{"ha":386,"x_min":0,"x_max":0,"o":"m 151 839 l 151 981 l 25 981 l 25 839 z m 376 839 l 376 981 l 249 981 l 249 839 z m 253 0 l 253 724 l 128 724 l 128 0 z "},"ð":{"ha":772,"x_min":0,"x_max":0,"o":"m 436 721 b 356 729 415 726 389 729 b 132 632 267 729 192 697 b 42 356 71 567 42 475 b 125 82 42 244 69 153 b 369 -25 181 11 263 -25 b 629 92 483 -25 569 14 b 719 376 690 171 719 265 b 631 696 719 489 690 594 b 400 967 581 779 504 868 l 503 1040 l 451 1085 l 350 1014 l 293 1061 b 242 1100 279 1072 261 1086 l 153 1035 l 254 951 l 143 872 l 196 828 l 306 903 b 417 794 356 857 393 821 b 493 696 442 769 467 736 b 436 721 475 707 457 715 z m 531 157 b 388 82 490 107 443 82 b 199 200 294 82 232 121 b 172 367 181 242 172 297 b 231 569 172 453 192 521 b 376 642 269 617 318 642 b 538 568 450 642 503 617 b 589 374 572 518 589 453 b 531 157 589 279 569 207 z "},"ñ":{"ha":772,"x_min":0,"x_max":0,"o":"m 449 951 b 374 979 417 965 392 974 b 321 985 354 983 338 985 b 207 924 271 985 232 964 b 178 836 193 900 183 871 l 244 836 b 265 883 247 857 256 872 b 304 899 275 893 289 899 b 343 893 317 899 329 897 b 394 875 356 889 374 883 l 431 863 b 471 850 442 858 456 854 b 510 844 488 847 499 844 b 599 878 542 844 571 856 b 653 996 625 899 643 939 l 581 996 b 569 957 579 979 575 967 b 515 933 558 942 540 933 b 483 939 504 933 493 935 b 449 951 472 942 461 946 z m 206 624 l 206 726 l 89 726 l 89 0 l 211 0 l 211 381 b 221 490 211 428 215 464 b 260 564 228 515 240 540 b 349 624 286 594 315 614 b 419 633 367 631 390 633 b 538 565 476 633 517 610 b 557 458 550 538 557 501 l 557 0 l 682 0 l 682 465 b 651 635 682 539 671 596 b 443 743 615 707 546 743 b 315 715 396 743 353 733 b 206 624 276 696 240 665 z "},"ò":{"ha":772,"x_min":0,"x_max":0,"o":"m 185 1018 l 367 822 l 460 822 l 336 1018 z m 619 654 b 382 747 556 717 476 747 b 133 639 278 747 194 711 b 40 347 71 567 40 469 b 128 75 40 233 69 143 b 367 -26 188 7 267 -26 b 632 88 486 -26 575 11 b 717 378 689 165 717 261 b 619 654 717 500 685 592 z m 544 171 b 378 79 514 110 458 79 b 217 156 304 79 250 104 b 165 349 182 207 165 272 b 217 556 165 431 182 499 b 379 640 250 613 304 640 b 557 540 463 640 522 607 b 589 375 579 497 589 443 b 544 171 589 300 575 232 z "},"ó":{"ha":772,"x_min":0,"x_max":0,"o":"m 250 822 l 343 822 l 524 1018 l 374 1018 z m 619 654 b 382 747 556 717 476 747 b 133 639 278 747 194 711 b 40 347 71 567 40 469 b 128 75 40 233 69 143 b 367 -26 188 7 267 -26 b 632 88 486 -26 575 11 b 717 378 689 165 717 261 b 619 654 717 500 685 592 z m 544 171 b 378 79 514 110 458 79 b 217 156 304 79 250 104 b 165 349 182 207 165 272 b 217 556 165 431 182 499 b 379 640 250 613 304 640 b 557 540 463 640 522 607 b 589 375 579 497 589 443 b 544 171 589 300 575 232 z "},"ô":{"ha":772,"x_min":0,"x_max":0,"o":"m 481 822 l 592 822 l 453 1018 l 324 1018 l 186 822 l 297 822 l 389 953 z m 619 654 b 382 747 556 717 476 747 b 133 639 278 747 194 711 b 40 347 71 567 40 469 b 128 75 40 233 69 143 b 367 -26 188 7 267 -26 b 632 88 486 -26 575 11 b 717 378 689 165 717 261 b 619 654 717 500 685 592 z m 544 171 b 378 79 514 110 458 79 b 217 156 304 79 250 104 b 165 349 182 207 165 272 b 217 556 165 431 182 499 b 379 640 250 613 304 640 b 557 540 463 640 522 607 b 589 375 579 497 589 443 b 544 171 589 300 575 232 z "},"õ":{"ha":772,"x_min":0,"x_max":0,"o":"m 424 951 b 347 979 392 965 367 974 b 296 985 329 983 313 985 b 182 924 246 985 207 964 b 153 836 168 900 158 871 l 219 836 b 240 883 222 857 231 872 b 279 899 250 893 263 899 b 318 893 292 899 304 897 b 369 875 331 889 349 883 l 406 863 b 446 850 417 858 431 854 b 485 844 463 847 474 844 b 574 878 517 844 546 856 b 628 996 600 899 618 939 l 556 996 b 544 957 554 979 550 967 b 490 933 533 942 515 933 b 458 939 479 933 468 935 b 424 951 447 942 436 946 z m 619 654 b 382 747 556 717 476 747 b 133 639 278 747 194 711 b 40 347 71 567 40 469 b 128 75 40 233 69 143 b 367 -26 188 7 267 -26 b 632 88 486 -26 575 11 b 717 378 689 165 717 261 b 619 654 717 500 685 592 z m 544 171 b 378 79 514 110 458 79 b 217 156 304 79 250 104 b 165 349 182 207 165 272 b 217 556 165 431 182 499 b 379 640 250 613 304 640 b 557 540 463 640 522 607 b 589 375 579 497 589 443 b 544 171 589 300 575 232 z "},"ö":{"ha":772,"x_min":0,"x_max":0,"o":"m 339 839 l 339 981 l 211 981 l 211 839 z m 563 839 l 563 981 l 435 981 l 435 839 z m 619 654 b 382 747 556 717 476 747 b 133 639 278 747 194 711 b 40 347 71 567 40 469 b 128 75 40 233 69 143 b 367 -26 188 7 267 -26 b 632 88 486 -26 575 11 b 717 378 689 165 717 261 b 619 654 717 500 685 592 z m 544 171 b 378 79 514 110 458 79 b 217 156 304 79 250 104 b 165 349 182 207 165 272 b 217 556 165 431 182 499 b 379 640 250 613 304 640 b 557 540 463 640 522 607 b 589 375 579 497 589 443 b 544 171 589 300 575 232 z "},"÷":{"ha":763,"x_min":0,"x_max":0,"o":"m 346 544 l 489 544 l 489 694 l 346 694 z m 63 297 l 769 297 l 769 411 l 63 411 z m 489 164 l 346 164 l 346 14 l 489 14 z "},"ø":{"ha":849,"x_min":0,"x_max":0,"o":"m 149 94 l 63 3 l 103 -32 l 185 54 b 279 -6 208 29 240 8 b 411 -28 318 -21 363 -28 b 663 86 517 -28 600 10 b 757 375 725 161 757 258 b 746 479 757 408 753 444 b 685 622 733 532 713 581 l 771 719 l 736 753 l 651 657 b 564 717 618 685 589 704 b 414 749 521 738 471 749 b 165 629 306 749 222 708 b 79 354 107 549 79 457 b 97 207 79 297 85 249 b 149 94 110 165 126 128 z m 513 621 b 574 572 540 607 561 592 l 232 189 b 213 253 224 215 217 236 b 203 347 206 283 203 314 b 261 558 203 433 222 504 b 419 640 301 614 353 640 b 513 621 454 640 485 635 z m 335 92 b 263 144 310 101 286 118 l 600 526 b 618 471 608 506 614 488 b 628 367 625 442 628 407 b 596 200 628 303 617 247 b 414 79 560 118 499 79 b 335 92 388 79 361 83 z "},"ù":{"ha":772,"x_min":0,"x_max":0,"o":"m 193 1018 l 375 822 l 467 822 l 344 1018 z m 211 244 l 211 726 l 86 726 l 86 232 b 117 85 86 171 97 121 b 329 -19 154 15 225 -19 b 499 38 396 -19 451 0 b 557 107 522 57 542 79 l 556 0 l 671 0 l 671 726 l 550 726 l 550 369 b 524 203 550 299 542 243 b 350 88 493 126 435 88 b 229 153 292 88 251 110 b 211 244 218 176 211 207 z "},"ú":{"ha":772,"x_min":0,"x_max":0,"o":"m 250 822 l 344 822 l 525 1018 l 375 1018 z m 211 244 l 211 726 l 86 726 l 86 232 b 117 85 86 171 97 121 b 329 -19 154 15 225 -19 b 499 38 396 -19 451 0 b 557 107 522 57 542 79 l 556 0 l 671 0 l 671 726 l 550 726 l 550 369 b 524 203 550 299 542 243 b 350 88 493 126 435 88 b 229 153 292 88 251 110 b 211 244 218 176 211 207 z "},"û":{"ha":772,"x_min":0,"x_max":0,"o":"m 481 822 l 592 822 l 454 1018 l 325 1018 l 188 822 l 297 822 l 389 953 z m 211 244 l 211 726 l 86 726 l 86 232 b 117 85 86 171 97 121 b 329 -19 154 15 225 -19 b 499 38 396 -19 451 0 b 557 107 522 57 542 79 l 556 0 l 671 0 l 671 726 l 550 726 l 550 369 b 524 203 550 299 542 243 b 350 88 493 126 435 88 b 229 153 292 88 251 110 b 211 244 218 176 211 207 z "},"ü":{"ha":772,"x_min":0,"x_max":0,"o":"m 339 839 l 339 981 l 213 981 l 213 839 z m 563 839 l 563 981 l 436 981 l 436 839 z m 211 244 l 211 726 l 86 726 l 86 232 b 117 85 86 171 97 121 b 329 -19 154 15 225 -19 b 499 38 396 -19 451 0 b 557 107 522 57 542 79 l 556 0 l 671 0 l 671 726 l 550 726 l 550 369 b 524 203 550 299 542 243 b 350 88 493 126 435 88 b 229 153 292 88 251 110 b 211 244 218 176 211 207 z "},"ý":{"ha":694,"x_min":0,"x_max":0,"o":"m 244 819 l 338 819 l 519 1015 l 368 1015 z m 678 726 l 543 726 l 347 135 l 153 726 l 14 726 l 283 -21 l 253 -96 b 228 -151 238 -129 231 -147 b 201 -179 221 -162 211 -172 b 151 -190 190 -186 174 -190 b 126 -187 144 -190 136 -189 b 81 -176 117 -186 101 -183 l 81 -289 b 115 -296 93 -292 106 -294 b 154 -297 124 -297 138 -297 b 303 -236 225 -297 274 -278 b 453 103 332 -196 382 -83 b 564 407 482 181 519 283 b 678 726 622 574 661 679 z "},"þ":{"ha":772,"x_min":0,"x_max":0,"o":"m 275 693 b 203 617 253 676 228 651 l 203 986 l 86 986 l 86 -296 l 206 -296 l 206 74 b 261 11 222 47 240 26 b 407 -31 299 -17 347 -31 b 629 65 492 -31 567 1 b 722 367 692 131 722 231 b 643 633 722 476 696 564 b 422 735 590 700 517 735 b 275 693 364 735 315 721 z m 543 149 b 400 75 508 100 461 75 b 228 189 315 75 257 114 b 203 367 210 231 203 289 b 263 563 203 456 222 521 b 400 625 303 604 349 625 b 572 507 483 625 540 586 b 596 354 588 465 596 414 b 543 149 596 267 579 199 z "},"ÿ":{"ha":694,"x_min":0,"x_max":0,"o":"m 307 839 l 307 981 l 179 981 l 179 839 z m 531 839 l 531 981 l 404 981 l 404 839 z m 678 726 l 543 726 l 347 135 l 153 726 l 14 726 l 283 -21 l 253 -96 b 228 -151 238 -129 231 -147 b 201 -179 221 -162 211 -172 b 151 -190 190 -186 174 -190 b 126 -187 144 -190 136 -189 b 81 -176 117 -186 101 -183 l 81 -289 b 115 -296 93 -292 106 -294 b 154 -297 124 -297 138 -297 b 303 -236 225 -297 274 -278 b 453 103 332 -196 382 -83 b 564 407 482 181 519 283 b 678 726 622 574 661 679 z "},"†":{"ha":772,"x_min":0,"x_max":0,"o":"m 317 704 l 54 704 l 54 597 l 317 597 l 317 -222 l 446 -222 l 446 597 l 708 597 l 708 704 l 446 704 l 446 996 l 317 996 z "},"•":{"ha":486,"x_min":0,"x_max":0,"o":"m 401 497 b 358 606 401 542 386 578 b 251 647 331 633 294 647 b 144 606 207 647 172 633 b 101 497 115 578 101 542 b 144 390 101 454 115 418 b 251 347 172 361 207 347 b 358 390 294 347 331 361 b 401 497 386 418 401 454 z "},"™":{"ha":1389,"x_min":0,"x_max":0,"o":"m 579 996 l 161 996 l 161 914 l 321 914 l 321 504 l 419 504 l 419 914 l 579 914 z m 1056 996 l 929 644 l 804 996 l 664 996 l 664 504 l 753 504 l 753 901 l 890 504 l 969 504 l 1106 901 l 1106 504 l 1196 504 l 1196 996 z "},"´":{"ha":463,"x_min":0,"x_max":0,"o":"m 93 822 l 188 822 l 368 1018 l 218 1018 z "},"¨":{"ha":463,"x_min":0,"x_max":0,"o":"m 182 839 l 182 981 l 56 981 l 56 839 z m 406 839 l 406 981 l 279 981 l 279 839 z "},"∞":{"ha":990,"x_min":0,"x_max":0,"o":"m 482 381 l 496 406 b 585 285 521 354 550 314 b 725 232 624 250 669 232 b 890 313 796 232 850 260 b 950 500 929 367 950 429 b 889 685 950 569 929 631 b 721 764 849 738 793 764 b 569 707 663 764 611 746 b 483 589 542 683 514 643 b 383 722 453 650 419 694 b 260 763 347 750 306 763 b 90 685 189 763 132 738 b 29 497 50 633 29 571 b 93 306 29 419 50 356 b 263 232 138 257 193 232 b 413 290 319 232 369 251 b 482 381 436 313 460 342 z m 174 375 b 135 492 147 401 135 440 b 171 611 135 542 146 581 b 257 656 194 640 222 656 b 376 589 297 656 336 633 b 433 506 414 544 433 517 b 379 408 433 490 415 458 b 263 335 344 360 304 335 b 174 375 231 335 201 347 z m 811 610 b 846 500 835 581 846 544 b 810 383 846 453 835 414 b 714 338 786 353 754 338 b 603 407 672 338 636 361 b 551 500 568 454 551 485 b 601 588 551 514 568 543 b 713 654 635 632 671 654 b 811 610 754 654 788 639 z "},"≤":{"ha":763,"x_min":0,"x_max":0,"o":"m 206 426 l 768 600 l 768 722 l 61 482 l 61 368 l 768 128 l 768 250 z m 61 110 l 61 0 l 768 0 l 768 110 z "},"≥":{"ha":763,"x_min":0,"x_max":0,"o":"m 769 368 l 769 482 l 63 722 l 63 600 l 625 426 l 63 250 l 63 128 z m 63 0 l 769 0 l 769 110 l 63 110 z "},"∏":{"ha":1143,"x_min":0,"x_max":0,"o":"m 865 879 l 985 879 l 985 996 l 19 996 l 19 879 l 139 879 l 139 -203 l 275 -203 l 275 879 l 728 879 l 728 -203 l 865 -203 z "},"π":{"ha":763,"x_min":0,"x_max":0,"o":"m 817 614 l 817 722 l 32 722 l 32 614 l 132 614 l 132 0 l 257 0 l 257 614 l 592 614 l 592 163 b 597 94 592 138 593 115 b 615 38 600 74 607 54 b 656 1 625 22 638 10 b 725 -14 672 -8 696 -14 b 826 -7 772 -14 806 -11 l 826 101 b 768 94 811 96 792 94 b 717 168 733 93 717 118 l 717 614 z "},"Ω":{"ha":1067,"x_min":0,"x_max":0,"o":"m 175 860 b 75 542 108 771 75 665 b 163 254 75 431 104 335 b 306 119 196 208 243 164 l 64 119 l 64 0 l 463 0 l 463 119 b 293 276 403 144 346 197 b 214 557 240 356 214 450 b 297 799 214 647 242 728 b 539 903 353 868 433 903 b 783 811 639 903 722 872 b 878 544 846 750 878 661 b 786 246 878 422 847 322 b 632 119 753 203 701 160 l 632 0 l 1026 0 l 1026 119 l 788 119 b 950 274 850 151 904 203 b 1017 544 994 344 1017 435 b 913 871 1017 678 983 786 b 538 1024 829 974 703 1024 b 175 860 379 1024 258 969 z "},"ƒ":{"ha":772,"x_min":0,"x_max":0,"o":"m 49 -156 l 28 -268 b 63 -281 38 -274 50 -276 b 113 -285 75 -283 92 -285 b 329 -140 210 -285 282 -236 b 418 203 358 -82 388 32 l 479 543 l 656 543 l 656 639 l 496 639 b 556 863 517 753 536 826 b 640 917 575 899 603 917 b 671 911 650 917 661 915 b 717 893 682 908 697 901 l 738 1003 b 693 1017 724 1010 708 1014 b 639 1022 676 1021 658 1022 b 532 996 600 1022 564 1013 b 447 911 499 978 471 950 b 414 832 432 881 421 854 b 371 639 408 810 393 746 l 199 639 l 199 543 l 351 543 l 263 67 b 218 -108 247 -21 232 -79 b 115 -175 196 -153 161 -175 b 82 -171 104 -175 92 -174 b 49 -156 69 -167 58 -161 z "},"∆":{"ha":850,"x_min":0,"x_max":0,"o":"m 426 996 l 76 0 l 926 0 l 572 996 z m 246 111 l 496 867 l 758 111 z "},"…":{"ha":1389,"x_min":0,"x_max":0,"o":"m 301 0 l 301 149 l 161 149 l 161 0 z m 765 149 l 624 149 l 624 0 l 765 0 z m 1228 149 l 1086 149 l 1086 0 l 1228 0 z "},"–":{"ha":772,"x_min":0,"x_max":0,"o":"m 775 335 l 775 433 l -3 433 l -3 335 z "},"—":{"ha":1389,"x_min":0,"x_max":0,"o":"m 1225 335 l 1225 433 l 164 433 l 164 335 z "},"“":{"ha":463,"x_min":0,"x_max":0,"o":"m 197 942 l 197 1006 b 93 943 154 1000 119 979 b 53 789 67 907 53 856 l 53 653 l 197 653 l 197 800 l 124 800 b 122 811 122 806 122 810 l 122 817 b 132 874 122 836 125 854 b 197 942 144 914 167 936 z m 426 942 l 426 1006 b 315 933 375 1000 338 975 b 281 789 292 890 281 842 l 281 653 l 426 653 l 426 800 l 351 800 b 350 810 351 804 350 807 l 350 817 b 369 900 350 849 357 876 b 426 942 382 924 401 938 z "},"”":{"ha":463,"x_min":0,"x_max":0,"o":"m 53 707 l 53 643 b 164 717 106 650 142 675 b 197 860 186 758 197 807 l 197 996 l 53 996 l 53 849 l 126 849 b 121 781 129 829 126 807 b 53 707 110 738 86 713 z m 281 707 l 281 643 b 393 717 333 649 371 674 b 426 860 415 758 426 807 l 426 996 l 281 996 l 281 849 l 354 849 b 347 781 357 829 354 807 b 281 707 338 738 315 713 z "},"‘":{"ha":308,"x_min":0,"x_max":0,"o":"m 235 942 l 235 1006 b 124 933 183 1000 146 975 b 89 789 101 890 89 842 l 89 653 l 235 653 l 235 800 l 161 800 b 160 810 160 804 160 807 b 158 817 158 811 158 814 b 178 900 158 849 165 876 b 235 942 192 924 210 938 z "},"’":{"ha":308,"x_min":0,"x_max":0,"o":"m 115 707 l 115 643 b 225 713 164 649 201 672 b 260 860 249 753 260 803 l 260 996 l 115 996 l 115 849 l 189 849 b 192 840 190 844 190 842 l 192 832 b 172 749 192 800 185 772 b 115 707 160 725 140 711 z "},"◊":{"ha":686,"x_min":0,"x_max":0,"o":"m 346 -29 l 647 504 l 346 1024 l 44 504 z m 346 150 l 147 504 l 346 843 l 543 504 z "},"⁄":{"ha":232,"x_min":0,"x_max":0,"o":"m -140 -26 l 458 971 l 367 971 l -232 -26 z "},"‹":{"ha":463,"x_min":0,"x_max":0,"o":"m 340 492 l 340 614 l 122 443 l 122 315 l 340 144 l 340 267 l 194 379 z "},"›":{"ha":463,"x_min":0,"x_max":0,"o":"m 115 492 l 261 379 l 115 267 l 115 144 l 335 315 l 335 443 l 115 614 z "},"ﬁ":{"ha":694,"x_min":0,"x_max":0,"o":"m 146 949 b 119 838 131 925 122 888 l 119 724 l 19 724 l 19 626 l 119 626 l 119 0 l 240 0 l 240 626 l 363 626 l 363 724 l 242 724 b 253 869 242 801 246 850 b 319 899 260 889 282 899 l 336 899 b 363 897 342 897 350 897 l 363 1008 l 335 1010 b 311 1011 326 1011 318 1011 b 146 949 231 1011 175 989 z m 603 996 l 481 996 l 481 858 l 603 858 z m 603 0 l 603 724 l 481 724 l 481 0 z "},"ﬂ":{"ha":694,"x_min":0,"x_max":0,"o":"m 119 626 l 119 0 l 240 0 l 240 626 l 363 626 l 363 724 l 240 724 l 240 813 b 251 868 240 839 244 857 b 319 899 263 889 285 899 l 336 899 b 363 897 342 897 350 897 l 363 1006 b 333 1010 351 1008 342 1010 b 303 1011 324 1011 314 1011 b 171 972 247 1011 203 997 b 119 851 138 946 119 906 l 119 724 l 19 724 l 19 626 z m 478 996 l 478 0 l 600 0 l 600 996 z "},"‡":{"ha":772,"x_min":0,"x_max":0,"o":"m 317 165 l 54 165 l 54 58 l 317 58 l 317 -222 l 446 -222 l 446 58 l 708 58 l 708 165 l 446 165 l 446 608 l 708 608 l 708 715 l 446 715 l 446 996 l 317 996 l 317 715 l 54 715 l 54 608 l 317 608 z "},"‰":{"ha":1389,"x_min":0,"x_max":0,"o":"m 192 -36 l 763 1006 l 688 1006 l 115 -36 z m 74 931 b 10 778 31 889 10 838 b 74 625 10 718 31 667 b 226 561 115 582 167 561 b 379 625 286 561 338 582 b 443 778 422 667 443 718 b 379 931 443 838 422 889 b 226 994 338 974 286 994 b 74 931 167 994 115 974 z m 135 686 b 96 778 110 711 96 742 b 135 869 96 814 110 844 b 226 908 160 896 190 908 b 318 869 263 908 293 896 b 357 778 344 844 357 814 b 318 686 357 742 344 711 b 226 647 293 661 263 647 b 135 686 190 647 160 661 z m 804 361 b 651 424 761 403 711 424 b 497 361 590 424 540 403 b 433 207 456 318 433 267 b 497 54 433 147 456 96 b 651 -10 540 11 590 -10 b 804 54 711 -10 761 11 b 868 207 847 96 868 147 b 804 361 868 267 847 318 z m 1011 361 b 947 207 968 318 947 267 b 1011 54 947 147 968 96 b 1164 -10 1053 11 1103 -10 b 1317 54 1224 -10 1274 11 b 1381 207 1360 96 1381 147 b 1317 361 1381 267 1360 318 b 1164 424 1274 403 1224 424 b 1011 361 1103 424 1053 403 z m 558 115 b 521 207 533 140 521 171 b 558 299 521 243 533 274 b 651 338 583 324 615 338 b 743 299 688 338 718 324 b 781 207 768 274 781 243 b 743 115 781 171 768 140 b 651 76 718 89 688 76 b 558 115 615 76 583 89 z m 1072 115 b 1033 207 1046 140 1033 171 b 1072 299 1033 243 1046 274 b 1164 338 1097 324 1128 338 b 1256 299 1200 338 1231 324 b 1294 207 1281 274 1294 243 b 1256 115 1294 171 1281 140 b 1164 76 1231 89 1200 76 b 1072 115 1128 76 1097 89 z "},"":{"ha":1097,"x_min":0,"x_max":0,"o":"m 779 1097 b 778 1110 779 1101 779 1106 b 775 1126 778 1115 776 1119 b 601 1022 694 1107 636 1072 b 547 844 565 972 547 913 b 618 856 579 847 603 851 b 694 906 643 865 668 881 b 758 1001 724 935 744 967 b 779 1097 772 1036 779 1068 z m 567 817 b 471 838 550 817 519 824 b 347 858 422 851 381 858 b 150 758 268 858 203 825 b 71 499 97 692 71 606 b 174 149 71 383 106 267 b 382 -32 242 29 311 -32 b 475 -8 406 -32 436 -25 b 574 15 513 7 546 15 b 679 -7 603 15 638 7 b 776 -29 721 -22 753 -29 b 954 107 835 -29 894 15 b 1040 281 994 167 1024 225 b 931 368 999 293 963 322 b 882 524 899 414 882 465 b 928 667 882 576 897 624 b 1007 750 944 692 971 719 b 935 819 983 779 958 803 b 786 864 892 849 842 864 b 665 840 753 864 713 856 b 567 817 619 825 586 817 z "},"ı":{"ha":386,"x_min":0,"x_max":0,"o":"m 253 0 l 253 724 l 128 724 l 128 0 z "},"ˆ":{"ha":463,"x_min":0,"x_max":0,"o":"m 322 822 l 433 822 l 294 1018 l 167 1018 l 29 822 l 139 822 l 231 953 z "},"˜":{"ha":463,"x_min":0,"x_max":0,"o":"m 264 951 b 189 979 232 965 207 974 b 138 985 171 983 153 985 b 24 924 86 985 49 964 b -6 836 10 900 0 871 l 60 836 b 82 883 64 857 71 872 b 119 899 92 893 104 899 b 160 893 133 899 146 897 b 211 875 172 889 190 883 l 247 863 b 288 850 258 858 272 854 b 325 844 303 847 315 844 b 414 878 357 844 388 856 b 468 996 440 899 460 939 l 397 996 b 385 957 396 979 392 967 b 331 933 375 942 356 933 b 299 939 319 933 310 935 b 264 951 289 942 278 946 z "},"˘":{"ha":463,"x_min":0,"x_max":0,"o":"m 86 1017 l 17 1017 b 50 910 21 974 32 938 b 222 829 85 857 143 829 b 376 874 288 829 338 844 b 446 1017 413 903 436 951 l 378 1017 b 347 951 371 988 361 967 b 236 911 322 925 286 911 b 118 951 182 911 143 925 b 86 1017 104 965 93 988 z "},"˙":{"ha":463,"x_min":0,"x_max":0,"o":"m 294 839 l 294 981 l 168 981 l 168 839 z "},"˚":{"ha":463,"x_min":0,"x_max":0,"o":"m 231 1103 b 131 1061 192 1103 158 1089 b 89 961 103 1033 89 1000 b 131 861 89 922 103 889 b 231 819 158 833 192 819 b 331 861 269 819 303 833 b 372 961 358 889 372 922 b 331 1061 372 1000 358 1033 b 231 1103 303 1089 269 1103 z m 231 875 b 171 900 207 875 188 883 b 146 961 154 918 146 938 b 171 1021 146 985 154 1004 b 231 1046 188 1039 207 1046 b 290 1021 254 1046 274 1039 b 317 961 308 1004 317 985 b 290 900 317 938 308 918 b 231 875 274 883 254 875 z "},"¸":{"ha":463,"x_min":0,"x_max":0,"o":"m 221 -87 l 285 0 l 218 0 l 131 -121 l 154 -149 b 182 -140 165 -144 174 -142 b 208 -137 190 -137 199 -137 b 257 -153 229 -137 244 -143 b 275 -190 268 -164 275 -176 b 239 -242 275 -215 263 -232 b 196 -250 228 -247 213 -250 b 146 -242 181 -250 164 -247 l 106 -229 l 82 -283 b 140 -303 107 -292 126 -299 b 215 -312 167 -310 192 -312 b 340 -275 271 -312 313 -300 b 381 -186 367 -250 381 -221 b 350 -108 381 -153 371 -126 b 271 -81 329 -90 303 -81 b 221 -87 250 -81 233 -83 z "},"˝":{"ha":463,"x_min":0,"x_max":0,"o":"m 85 821 l 239 1018 l 92 1018 l 0 821 z m 311 821 l 463 1018 l 318 1018 l 225 821 z "},"˛":{"ha":463,"x_min":0,"x_max":0,"o":"m 306 -32 l 346 0 l 246 0 b 149 -79 201 -29 169 -56 b 110 -178 122 -108 110 -142 b 144 -264 110 -210 121 -239 b 244 -301 168 -289 201 -301 b 314 -293 268 -301 290 -299 b 353 -279 325 -289 339 -285 l 353 -190 b 328 -201 344 -194 336 -199 b 299 -204 321 -203 311 -204 b 246 -186 275 -204 258 -199 b 228 -143 233 -174 228 -160 b 242 -94 228 -125 232 -110 b 306 -32 251 -81 272 -60 z "},"ˇ":{"ha":463,"x_min":0,"x_max":0,"o":"m 29 1018 l 167 822 l 294 822 l 433 1018 l 322 1018 l 231 889 l 139 1018 z "},"Ł":{"ha":772,"x_min":0,"x_max":0,"o":"m 106 508 l -17 432 l -17 329 l 106 403 l 106 0 l 746 0 l 746 118 l 240 118 l 240 482 l 460 615 l 460 722 l 240 588 l 240 996 l 106 996 z "},"ł":{"ha":308,"x_min":0,"x_max":0,"o":"m 93 415 l 93 0 l 215 0 l 215 494 l 336 569 l 336 661 l 215 586 l 215 996 l 93 996 l 93 511 l -28 435 l -28 344 z "},"¦":{"ha":361,"x_min":0,"x_max":0,"o":"m 214 1011 l 97 1011 l 97 618 l 214 618 z m 97 392 l 97 0 l 214 0 l 214 392 z "},"−":{"ha":811,"x_min":0,"x_max":0,"o":"m 63 297 l 769 297 l 769 411 l 63 411 z "},"½":{"ha":1158,"x_min":0,"x_max":0,"o":"m 851 971 l 760 971 l 185 -26 l 276 -26 z m 210 782 l 210 388 l 319 388 l 319 967 l 232 967 b 174 876 221 922 203 892 b 61 856 154 868 117 860 l 61 782 z m 686 150 b 644 0 664 111 649 60 l 1078 0 l 1078 94 l 768 94 b 921 206 782 129 833 167 b 1044 296 981 236 1022 267 b 1078 410 1068 325 1078 363 b 1022 536 1078 463 1060 504 b 874 583 985 568 936 583 b 711 521 799 583 744 563 b 661 375 678 481 661 431 l 767 375 b 782 449 768 407 774 432 b 867 493 797 478 825 493 b 946 467 901 493 928 485 b 971 394 963 450 971 426 b 942 329 971 368 961 346 b 810 254 921 313 876 288 b 686 150 750 224 708 189 z "},"¼":{"ha":1158,"x_min":0,"x_max":0,"o":"m 351 -26 l 947 971 l 856 971 l 260 -26 z m 260 782 l 260 388 l 369 388 l 369 967 l 281 967 b 224 876 271 922 251 892 b 111 856 204 868 167 860 l 111 782 z m 1025 215 l 1025 583 l 933 583 l 644 224 l 644 132 l 921 132 l 921 0 l 1025 0 l 1025 132 l 1103 132 l 1103 215 z m 736 215 l 919 449 l 919 215 z "},"¾":{"ha":1158,"x_min":0,"x_max":0,"o":"m 150 564 l 51 564 b 83 449 51 521 61 483 b 265 368 117 394 178 368 b 424 415 326 368 379 383 b 490 551 468 446 490 492 b 476 624 490 581 486 606 b 385 694 461 657 431 681 b 447 740 413 703 433 718 b 467 813 461 761 467 786 b 413 925 467 857 449 894 b 269 971 376 956 329 971 b 124 922 211 971 163 954 b 65 776 86 890 65 840 l 164 776 b 194 863 165 817 175 844 b 269 888 214 879 239 888 b 343 863 304 888 329 879 b 365 808 357 844 365 828 b 315 735 365 771 349 747 b 222 726 297 729 265 725 l 222 644 b 318 635 260 646 292 642 b 386 546 363 619 386 590 b 357 478 386 519 376 496 b 264 450 339 460 307 450 b 174 485 221 450 190 461 b 150 564 158 506 150 532 z m 286 -26 l 378 -26 l 985 971 l 893 971 z m 1039 215 l 1039 583 l 947 583 l 657 224 l 657 132 l 933 132 l 933 0 l 1039 0 l 1039 132 l 1115 132 l 1115 215 z m 749 215 l 932 449 l 932 215 z "},"₣":{"ha":772,"x_min":0,"x_max":0,"o":"m 110 154 l 110 0 l 239 0 l 239 154 l 465 154 l 465 272 l 239 272 l 239 433 l 682 433 l 682 553 l 239 553 l 239 832 l 746 832 l 746 954 l 110 954 l 110 272 l 0 272 l 0 154 z "},"Ğ":{"ha":1081,"x_min":0,"x_max":0,"o":"m 399 1297 l 329 1297 b 363 1189 333 1253 344 1217 b 535 1108 397 1136 454 1108 b 688 1153 599 1108 650 1124 b 757 1297 725 1182 749 1231 l 690 1297 b 658 1231 683 1268 672 1246 b 549 1190 635 1204 597 1190 b 431 1231 494 1190 456 1204 b 399 1297 415 1244 406 1268 z m 779 968 b 536 1022 711 1004 631 1022 b 203 881 400 1022 289 975 b 67 483 113 782 67 650 b 206 88 67 315 114 183 b 511 -26 290 11 393 -26 b 736 24 603 -26 678 -10 b 858 128 772 43 813 78 l 890 0 l 978 0 l 978 533 l 540 533 l 540 421 l 851 421 b 761 168 850 304 821 221 b 538 89 703 115 628 89 b 283 201 421 89 336 126 b 206 490 232 275 206 372 b 300 800 206 628 238 731 b 533 903 364 868 440 903 b 726 854 611 903 675 888 b 828 694 778 821 811 767 l 961 694 b 779 968 939 825 878 915 z "},"ğ":{"ha":772,"x_min":0,"x_max":0,"o":"m 217 1017 l 147 1017 b 181 910 151 974 163 938 b 353 829 215 857 274 829 b 507 874 418 829 468 844 b 576 1017 544 903 568 951 l 510 1017 b 478 951 501 988 492 967 b 367 911 453 925 417 911 b 249 951 314 911 274 925 b 217 1017 235 965 225 988 z m 494 697 b 346 739 453 725 403 739 b 131 636 261 739 190 706 b 42 351 71 568 42 474 b 131 75 42 224 71 131 b 336 -8 189 19 258 -8 b 472 18 393 -8 438 0 b 561 101 507 36 536 64 b 538 -107 563 1 554 -68 b 353 -206 508 -174 447 -206 b 224 -165 294 -206 251 -193 b 188 -90 206 -147 194 -122 l 64 -90 b 153 -256 69 -165 100 -219 b 350 -307 207 -289 272 -307 b 638 -160 492 -307 586 -258 b 678 58 665 -106 678 -33 l 678 719 l 565 719 l 565 628 b 494 697 542 658 518 682 z m 368 632 b 510 567 426 632 472 610 b 565 367 547 522 565 457 b 536 210 565 307 556 254 b 350 90 500 131 438 90 b 217 156 294 90 250 113 b 167 342 183 199 167 260 b 192 511 167 411 175 468 b 368 632 224 592 282 632 z "},"İ":{"ha":386,"x_min":0,"x_max":0,"o":"m 265 1089 l 265 1231 l 139 1231 l 139 1089 z m 272 0 l 272 996 l 136 996 l 136 0 z "},"Ş":{"ha":926,"x_min":0,"x_max":0,"o":"m 194 321 l 67 321 b 171 65 65 214 100 129 b 415 -29 240 3 322 -29 l 349 -121 l 372 -149 b 401 -140 383 -144 393 -142 b 428 -137 408 -137 417 -137 b 475 -153 447 -137 463 -143 b 493 -190 488 -164 493 -176 b 458 -242 493 -215 482 -232 b 414 -250 446 -247 432 -250 b 364 -242 400 -250 382 -247 l 324 -229 l 300 -283 b 358 -303 325 -292 344 -299 b 433 -312 385 -310 410 -312 b 558 -275 490 -312 531 -300 b 599 -186 585 -250 599 -221 b 568 -108 599 -153 589 -126 b 490 -81 547 -90 521 -81 b 439 -87 468 -81 451 -83 l 481 -29 b 742 42 574 -29 661 -6 b 861 279 821 89 861 168 b 767 482 861 368 829 435 b 610 544 729 508 678 529 l 471 576 b 289 631 376 599 317 617 b 229 738 249 653 229 689 b 281 854 229 782 246 821 b 453 904 315 888 374 904 b 663 826 550 904 621 879 b 706 704 685 799 699 757 l 832 704 b 724 946 832 814 796 896 b 457 1021 650 996 561 1021 b 193 935 343 1021 256 993 b 100 715 132 878 100 804 b 196 528 100 632 132 569 b 382 463 232 504 294 482 l 518 432 b 679 374 590 415 644 396 b 729 257 713 350 729 311 b 608 107 729 185 690 135 b 471 85 568 92 521 85 b 233 183 357 85 279 118 b 194 321 210 219 197 265 z "},"ş":{"ha":694,"x_min":0,"x_max":0,"o":"m 163 228 l 44 228 b 117 46 49 156 72 94 b 300 -28 163 -3 224 -28 l 232 -121 l 257 -149 b 285 -140 267 -144 276 -142 b 311 -137 292 -137 301 -137 b 360 -153 331 -137 347 -143 b 376 -190 371 -164 376 -176 b 342 -242 376 -215 365 -232 b 299 -250 329 -247 315 -250 b 249 -242 283 -250 267 -247 l 208 -229 l 185 -283 b 243 -303 208 -292 229 -299 b 318 -312 268 -310 293 -312 b 442 -275 374 -312 415 -300 b 483 -186 469 -250 483 -221 b 453 -108 483 -153 472 -126 b 374 -81 432 -90 406 -81 b 322 -87 353 -81 336 -83 l 367 -28 b 571 43 454 -28 521 -4 b 644 210 619 89 644 146 b 574 357 644 278 621 326 b 397 419 543 376 485 399 l 317 439 b 236 468 281 447 254 457 b 189 544 204 488 189 513 b 225 614 189 574 201 597 b 329 640 249 632 283 640 b 475 593 399 640 447 625 b 504 518 492 571 503 546 l 619 518 b 576 649 621 564 607 608 b 339 746 528 714 449 746 b 140 682 256 746 189 724 b 65 515 90 639 65 583 b 144 378 65 457 92 411 b 281 326 174 358 219 342 l 378 301 b 482 267 431 289 464 278 b 524 196 510 251 524 228 b 472 106 524 154 507 125 b 353 75 438 86 399 75 b 193 135 276 75 224 94 b 163 228 175 156 165 188 z "},"Ć":{"ha":1003,"x_min":0,"x_max":0,"o":"m 422 1108 l 515 1108 l 696 1304 l 546 1304 z m 819 924 b 525 1024 750 990 651 1024 b 178 869 378 1024 261 972 b 61 508 100 776 61 656 b 217 79 61 315 113 172 b 508 -26 294 10 392 -26 b 828 103 642 -26 749 17 b 944 367 894 174 933 261 l 813 367 b 751 207 800 300 779 247 b 524 93 699 131 624 93 b 281 203 417 93 335 129 b 199 486 226 275 199 369 b 289 803 199 628 229 733 b 526 906 350 871 429 906 b 715 850 607 906 669 888 b 804 697 758 813 789 761 l 935 697 b 819 924 928 782 889 857 z "},"ć":{"ha":694,"x_min":0,"x_max":0,"o":"m 261 833 l 354 833 l 536 1029 l 385 1029 z m 569 688 b 369 747 518 728 451 747 b 133 640 274 747 194 713 b 40 343 71 569 40 471 b 125 83 40 239 68 153 b 351 -21 181 14 257 -21 b 560 46 436 -21 506 1 b 663 257 614 90 649 161 l 543 257 b 482 131 532 203 511 161 b 361 83 453 99 413 83 b 217 158 296 83 247 108 b 171 342 186 207 171 269 b 203 524 171 414 181 475 b 369 638 236 600 292 638 b 493 594 426 638 468 624 b 543 482 519 564 536 526 l 663 482 b 569 688 651 579 621 647 z "},"Č":{"ha":1003,"x_min":0,"x_max":0,"o":"m 313 1299 l 450 1101 l 579 1101 l 718 1299 l 607 1299 l 515 1168 l 424 1299 z m 819 924 b 525 1024 750 990 651 1024 b 178 869 378 1024 261 972 b 61 508 100 776 61 656 b 217 79 61 315 113 172 b 508 -26 294 10 392 -26 b 828 103 642 -26 749 17 b 944 367 894 174 933 261 l 813 367 b 751 207 800 300 779 247 b 524 93 699 131 624 93 b 281 203 417 93 335 129 b 199 486 226 275 199 369 b 289 803 199 628 229 733 b 526 906 350 871 429 906 b 715 850 607 906 669 888 b 804 697 758 813 789 761 l 935 697 b 819 924 928 782 889 857 z "},"č":{"ha":694,"x_min":0,"x_max":0,"o":"m 165 1018 l 303 822 l 432 822 l 569 1018 l 458 1018 l 367 889 l 275 1018 z m 569 688 b 369 747 518 728 451 747 b 133 640 274 747 194 713 b 40 343 71 569 40 471 b 125 83 40 239 68 153 b 351 -21 181 14 257 -21 b 560 46 436 -21 506 1 b 663 257 614 90 649 161 l 543 257 b 482 131 532 203 511 161 b 361 83 453 99 413 83 b 217 158 296 83 247 108 b 171 342 186 207 171 269 b 203 524 171 414 181 475 b 369 638 236 600 292 638 b 493 594 426 638 468 624 b 543 482 519 564 536 526 l 663 482 b 569 688 651 579 621 647 z "},"đ":{"ha":772,"x_min":0,"x_max":0,"o":"m 490 704 b 350 739 453 728 406 739 b 119 624 250 739 174 700 b 38 347 65 546 38 454 b 126 76 38 235 68 144 b 338 -26 186 8 257 -26 b 471 4 388 -26 432 -15 b 572 101 510 24 543 57 l 572 0 l 682 0 l 682 821 l 772 821 l 772 901 l 682 901 l 682 1000 l 564 1000 l 564 901 l 338 901 l 338 821 l 564 821 l 564 633 b 490 704 536 667 513 690 z m 217 160 b 167 354 183 211 167 276 b 225 563 167 446 186 515 b 374 633 263 608 313 633 b 513 567 429 633 475 611 b 569 363 550 522 569 454 b 515 154 569 272 550 203 b 375 81 478 106 432 81 b 217 160 303 81 250 107 z "},"Ā":{"ha":926,"x_min":0,"x_max":0,"o":"m 693 1065 l 693 1146 l 258 1146 l 258 1065 z m 910 0 l 549 996 l 396 996 l 21 0 l 158 0 l 267 299 l 661 299 l 761 0 z m 306 408 l 465 849 l 617 408 z "},"ā":{"ha":772,"x_min":0,"x_max":0,"o":"m 592 831 l 592 911 l 157 911 l 157 831 z m 479 440 l 285 415 b 118 347 215 407 161 385 b 56 190 76 310 56 258 b 119 38 56 129 78 78 b 285 -25 163 -4 218 -25 b 439 11 342 -25 392 -12 b 546 96 486 35 521 64 b 567 29 550 67 557 44 b 658 -15 586 0 617 -15 b 699 -14 675 -15 689 -15 b 743 -3 710 -12 724 -8 l 743 86 b 721 85 735 86 728 85 b 703 83 714 83 708 83 b 669 94 686 83 675 86 b 663 125 665 101 663 113 l 663 543 b 582 694 663 611 636 663 b 375 744 529 728 460 744 b 181 692 300 744 236 726 b 93 504 124 657 94 594 l 207 504 b 236 589 211 542 221 571 b 372 640 263 624 308 640 b 499 613 426 640 469 632 b 543 522 528 594 543 564 b 535 475 543 501 540 486 b 479 440 525 456 507 443 z m 222 110 b 183 193 196 131 183 158 b 239 294 183 240 203 274 b 339 322 261 308 294 317 l 413 332 b 482 346 435 335 458 340 b 540 369 506 351 525 360 l 540 271 b 438 110 540 196 506 143 b 314 79 399 89 356 79 b 222 110 278 79 247 89 z "},"Ă":{"ha":926,"x_min":0,"x_max":0,"o":"m 339 1272 l 269 1272 b 303 1165 274 1229 285 1193 b 475 1085 338 1111 396 1085 b 629 1128 540 1085 590 1100 b 699 1272 665 1157 690 1206 l 632 1272 b 600 1206 624 1243 614 1221 b 489 1165 575 1179 539 1165 b 371 1206 435 1165 396 1179 b 339 1272 357 1221 347 1243 z m 910 0 l 549 996 l 396 996 l 21 0 l 158 0 l 267 299 l 661 299 l 761 0 z m 306 408 l 465 849 l 617 408 z "},"ă":{"ha":772,"x_min":0,"x_max":0,"o":"m 233 1019 l 164 1019 b 197 913 168 976 179 940 b 369 832 232 860 289 832 b 522 876 433 832 485 847 b 593 1019 560 906 583 954 l 525 1019 b 493 954 518 990 508 969 b 383 914 469 926 433 914 b 265 954 329 914 290 926 b 233 1019 251 968 240 990 z m 479 440 l 285 415 b 118 347 215 407 161 385 b 56 190 76 310 56 258 b 119 38 56 129 78 78 b 285 -25 163 -4 218 -25 b 439 11 342 -25 392 -12 b 546 96 486 35 521 64 b 567 29 550 67 557 44 b 658 -15 586 0 617 -15 b 699 -14 675 -15 689 -15 b 743 -3 710 -12 724 -8 l 743 86 b 721 85 735 86 728 85 b 703 83 714 83 708 83 b 669 94 686 83 675 86 b 663 125 665 101 663 113 l 663 543 b 582 694 663 611 636 663 b 375 744 529 728 460 744 b 181 692 300 744 236 726 b 93 504 124 657 94 594 l 207 504 b 236 589 211 542 221 571 b 372 640 263 624 308 640 b 499 613 426 640 469 632 b 543 522 528 594 543 564 b 535 475 543 501 540 486 b 479 440 525 456 507 443 z m 314 79 b 222 110 278 79 247 89 b 183 193 196 131 183 158 b 239 294 183 240 203 274 b 339 322 261 308 294 317 l 413 332 b 482 346 435 335 458 340 b 540 369 506 351 525 360 l 540 271 b 438 110 540 196 506 143 b 314 79 399 89 356 79 z "},"Ą":{"ha":926,"x_min":0,"x_max":0,"o":"m 894 -201 b 864 -204 886 -203 876 -204 b 811 -186 840 -204 824 -199 b 793 -143 800 -174 793 -160 b 808 -94 793 -125 799 -110 b 871 -32 817 -81 839 -60 l 911 0 l 910 0 l 549 996 l 396 996 l 21 0 l 158 0 l 267 299 l 661 299 l 761 0 l 811 0 b 714 -79 767 -29 735 -56 b 675 -178 688 -108 675 -142 b 710 -264 675 -210 686 -239 b 810 -301 733 -289 767 -301 b 879 -293 833 -301 857 -299 l 919 -279 l 919 -190 z m 617 408 l 306 408 l 465 849 z "},"ą":{"ha":772,"x_min":0,"x_max":0,"o":"m 726 -199 b 697 -201 719 -200 710 -201 b 644 -183 674 -201 657 -196 b 626 -140 633 -171 626 -157 b 640 -92 626 -122 632 -107 b 704 -29 650 -78 671 -57 l 733 -6 b 743 -3 736 -6 739 -4 l 743 1 l 744 3 l 743 3 l 743 86 b 721 85 735 86 728 85 b 703 83 714 83 708 83 b 669 94 686 83 675 86 b 663 125 665 101 663 113 l 663 543 b 582 694 663 611 636 663 b 375 744 529 728 460 744 b 181 692 300 744 236 726 b 93 504 124 657 94 594 l 207 504 b 236 589 211 542 221 571 b 372 640 263 624 308 640 b 499 613 426 640 469 632 b 543 522 528 594 543 564 b 535 475 543 501 540 486 b 479 440 525 456 507 443 l 285 415 b 118 347 215 407 161 385 b 56 190 76 310 56 258 b 119 38 56 129 78 78 b 285 -25 163 -4 218 -25 b 439 11 342 -25 392 -12 b 546 96 486 35 521 64 b 567 29 550 67 557 44 b 624 -11 581 8 599 -6 b 547 -76 590 -35 565 -57 b 508 -175 521 -106 508 -139 b 543 -261 508 -207 519 -236 b 643 -299 567 -286 600 -299 b 713 -290 667 -299 690 -296 b 753 -276 724 -287 738 -282 l 753 -187 b 726 -199 743 -192 735 -196 z m 540 369 l 540 271 b 438 110 540 196 506 143 b 314 79 399 89 356 79 b 222 110 278 79 247 89 b 183 193 196 131 183 158 b 239 294 183 240 203 274 b 339 322 261 308 294 317 l 413 332 b 482 346 435 335 458 340 b 540 369 506 351 525 360 z "},"Ĉ":{"ha":1003,"x_min":0,"x_max":0,"o":"m 621 1097 l 732 1097 l 594 1293 l 465 1293 l 328 1097 l 438 1097 l 529 1228 z m 819 924 b 525 1024 750 990 651 1024 b 178 869 378 1024 261 972 b 61 508 100 776 61 656 b 217 79 61 315 113 172 b 508 -26 294 10 392 -26 b 828 103 642 -26 749 17 b 944 367 894 174 933 261 l 813 367 b 751 207 800 300 779 247 b 524 93 699 131 624 93 b 281 203 417 93 335 129 b 199 486 226 275 199 369 b 289 803 199 628 229 733 b 526 906 350 871 429 906 b 715 850 607 906 669 888 b 804 697 758 813 789 761 l 935 697 b 819 924 928 782 889 857 z "},"ĉ":{"ha":694,"x_min":0,"x_max":0,"o":"m 481 814 l 592 814 l 453 1011 l 324 1011 l 186 814 l 297 814 l 389 944 z m 569 688 b 369 747 518 728 451 747 b 133 640 274 747 194 713 b 40 343 71 569 40 471 b 125 83 40 239 68 153 b 351 -21 181 14 257 -21 b 560 46 436 -21 506 1 b 663 257 614 90 649 161 l 543 257 b 482 131 532 203 511 161 b 361 83 453 99 413 83 b 217 158 296 83 247 108 b 171 342 186 207 171 269 b 203 524 171 414 181 475 b 369 638 236 600 292 638 b 493 594 426 638 468 624 b 543 482 519 564 536 526 l 663 482 b 569 688 651 579 621 647 z "},"Ċ":{"ha":1003,"x_min":0,"x_max":0,"o":"m 592 1135 l 592 1275 l 465 1275 l 465 1135 z m 819 924 b 525 1024 750 990 651 1024 b 178 869 378 1024 261 972 b 61 508 100 776 61 656 b 217 79 61 315 113 172 b 508 -26 294 10 392 -26 b 828 103 642 -26 749 17 b 944 367 894 174 933 261 l 813 367 b 751 207 800 300 779 247 b 524 93 699 131 624 93 b 281 203 417 93 335 129 b 199 486 226 275 199 369 b 289 803 199 628 229 733 b 526 906 350 871 429 906 b 715 850 607 906 669 888 b 804 697 758 813 789 761 l 935 697 b 819 924 928 782 889 857 z "},"ċ":{"ha":694,"x_min":0,"x_max":0,"o":"m 440 849 l 440 989 l 314 989 l 314 849 z m 569 688 b 369 747 518 728 451 747 b 133 640 274 747 194 713 b 40 343 71 569 40 471 b 125 83 40 239 68 153 b 351 -21 181 14 257 -21 b 560 46 436 -21 506 1 b 663 257 614 90 649 161 l 543 257 b 482 131 532 203 511 161 b 361 83 453 99 413 83 b 217 158 296 83 247 108 b 171 342 186 207 171 269 b 203 524 171 414 181 475 b 369 638 236 600 292 638 b 493 594 426 638 468 624 b 543 482 519 564 536 526 l 663 482 b 569 688 651 579 621 647 z "},"Ď":{"ha":1003,"x_min":0,"x_max":0,"o":"m 307 1268 l 444 1072 l 574 1072 l 713 1268 l 601 1268 l 510 1138 l 418 1268 z m 515 996 l 113 996 l 113 0 l 514 0 b 875 226 685 0 806 75 b 935 514 915 313 935 407 b 835 850 935 650 901 763 b 515 996 758 947 653 996 z m 489 115 l 247 115 l 247 881 l 488 881 b 724 778 596 881 675 846 b 797 490 774 710 797 614 b 788 386 797 458 794 424 b 729 232 776 322 756 271 b 601 129 696 181 653 147 b 489 115 572 119 533 115 z "},"ď":{"ha":917,"x_min":0,"x_max":0,"o":"m 751 922 l 751 857 b 864 932 804 867 842 892 b 896 1074 885 974 896 1021 l 896 1211 l 751 1211 l 751 1064 l 825 1064 b 826 1056 825 1060 826 1057 l 826 1046 b 817 988 826 1028 824 1008 b 751 922 804 949 782 926 z m 490 704 b 350 739 453 728 406 739 b 119 624 250 739 174 700 b 38 347 65 546 38 454 b 126 76 38 235 68 144 b 338 -26 186 8 257 -26 b 471 4 388 -26 432 -15 b 572 101 510 24 543 57 l 572 0 l 682 0 l 682 1000 l 564 1000 l 564 633 b 490 704 536 667 513 690 z m 375 81 b 217 160 303 81 250 107 b 167 354 183 211 167 276 b 225 563 167 446 186 515 b 374 633 263 608 313 633 b 513 567 429 633 475 611 b 569 363 550 522 569 454 b 515 154 569 272 550 203 b 375 81 478 106 432 81 z "},"Ē":{"ha":926,"x_min":0,"x_max":0,"o":"m 722 1082 l 722 1161 l 288 1161 l 288 1082 z m 844 874 l 844 996 l 118 996 l 118 0 l 856 0 l 856 118 l 250 118 l 250 457 l 800 457 l 800 572 l 250 572 l 250 874 z "},"ē":{"ha":772,"x_min":0,"x_max":0,"o":"m 615 821 l 615 901 l 181 901 l 181 821 z m 542 707 b 392 743 493 731 443 743 b 144 633 289 743 207 706 b 49 349 81 561 49 465 b 143 74 49 231 81 139 b 374 -26 206 7 283 -26 b 472 -15 410 -26 443 -22 b 610 58 528 -1 574 22 b 671 139 633 79 653 106 b 701 228 689 172 699 201 l 582 228 b 536 143 574 196 557 168 b 383 81 497 101 447 81 b 232 147 315 81 264 103 b 179 324 200 192 182 250 l 713 324 b 701 485 713 397 708 451 b 653 613 693 533 676 576 b 542 707 628 651 590 682 z m 586 421 l 183 421 b 243 576 185 483 206 535 b 385 636 282 615 328 636 b 551 549 463 636 519 607 b 586 421 571 517 582 474 z "},"Ĕ":{"ha":926,"x_min":0,"x_max":0,"o":"m 357 1269 l 288 1269 b 321 1163 292 1226 303 1190 b 493 1082 356 1108 413 1082 b 646 1126 557 1082 608 1097 b 717 1269 683 1156 707 1203 l 649 1269 b 617 1203 642 1240 632 1218 b 507 1163 593 1176 556 1163 b 389 1203 453 1163 414 1176 b 357 1269 375 1218 364 1240 z m 844 874 l 844 996 l 118 996 l 118 0 l 856 0 l 856 118 l 250 118 l 250 457 l 800 457 l 800 572 l 250 572 l 250 874 z "},"ĕ":{"ha":772,"x_min":0,"x_max":0,"o":"m 251 1013 l 182 1013 b 215 906 186 969 197 933 b 388 825 250 853 308 825 b 542 869 453 825 503 840 b 611 1013 579 899 603 947 l 544 1013 b 513 947 536 983 526 963 b 401 907 488 921 451 907 b 283 947 347 907 308 921 b 251 1013 269 961 260 983 z m 653 613 b 542 707 628 651 590 682 b 392 743 493 731 443 743 b 144 633 289 743 207 706 b 49 349 81 561 49 465 b 143 74 49 231 81 139 b 374 -26 206 7 283 -26 b 472 -15 410 -26 443 -22 b 610 58 528 -1 574 22 b 671 139 633 79 653 106 b 701 228 689 172 699 201 l 582 228 b 536 143 574 196 557 168 b 383 81 497 101 447 81 b 232 147 315 81 264 103 b 179 324 200 192 182 250 l 713 324 b 701 485 713 397 708 451 b 653 613 693 533 676 576 z m 586 421 l 183 421 b 243 576 185 483 206 535 b 385 636 282 615 328 636 b 551 549 463 636 519 607 b 586 421 571 517 582 474 z "},"Ė":{"ha":926,"x_min":0,"x_max":0,"o":"m 567 1096 l 567 1236 l 440 1236 l 440 1096 z m 844 874 l 844 996 l 118 996 l 118 0 l 856 0 l 856 118 l 250 118 l 250 457 l 800 457 l 800 572 l 250 572 l 250 874 z "},"ė":{"ha":772,"x_min":0,"x_max":0,"o":"m 461 819 l 461 961 l 333 961 l 333 819 z m 542 707 b 392 743 493 731 443 743 b 144 633 289 743 207 706 b 49 349 81 561 49 465 b 143 74 49 231 81 139 b 374 -26 206 7 283 -26 b 472 -15 410 -26 443 -22 b 610 58 528 -1 574 22 b 671 139 633 79 653 106 b 701 228 689 172 699 201 l 582 228 b 536 143 574 196 557 168 b 383 81 497 101 447 81 b 232 147 315 81 264 103 b 179 324 200 192 182 250 l 713 324 b 701 485 713 397 708 451 b 653 613 693 533 676 576 b 542 707 628 651 590 682 z m 586 421 l 183 421 b 243 576 185 483 206 535 b 385 636 282 615 328 636 b 551 549 463 636 519 607 b 586 421 571 517 582 474 z "},"Ę":{"ha":926,"x_min":0,"x_max":0,"o":"m 639 -32 l 678 0 l 856 0 l 856 118 l 250 118 l 250 457 l 800 457 l 800 572 l 250 572 l 250 874 l 844 874 l 844 996 l 118 996 l 118 0 l 579 0 b 482 -79 535 -29 503 -56 b 442 -178 456 -108 442 -142 b 478 -264 442 -210 454 -239 b 578 -301 500 -289 533 -301 b 646 -293 601 -301 624 -299 l 686 -279 l 686 -190 b 661 -201 678 -194 668 -199 b 632 -204 654 -203 643 -204 b 579 -186 608 -204 590 -199 b 561 -143 567 -174 561 -160 b 575 -94 561 -125 565 -110 b 639 -32 583 -81 606 -60 z "},"ę":{"ha":772,"x_min":0,"x_max":0,"o":"m 536 143 b 383 81 497 101 447 81 b 232 147 315 81 264 103 b 179 324 200 192 182 250 l 713 324 b 701 485 713 397 708 451 b 653 613 693 533 676 576 b 542 707 628 651 590 682 b 392 743 493 731 443 743 b 144 633 289 743 207 706 b 49 349 81 561 49 465 b 143 74 49 231 81 139 b 353 -25 201 13 271 -21 b 276 -90 319 -49 294 -71 b 238 -189 250 -119 238 -153 b 272 -275 238 -221 249 -250 b 372 -312 296 -300 329 -312 b 442 -304 396 -312 419 -310 b 482 -289 453 -300 467 -296 l 482 -201 b 457 -211 472 -206 464 -210 b 426 -215 449 -214 439 -215 b 375 -197 404 -215 386 -208 b 356 -153 363 -185 356 -171 b 371 -106 356 -136 361 -119 b 433 -43 379 -92 401 -71 l 467 -17 b 472 -15 468 -15 471 -15 b 610 58 528 -1 574 22 b 671 139 633 79 653 106 b 701 228 689 172 699 201 l 582 228 b 536 143 574 196 557 168 z m 243 576 b 385 636 282 615 328 636 b 551 549 463 636 519 607 b 586 421 571 517 582 474 l 183 421 b 243 576 185 483 206 535 z "},"Ě":{"ha":926,"x_min":0,"x_max":0,"o":"m 275 1258 l 413 1063 l 542 1063 l 681 1258 l 569 1258 l 478 1128 l 386 1258 z m 844 874 l 844 996 l 118 996 l 118 0 l 856 0 l 856 118 l 250 118 l 250 457 l 800 457 l 800 572 l 250 572 l 250 874 z "},"ě":{"ha":772,"x_min":0,"x_max":0,"o":"m 183 1017 l 321 821 l 450 821 l 588 1017 l 476 1017 l 385 888 l 293 1017 z m 542 707 b 392 743 493 731 443 743 b 144 633 289 743 207 706 b 49 349 81 561 49 465 b 143 74 49 231 81 139 b 374 -26 206 7 283 -26 b 472 -15 410 -26 443 -22 b 610 58 528 -1 574 22 b 671 139 633 79 653 106 b 701 228 689 172 699 201 l 582 228 b 536 143 574 196 557 168 b 383 81 497 101 447 81 b 232 147 315 81 264 103 b 179 324 200 192 182 250 l 713 324 b 701 485 713 397 708 451 b 653 613 693 533 676 576 b 542 707 628 651 590 682 z m 586 421 l 183 421 b 243 576 185 483 206 535 b 385 636 282 615 328 636 b 551 549 463 636 519 607 b 586 421 571 517 582 474 z "},"Ĝ":{"ha":1081,"x_min":0,"x_max":0,"o":"m 647 1088 l 758 1088 l 621 1283 l 492 1283 l 354 1088 l 464 1088 l 556 1218 z m 779 968 b 536 1022 711 1004 631 1022 b 203 881 400 1022 289 975 b 67 483 113 782 67 650 b 206 88 67 315 114 183 b 511 -26 290 11 393 -26 b 736 24 603 -26 678 -10 b 858 128 772 43 813 78 l 890 0 l 978 0 l 978 533 l 540 533 l 540 421 l 851 421 b 761 168 850 304 821 221 b 538 89 703 115 628 89 b 283 201 421 89 336 126 b 206 490 232 275 206 372 b 300 800 206 628 238 731 b 533 903 364 868 440 903 b 726 854 611 903 675 888 b 828 694 778 821 811 767 l 961 694 b 779 968 939 825 878 915 z "},"ĝ":{"ha":772,"x_min":0,"x_max":0,"o":"m 440 797 l 551 797 l 414 993 l 285 993 l 147 797 l 258 797 l 349 926 z m 494 697 b 346 739 453 725 403 739 b 131 636 261 739 190 706 b 42 351 71 568 42 474 b 131 75 42 224 71 131 b 336 -8 189 19 258 -8 b 472 18 393 -8 438 0 b 561 101 507 36 536 64 b 538 -107 563 1 554 -68 b 353 -206 508 -174 447 -206 b 224 -165 294 -206 251 -193 b 188 -90 206 -147 194 -122 l 64 -90 b 153 -256 69 -165 100 -219 b 350 -307 207 -289 272 -307 b 638 -160 492 -307 586 -258 b 678 58 665 -106 678 -33 l 678 719 l 565 719 l 565 628 b 494 697 542 658 518 682 z m 510 567 b 565 367 547 522 565 457 b 536 210 565 307 556 254 b 350 90 500 131 438 90 b 217 156 294 90 250 113 b 167 342 183 199 167 260 b 192 511 167 411 175 468 b 368 632 224 592 282 632 b 510 567 426 632 472 610 z "},"Ġ":{"ha":1081,"x_min":0,"x_max":0,"o":"m 599 1115 l 599 1256 l 472 1256 l 472 1115 z m 779 968 b 536 1022 711 1004 631 1022 b 203 881 400 1022 289 975 b 67 483 113 782 67 650 b 206 88 67 315 114 183 b 511 -26 290 11 393 -26 b 736 24 603 -26 678 -10 b 858 128 772 43 813 78 l 890 0 l 978 0 l 978 533 l 540 533 l 540 421 l 851 421 b 761 168 850 304 821 221 b 538 89 703 115 628 89 b 283 201 421 89 336 126 b 206 490 232 275 206 372 b 300 800 206 628 238 731 b 533 903 364 868 440 903 b 726 854 611 903 675 888 b 828 694 778 821 811 767 l 961 694 b 779 968 939 825 878 915 z "},"ġ":{"ha":772,"x_min":0,"x_max":0,"o":"m 407 858 l 407 999 l 281 999 l 281 858 z m 494 697 b 346 739 453 725 403 739 b 131 636 261 739 190 706 b 42 351 71 568 42 474 b 131 75 42 224 71 131 b 336 -8 189 19 258 -8 b 472 18 393 -8 438 0 b 561 101 507 36 536 64 b 538 -107 563 1 554 -68 b 353 -206 508 -174 447 -206 b 224 -165 294 -206 251 -193 b 188 -90 206 -147 194 -122 l 64 -90 b 153 -256 69 -165 100 -219 b 350 -307 207 -289 272 -307 b 638 -160 492 -307 586 -258 b 678 58 665 -106 678 -33 l 678 719 l 565 719 l 565 628 b 494 697 542 658 518 682 z m 510 567 b 565 367 547 522 565 457 b 536 210 565 307 556 254 b 350 90 500 131 438 90 b 217 156 294 90 250 113 b 167 342 183 199 167 260 b 192 511 167 411 175 468 b 368 632 224 592 282 632 b 510 567 426 632 472 610 z "},"ǵ":{"ha":772,"x_min":0,"x_max":0,"o":"m 267 818 l 360 818 l 542 1014 l 390 1014 z m 494 697 b 346 739 453 725 403 739 b 131 636 261 739 190 706 b 42 351 71 568 42 474 b 131 75 42 224 71 131 b 336 -8 189 19 258 -8 b 472 18 393 -8 438 0 b 561 101 507 36 536 64 b 538 -107 563 1 554 -68 b 353 -206 508 -174 447 -206 b 224 -165 294 -206 251 -193 b 188 -90 206 -147 194 -122 l 64 -90 b 153 -256 69 -165 100 -219 b 350 -307 207 -289 272 -307 b 638 -160 492 -307 586 -258 b 678 58 665 -106 678 -33 l 678 719 l 565 719 l 565 628 b 494 697 542 658 518 682 z m 510 567 b 565 367 547 522 565 457 b 536 210 565 307 556 254 b 350 90 500 131 438 90 b 217 156 294 90 250 113 b 167 342 183 199 167 260 b 192 511 167 411 175 468 b 368 632 224 592 282 632 b 510 567 426 632 472 610 z "},"Ĥ":{"ha":1003,"x_min":0,"x_max":0,"o":"m 608 1039 l 721 1039 l 582 1235 l 453 1235 l 315 1039 l 426 1039 l 518 1169 z m 246 585 l 246 996 l 110 996 l 110 0 l 246 0 l 246 465 l 764 465 l 764 0 l 900 0 l 900 996 l 764 996 l 764 585 z "},"ĥ":{"ha":772,"x_min":0,"x_max":0,"o":"m 533 1053 l 644 1053 l 507 1249 l 378 1249 l 240 1053 l 350 1053 l 442 1183 z m 211 628 l 211 1000 l 89 1000 l 89 0 l 211 0 l 211 385 b 274 582 211 482 232 549 b 411 635 315 617 360 635 b 536 575 472 635 514 615 b 556 458 550 550 556 511 l 556 0 l 682 0 l 682 465 b 651 633 682 538 671 593 b 436 744 614 707 542 744 b 289 706 378 744 329 731 b 211 628 267 690 240 665 z "},"Ħ":{"ha":1003,"x_min":0,"x_max":0,"o":"m 110 996 l 110 856 l 36 856 l 36 756 l 110 756 l 110 0 l 246 0 l 246 465 l 764 465 l 764 0 l 900 0 l 900 756 l 976 756 l 976 856 l 900 856 l 900 996 l 764 996 l 764 856 l 246 856 l 246 996 z m 246 756 l 764 756 l 764 585 l 246 585 z "},"ħ":{"ha":772,"x_min":0,"x_max":0,"o":"m 651 633 b 436 744 614 707 542 744 b 289 706 378 744 329 731 b 211 628 267 690 240 665 l 211 814 l 476 814 l 476 894 l 211 894 l 211 1000 l 89 1000 l 89 894 l 42 894 l 42 814 l 89 814 l 89 0 l 211 0 l 211 385 b 274 582 211 482 232 549 b 411 635 315 617 360 635 b 536 575 472 635 514 615 b 556 458 550 550 556 511 l 556 0 l 682 0 l 682 465 b 651 633 682 538 671 593 z "},"Ĩ":{"ha":618,"x_min":0,"x_max":0,"o":"m 342 1225 b 267 1253 310 1239 285 1247 b 215 1260 247 1257 231 1260 b 100 1197 164 1260 126 1239 b 71 1110 86 1175 78 1146 l 138 1110 b 158 1157 142 1131 149 1147 b 197 1172 169 1167 182 1172 b 236 1167 210 1172 224 1171 l 289 1150 l 324 1136 b 365 1125 336 1132 349 1128 b 403 1119 381 1121 393 1119 b 492 1151 435 1119 464 1129 b 546 1271 518 1174 536 1213 l 475 1271 b 463 1232 472 1253 468 1240 b 408 1208 451 1215 433 1208 b 376 1213 397 1208 386 1210 b 342 1225 367 1215 354 1219 z m 371 3 l 371 1000 l 233 1000 l 233 3 z "},"ĩ":{"ha":597,"x_min":0,"x_max":0,"o":"m 317 1021 b 242 1047 285 1035 260 1043 b 190 1054 222 1053 206 1054 b 75 992 139 1054 101 1033 b 46 904 61 969 53 940 l 113 904 b 133 953 115 926 124 942 b 172 968 144 963 157 968 b 211 963 185 968 199 965 b 263 944 225 958 242 953 l 299 932 b 340 919 311 926 324 924 b 378 914 356 917 368 914 b 467 947 410 914 439 925 b 521 1065 493 968 511 1008 l 450 1065 b 438 1026 447 1049 443 1036 b 383 1003 426 1011 408 1003 b 351 1008 372 1003 361 1004 b 317 1021 342 1011 329 1015 z m 333 4 l 333 726 l 208 726 l 208 4 z "},"Ī":{"ha":556,"x_min":0,"x_max":0,"o":"m 494 1065 l 494 1146 l 60 1146 l 60 1065 z m 349 0 l 349 996 l 213 996 l 213 0 z "},"ī":{"ha":542,"x_min":0,"x_max":0,"o":"m 503 818 l 503 897 l 68 897 l 68 818 z m 338 0 l 338 724 l 213 724 l 213 0 z "},"Į":{"ha":386,"x_min":0,"x_max":0,"o":"m 256 -201 b 225 -204 247 -203 238 -204 b 174 -186 203 -204 185 -199 b 154 -143 161 -174 154 -160 b 169 -94 154 -125 160 -110 b 232 -32 178 -81 200 -60 l 272 0 l 264 0 l 264 996 l 128 996 l 128 0 l 172 0 b 75 -79 128 -29 96 -56 b 36 -178 49 -108 36 -142 b 71 -264 36 -210 47 -239 b 171 -301 94 -289 128 -301 b 240 -293 194 -301 218 -299 l 281 -279 l 281 -190 z "},"į":{"ha":308,"x_min":0,"x_max":0,"o":"m 214 858 l 214 996 l 89 996 l 89 858 z m 197 -194 b 167 -197 189 -196 179 -197 b 115 -179 144 -197 126 -192 b 96 -136 103 -167 96 -153 b 111 -87 96 -118 101 -103 b 174 -26 119 -74 142 -53 l 206 0 l 214 0 l 214 724 l 89 724 l 89 0 l 104 0 b 17 -72 65 -26 36 -51 b -22 -172 -10 -101 -22 -135 b 13 -257 -22 -203 -11 -232 b 113 -294 36 -282 69 -294 b 182 -286 136 -294 160 -292 b 222 -272 193 -283 207 -278 l 222 -183 z "},"Ĳ":{"ha":1081,"x_min":0,"x_max":0,"o":"m 272 0 l 272 996 l 136 996 l 136 0 z m 981 297 l 981 996 l 847 996 l 847 332 b 826 161 847 249 840 192 b 686 86 804 111 757 86 b 574 128 635 86 597 100 b 536 250 549 156 536 196 l 536 321 l 410 321 l 410 250 b 489 35 410 146 436 75 b 681 -26 542 -6 606 -26 b 943 101 810 -26 897 17 b 981 297 968 147 981 213 z "},"ĳ":{"ha":617,"x_min":0,"x_max":0,"o":"m 214 858 l 214 996 l 89 996 l 89 858 z m 399 996 l 399 856 l 521 856 l 521 996 z m 214 0 l 214 724 l 89 724 l 89 0 z m 283 -183 l 283 -289 l 314 -292 b 332 -293 319 -293 326 -293 b 494 -226 411 -293 465 -271 b 521 -108 511 -200 521 -161 l 521 724 l 399 724 l 399 -94 b 382 -169 399 -136 393 -161 b 283 -183 371 -176 338 -182 z "},"Ĵ":{"ha":694,"x_min":0,"x_max":0,"o":"m 619 1051 l 731 1051 l 593 1247 l 464 1247 l 326 1051 l 436 1051 l 528 1182 z m 594 297 l 594 996 l 461 996 l 461 332 b 440 161 461 249 454 192 b 300 86 418 111 372 86 b 188 128 249 86 211 100 b 150 250 163 156 150 196 l 150 321 l 24 321 l 24 250 b 103 35 24 146 50 75 b 294 -26 156 -6 219 -26 b 557 101 424 -26 511 17 b 594 297 582 147 594 213 z "},"ĵ":{"ha":308,"x_min":0,"x_max":0,"o":"m 231 815 l 342 815 l 203 1013 l 75 1013 l -62 815 l 47 815 l 139 946 z m -26 -183 l -26 -289 l 6 -292 b 24 -293 11 -293 18 -293 b 186 -226 103 -293 157 -271 b 211 -108 203 -200 211 -161 l 211 724 l 89 724 l 89 -94 b 74 -169 89 -136 85 -161 b -26 -183 61 -176 29 -182 z "},"Ĺ":{"ha":772,"x_min":0,"x_max":0,"o":"m 122 1042 l 215 1042 l 397 1239 l 246 1239 z m 240 118 l 240 996 l 106 996 l 106 0 l 746 0 l 746 118 z "},"ĺ":{"ha":368,"x_min":0,"x_max":0,"o":"m 89 1039 l 182 1039 l 364 1235 l 213 1235 z m 215 0 l 215 996 l 93 996 l 93 0 z "},"Ľ":{"ha":772,"x_min":0,"x_max":0,"o":"m 240 118 l 240 996 l 106 996 l 106 0 l 746 0 l 746 118 z m 550 707 l 550 642 b 664 718 604 651 642 676 b 696 860 685 758 696 806 l 696 996 l 550 996 l 550 849 l 625 849 b 626 840 625 844 626 842 l 626 832 b 617 772 626 813 624 793 b 550 707 604 733 582 713 z "},"ľ":{"ha":365,"x_min":0,"x_max":0,"o":"m 175 0 l 175 996 l 53 996 l 53 0 z m 386 621 l 386 996 l 283 996 l 283 621 z "},"Ŀ":{"ha":772,"x_min":0,"x_max":0,"o":"m 240 118 l 240 996 l 106 996 l 106 0 l 746 0 l 746 118 z m 536 461 l 536 601 l 408 601 l 408 461 z "},"ŀ":{"ha":431,"x_min":0,"x_max":0,"o":"m 215 0 l 215 996 l 93 996 l 93 0 z m 428 483 l 428 624 l 300 624 l 300 483 z "},"Ń":{"ha":1003,"x_min":0,"x_max":0,"o":"m 443 1036 l 536 1036 l 718 1232 l 567 1232 z m 768 189 l 265 996 l 106 996 l 106 0 l 235 0 l 235 807 l 746 0 l 897 0 l 897 996 l 768 996 z "},"ń":{"ha":772,"x_min":0,"x_max":0,"o":"m 342 811 l 435 811 l 617 1008 l 465 1008 z m 206 624 l 206 726 l 89 726 l 89 0 l 211 0 l 211 381 b 221 490 211 428 215 464 b 260 564 228 515 240 540 b 349 624 286 594 315 614 b 419 633 367 631 390 633 b 538 565 476 633 517 610 b 557 458 550 538 557 501 l 557 0 l 682 0 l 682 465 b 651 635 682 539 671 596 b 443 743 615 707 546 743 b 315 715 396 743 353 733 b 206 624 276 696 240 665 z "},"Ň":{"ha":1003,"x_min":0,"x_max":0,"o":"m 308 1239 l 446 1043 l 575 1043 l 714 1239 l 603 1239 l 511 1108 l 419 1239 z m 768 189 l 265 996 l 106 996 l 106 0 l 235 0 l 235 807 l 746 0 l 897 0 l 897 996 l 768 996 z "},"ň":{"ha":772,"x_min":0,"x_max":0,"o":"m 222 1011 l 360 815 l 489 815 l 628 1011 l 517 1011 l 425 881 l 333 1011 z m 206 624 l 206 726 l 89 726 l 89 0 l 211 0 l 211 381 b 221 490 211 428 215 464 b 260 564 228 515 240 540 b 349 624 286 594 315 614 b 419 633 367 631 390 633 b 538 565 476 633 517 610 b 557 458 550 538 557 501 l 557 0 l 682 0 l 682 465 b 651 635 682 539 671 596 b 443 743 615 707 546 743 b 315 715 396 743 353 733 b 206 624 276 696 240 665 z "},"ŉ":{"ha":772,"x_min":0,"x_max":0,"o":"m 10 878 l 10 813 b 122 889 63 822 100 847 b 154 1031 144 929 154 976 l 154 1167 l 10 1167 l 10 1019 l 83 1019 b 86 1011 85 1015 85 1013 l 86 1003 b 75 943 86 983 82 964 b 10 878 63 904 40 883 z m 274 624 l 274 726 l 157 726 l 157 0 l 279 0 l 279 381 b 289 490 279 428 283 464 b 328 564 294 515 308 540 b 417 624 353 594 383 614 b 488 633 435 631 458 633 b 606 565 544 633 583 610 b 625 458 618 538 625 501 l 625 0 l 750 0 l 750 465 b 719 635 750 539 739 596 b 511 743 683 707 614 743 b 382 715 464 743 421 733 b 274 624 344 696 308 665 z "},"Ō":{"ha":1081,"x_min":0,"x_max":0,"o":"m 744 1100 l 744 1179 l 311 1179 l 311 1100 z m 926 854 b 536 1024 842 967 711 1024 b 154 839 368 1024 240 961 b 54 493 88 743 54 628 b 172 122 54 344 93 221 b 533 -29 260 22 379 -29 b 913 144 697 -29 824 29 b 1025 515 988 243 1025 367 b 926 854 1025 653 992 765 z m 808 219 b 550 92 754 135 668 92 b 278 206 424 92 333 129 b 194 485 222 281 194 374 b 292 797 194 622 226 726 b 544 903 357 868 440 903 b 796 796 650 903 733 868 b 888 514 857 725 888 631 b 808 219 888 403 861 304 z "},"ō":{"ha":772,"x_min":0,"x_max":0,"o":"m 586 832 l 586 911 l 153 911 l 153 832 z m 619 654 b 382 747 556 717 476 747 b 133 639 278 747 194 711 b 40 347 71 567 40 469 b 128 75 40 233 69 143 b 367 -26 188 7 267 -26 b 632 88 486 -26 575 11 b 717 378 689 165 717 261 b 619 654 717 500 685 592 z m 544 171 b 378 79 514 110 458 79 b 217 156 304 79 250 104 b 165 349 182 207 165 272 b 217 556 165 431 182 499 b 379 640 250 613 304 640 b 557 540 463 640 522 607 b 589 375 579 497 589 443 b 544 171 589 300 575 232 z "},"Ŏ":{"ha":1081,"x_min":0,"x_max":0,"o":"m 392 1285 l 322 1285 b 356 1178 326 1242 338 1206 b 528 1097 390 1125 449 1097 b 682 1142 593 1097 643 1113 b 751 1285 719 1171 743 1218 l 685 1285 b 653 1218 676 1256 667 1235 b 542 1179 628 1192 592 1179 b 424 1218 489 1179 449 1192 b 392 1285 410 1233 400 1256 z m 926 854 b 536 1024 842 967 711 1024 b 154 839 368 1024 240 961 b 54 493 88 743 54 628 b 172 122 54 344 93 221 b 533 -29 260 22 379 -29 b 913 144 697 -29 824 29 b 1025 515 988 243 1025 367 b 926 854 1025 653 992 765 z m 888 514 b 808 219 888 403 861 304 b 550 92 754 135 668 92 b 278 206 424 92 333 129 b 194 485 222 281 194 374 b 292 797 194 622 226 726 b 544 903 357 868 440 903 b 796 796 650 903 733 868 b 888 514 857 725 888 631 z "},"ŏ":{"ha":772,"x_min":0,"x_max":0,"o":"m 247 999 l 178 999 b 211 892 182 956 193 919 b 383 811 246 839 304 811 b 538 856 449 811 499 826 b 607 999 575 885 599 932 l 540 999 b 508 932 532 969 522 949 b 397 893 483 906 447 893 b 279 932 344 893 304 906 b 247 999 265 947 256 969 z m 717 378 b 619 654 717 500 685 592 b 382 747 556 717 476 747 b 133 639 278 747 194 711 b 40 347 71 567 40 469 b 128 75 40 233 69 143 b 367 -26 188 7 267 -26 b 632 88 486 -26 575 11 b 717 378 689 165 717 261 z m 589 375 b 544 171 589 300 575 232 b 378 79 514 110 458 79 b 217 156 304 79 250 104 b 165 349 182 207 165 272 b 217 556 165 431 182 499 b 379 640 250 613 304 640 b 557 540 463 640 522 607 b 589 375 579 497 589 443 z "},"Ő":{"ha":1081,"x_min":0,"x_max":0,"o":"m 449 1093 l 603 1290 l 456 1290 l 363 1093 z m 675 1093 l 826 1290 l 682 1290 l 589 1093 z m 926 854 b 536 1024 842 967 711 1024 b 154 839 368 1024 240 961 b 54 493 88 743 54 628 b 172 122 54 344 93 221 b 533 -29 260 22 379 -29 b 913 144 697 -29 824 29 b 1025 515 988 243 1025 367 b 926 854 1025 653 992 765 z m 808 219 b 550 92 754 135 668 92 b 278 206 424 92 333 129 b 194 485 222 281 194 374 b 292 797 194 622 226 726 b 544 903 357 868 440 903 b 796 796 650 903 733 868 b 888 514 857 725 888 631 b 808 219 888 403 861 304 z "},"ő":{"ha":772,"x_min":0,"x_max":0,"o":"m 271 835 l 425 1032 l 279 1032 l 186 835 z m 497 835 l 650 1032 l 504 1032 l 411 835 z m 619 654 b 382 747 556 717 476 747 b 133 639 278 747 194 711 b 40 347 71 567 40 469 b 128 75 40 233 69 143 b 367 -26 188 7 267 -26 b 632 88 486 -26 575 11 b 717 378 689 165 717 261 b 619 654 717 500 685 592 z m 544 171 b 378 79 514 110 458 79 b 217 156 304 79 250 104 b 165 349 182 207 165 272 b 217 556 165 431 182 499 b 379 640 250 613 304 640 b 557 540 463 640 522 607 b 589 375 579 497 589 443 b 544 171 589 300 575 232 z "},"Ŕ":{"ha":1003,"x_min":0,"x_max":0,"o":"m 346 1071 l 439 1071 l 619 1268 l 469 1268 z m 583 996 l 122 996 l 122 0 l 257 0 l 257 428 l 564 428 b 686 408 619 428 660 421 b 758 278 731 386 754 343 l 767 113 b 774 33 768 74 771 47 b 783 0 776 19 779 8 l 950 0 l 950 22 b 906 83 928 31 914 51 b 897 168 901 101 897 131 l 892 301 b 860 428 890 360 879 401 b 771 490 839 453 810 474 b 875 581 815 513 850 543 b 911 728 899 619 911 668 b 771 963 911 842 865 921 b 583 996 722 985 660 996 z m 569 540 l 257 540 l 257 881 l 586 881 b 697 860 633 881 669 874 b 775 715 749 835 775 786 b 719 578 775 649 756 603 b 569 540 682 553 632 540 z "},"ŕ":{"ha":463,"x_min":0,"x_max":0,"o":"m 97 821 l 192 821 l 372 1017 l 222 1017 z m 208 601 l 208 726 l 93 726 l 93 0 l 215 0 l 215 418 b 264 554 215 469 232 515 b 406 614 297 594 344 614 b 426 613 414 614 421 614 b 446 610 433 613 439 611 l 446 739 l 418 742 b 407 743 413 743 408 743 b 279 690 358 743 317 725 b 208 601 242 656 218 625 z "},"Ř":{"ha":1003,"x_min":0,"x_max":0,"o":"m 274 1251 l 411 1056 l 540 1056 l 678 1251 l 567 1251 l 475 1121 l 383 1251 z m 583 996 l 122 996 l 122 0 l 257 0 l 257 428 l 564 428 b 686 408 619 428 660 421 b 758 278 731 386 754 343 l 767 113 b 774 33 768 74 771 47 b 783 0 776 19 779 8 l 950 0 l 950 22 b 906 83 928 31 914 51 b 897 168 901 101 897 131 l 892 301 b 860 428 890 360 879 401 b 771 490 839 453 810 474 b 875 581 815 513 850 543 b 911 728 899 619 911 668 b 771 963 911 842 865 921 b 583 996 722 985 660 996 z m 569 540 l 257 540 l 257 881 l 586 881 b 697 860 633 881 669 874 b 775 715 749 835 775 786 b 719 578 775 649 756 603 b 569 540 682 553 632 540 z "},"ř":{"ha":463,"x_min":0,"x_max":0,"o":"m 44 1013 l 182 817 l 311 817 l 450 1013 l 339 1013 l 247 882 l 156 1013 z m 208 601 l 208 726 l 93 726 l 93 0 l 215 0 l 215 418 b 264 554 215 469 232 515 b 406 614 297 594 344 614 b 426 613 414 614 421 614 b 446 610 433 613 439 611 l 446 739 l 418 742 b 407 743 413 743 408 743 b 279 690 358 743 317 725 b 208 601 242 656 218 625 z "},"Ś":{"ha":926,"x_min":0,"x_max":0,"o":"m 363 1086 l 456 1086 l 636 1282 l 486 1282 z m 194 321 l 67 321 b 171 65 65 214 100 129 b 461 -29 240 3 338 -29 b 742 42 568 -29 661 -6 b 861 279 821 89 861 168 b 767 482 861 368 829 435 b 610 544 729 508 678 529 l 471 576 b 289 631 376 599 317 617 b 229 738 249 653 229 689 b 281 854 229 782 246 821 b 453 904 315 888 374 904 b 663 826 550 904 621 879 b 706 704 685 799 699 757 l 832 704 b 724 946 832 814 796 896 b 457 1021 650 996 561 1021 b 193 935 343 1021 256 993 b 100 715 132 878 100 804 b 196 528 100 632 132 569 b 382 463 232 504 294 482 l 518 432 b 679 374 590 415 644 396 b 729 257 713 350 729 311 b 608 107 729 185 690 135 b 471 85 568 92 521 85 b 233 183 357 85 279 118 b 194 321 210 219 197 265 z "},"ś":{"ha":694,"x_min":0,"x_max":0,"o":"m 254 836 l 347 836 l 529 1032 l 378 1032 z m 163 228 l 44 228 b 117 46 49 156 72 94 b 347 -28 163 -3 239 -28 b 571 43 447 -28 521 -4 b 644 210 619 89 644 146 b 574 357 644 278 621 326 b 397 419 543 376 485 399 l 317 439 b 236 468 281 447 254 457 b 189 544 204 488 189 513 b 225 614 189 574 201 597 b 329 640 249 632 283 640 b 475 593 399 640 447 625 b 504 518 492 571 503 546 l 619 518 b 576 649 621 564 607 608 b 339 746 528 714 449 746 b 140 682 256 746 189 724 b 65 515 90 639 65 583 b 144 378 65 457 92 411 b 281 326 174 358 219 342 l 378 301 b 482 267 431 289 464 278 b 524 196 510 251 524 228 b 472 106 524 154 507 125 b 353 75 438 86 399 75 b 193 135 276 75 224 94 b 163 228 175 156 165 188 z "},"Ŝ":{"ha":926,"x_min":0,"x_max":0,"o":"m 551 1086 l 663 1086 l 524 1282 l 396 1282 l 258 1086 l 368 1086 l 460 1217 z m 194 321 l 67 321 b 171 65 65 214 100 129 b 461 -29 240 3 338 -29 b 742 42 568 -29 661 -6 b 861 279 821 89 861 168 b 767 482 861 368 829 435 b 610 544 729 508 678 529 l 471 576 b 289 631 376 599 317 617 b 229 738 249 653 229 689 b 281 854 229 782 246 821 b 453 904 315 888 374 904 b 663 826 550 904 621 879 b 706 704 685 799 699 757 l 832 704 b 724 946 832 814 796 896 b 457 1021 650 996 561 1021 b 193 935 343 1021 256 993 b 100 715 132 878 100 804 b 196 528 100 632 132 569 b 382 463 232 504 294 482 l 518 432 b 679 374 590 415 644 396 b 729 257 713 350 729 311 b 608 107 729 185 690 135 b 471 85 568 92 521 85 b 233 183 357 85 279 118 b 194 321 210 219 197 265 z "},"ŝ":{"ha":694,"x_min":0,"x_max":0,"o":"m 443 815 l 554 815 l 415 1011 l 288 1011 l 149 815 l 260 815 l 351 946 z m 163 228 l 44 228 b 117 46 49 156 72 94 b 347 -28 163 -3 239 -28 b 571 43 447 -28 521 -4 b 644 210 619 89 644 146 b 574 357 644 278 621 326 b 397 419 543 376 485 399 l 317 439 b 236 468 281 447 254 457 b 189 544 204 488 189 513 b 225 614 189 574 201 597 b 329 640 249 632 283 640 b 475 593 399 640 447 625 b 504 518 492 571 503 546 l 619 518 b 576 649 621 564 607 608 b 339 746 528 714 449 746 b 140 682 256 746 189 724 b 65 515 90 639 65 583 b 144 378 65 457 92 411 b 281 326 174 358 219 342 l 378 301 b 482 267 431 289 464 278 b 524 196 510 251 524 228 b 472 106 524 154 507 125 b 353 75 438 86 399 75 b 193 135 276 75 224 94 b 163 228 175 156 165 188 z "},"Ţ":{"ha":849,"x_min":0,"x_max":0,"o":"m 489 0 l 494 0 l 494 878 l 831 878 l 831 996 l 22 996 l 22 878 l 358 878 l 358 0 l 424 0 l 335 -121 l 358 -149 b 388 -140 369 -144 379 -142 b 414 -137 394 -137 404 -137 b 463 -153 433 -137 450 -143 b 479 -190 474 -164 479 -176 b 444 -242 479 -215 468 -232 b 401 -250 432 -247 418 -250 b 350 -242 386 -250 369 -247 l 311 -229 l 288 -283 b 346 -303 311 -292 331 -299 b 419 -312 371 -310 396 -312 b 544 -275 476 -312 518 -300 b 585 -186 572 -250 585 -221 b 554 -108 585 -153 575 -126 b 476 -81 533 -90 508 -81 b 425 -87 456 -81 438 -83 z "},"ţ":{"ha":386,"x_min":0,"x_max":0,"o":"m 388 -112 b 308 -85 367 -93 340 -85 b 258 -90 288 -85 271 -86 l 318 -7 b 353 0 331 -6 342 -3 l 353 96 b 329 94 344 96 336 94 l 311 94 b 263 101 289 94 272 97 b 238 153 246 111 238 128 l 238 626 l 353 626 l 353 726 l 238 726 l 238 929 l 114 929 l 114 726 l 15 726 l 15 626 l 114 626 l 114 146 b 144 32 114 99 124 61 b 250 -11 164 4 199 -10 l 168 -124 l 192 -151 b 219 -143 203 -147 211 -144 b 246 -140 228 -142 236 -140 b 294 -157 265 -140 282 -146 b 313 -194 306 -167 313 -179 b 276 -246 313 -219 300 -236 b 233 -253 264 -250 250 -253 b 183 -246 218 -253 201 -250 b 143 -232 174 -243 160 -237 l 119 -287 b 178 -306 144 -296 164 -303 b 253 -317 203 -312 229 -317 b 376 -279 308 -317 350 -304 b 418 -190 404 -254 418 -225 b 388 -112 418 -156 407 -131 z "},"Ť":{"ha":849,"x_min":0,"x_max":0,"o":"m 229 1267 l 367 1071 l 494 1071 l 633 1267 l 522 1267 l 431 1136 l 339 1267 z m 494 878 l 831 878 l 831 996 l 22 996 l 22 878 l 358 878 l 358 0 l 494 0 z "},"ť":{"ha":500,"x_min":0,"x_max":0,"o":"m 356 842 l 356 778 b 468 853 410 788 447 813 b 501 994 490 894 501 942 l 501 1132 l 356 1132 l 356 983 l 431 983 b 432 976 431 981 432 978 l 432 967 b 422 908 432 949 429 928 b 356 842 408 869 388 847 z m 238 726 l 238 929 l 114 929 l 114 726 l 15 726 l 15 626 l 114 626 l 114 146 b 144 32 114 99 124 61 b 260 -11 165 3 203 -11 b 310 -8 278 -11 294 -11 b 353 0 325 -7 339 -4 l 353 96 b 329 94 344 96 336 94 l 311 94 b 263 101 289 94 272 97 b 238 153 246 111 238 128 l 238 626 l 353 626 l 353 726 z "},"Ŧ":{"ha":849,"x_min":0,"x_max":0,"o":"m 494 878 l 831 878 l 831 996 l 22 996 l 22 878 l 358 878 l 358 546 l 221 546 l 221 465 l 358 465 l 358 0 l 494 0 l 494 465 l 654 465 l 654 546 l 494 546 z "},"ŧ":{"ha":444,"x_min":0,"x_max":0,"o":"m 238 426 l 414 426 l 414 507 l 238 507 l 238 626 l 353 626 l 353 726 l 238 726 l 238 929 l 114 929 l 114 726 l 15 726 l 15 626 l 114 626 l 114 507 l -21 507 l -21 426 l 114 426 l 114 146 b 144 32 114 99 124 61 b 260 -11 165 3 203 -11 b 310 -8 278 -11 294 -11 b 353 0 325 -7 339 -4 l 353 96 b 329 94 344 96 336 94 l 311 94 b 263 101 289 94 272 97 b 238 153 246 111 238 128 z "},"Ũ":{"ha":1003,"x_min":0,"x_max":0,"o":"m 543 1190 b 468 1218 511 1204 486 1214 b 417 1225 449 1222 432 1225 b 301 1163 365 1225 328 1204 b 272 1075 289 1140 279 1111 l 339 1075 b 360 1122 343 1096 350 1113 b 399 1138 371 1132 383 1138 b 438 1132 411 1138 425 1136 l 490 1115 l 525 1101 b 567 1090 538 1097 550 1093 b 604 1085 582 1086 594 1085 b 693 1117 636 1085 665 1096 b 747 1236 719 1139 738 1178 l 676 1236 b 664 1197 674 1218 669 1206 b 610 1174 653 1182 635 1174 b 578 1178 599 1174 588 1175 b 543 1190 568 1182 556 1186 z m 253 381 l 253 996 l 115 996 l 115 436 b 165 154 115 314 132 219 b 507 -26 225 33 339 -26 b 850 154 675 -26 790 33 b 900 436 883 219 900 314 l 900 996 l 763 996 l 763 381 b 729 208 763 308 753 251 b 496 92 689 131 611 92 b 293 200 401 92 333 128 b 253 381 265 249 253 308 z "},"ũ":{"ha":772,"x_min":0,"x_max":0,"o":"m 397 938 b 322 964 365 951 340 960 b 271 971 303 969 286 971 b 156 908 219 971 182 950 b 126 821 143 886 133 857 l 193 821 b 214 868 197 842 204 858 b 253 885 225 879 238 885 b 292 879 265 885 279 882 b 344 861 306 875 322 868 l 379 849 b 421 836 392 843 406 839 b 458 831 436 833 449 831 b 547 864 490 831 521 842 b 601 982 574 885 592 925 l 531 982 b 518 943 528 965 524 953 b 464 919 507 928 489 919 b 432 925 453 919 442 921 b 397 938 422 928 410 932 z m 211 244 l 211 726 l 86 726 l 86 232 b 117 85 86 171 97 121 b 329 -19 154 15 225 -19 b 499 38 396 -19 451 0 b 557 107 522 57 542 79 l 556 0 l 671 0 l 671 726 l 550 726 l 550 369 b 524 203 550 299 542 243 b 350 88 493 126 435 88 b 229 153 292 88 251 110 b 211 244 218 176 211 207 z "},"Ū":{"ha":1003,"x_min":0,"x_max":0,"o":"m 735 1065 l 735 1146 l 301 1146 l 301 1065 z m 253 381 l 253 996 l 115 996 l 115 436 b 165 154 115 314 132 219 b 507 -26 225 33 339 -26 b 850 154 675 -26 790 33 b 900 436 883 219 900 314 l 900 996 l 763 996 l 763 381 b 729 208 763 308 753 251 b 496 92 689 131 611 92 b 293 200 401 92 333 128 b 253 381 265 249 253 308 z "},"ū":{"ha":772,"x_min":0,"x_max":0,"o":"m 594 821 l 594 901 l 160 901 l 160 821 z m 211 244 l 211 726 l 86 726 l 86 232 b 117 85 86 171 97 121 b 329 -19 154 15 225 -19 b 499 38 396 -19 451 0 b 557 107 522 57 542 79 l 556 0 l 671 0 l 671 726 l 550 726 l 550 369 b 524 203 550 299 542 243 b 350 88 493 126 435 88 b 229 153 292 88 251 110 b 211 244 218 176 211 207 z "},"Ŭ":{"ha":1003,"x_min":0,"x_max":0,"o":"m 365 1232 l 296 1232 b 329 1125 300 1189 311 1153 b 501 1044 364 1071 421 1044 b 654 1089 565 1044 617 1060 b 724 1232 692 1118 715 1165 l 657 1232 b 625 1165 650 1203 639 1182 b 515 1126 601 1139 564 1126 b 397 1165 461 1126 422 1139 b 365 1232 382 1181 372 1203 z m 253 381 l 253 996 l 115 996 l 115 436 b 165 154 115 314 132 219 b 507 -26 225 33 339 -26 b 850 154 675 -26 790 33 b 900 436 883 219 900 314 l 900 996 l 763 996 l 763 381 b 729 208 763 308 753 251 b 496 92 689 131 611 92 b 293 200 401 92 333 128 b 253 381 265 249 253 308 z "},"ŭ":{"ha":772,"x_min":0,"x_max":0,"o":"m 244 986 l 175 986 b 208 879 179 943 190 907 b 381 799 243 825 301 799 b 535 842 446 799 496 813 b 604 986 572 871 596 919 l 538 986 b 506 919 529 957 519 935 b 394 879 481 893 444 879 b 276 919 342 879 301 893 b 244 986 263 935 253 957 z m 211 244 l 211 726 l 86 726 l 86 232 b 117 85 86 171 97 121 b 329 -19 154 15 225 -19 b 499 38 396 -19 451 0 b 557 107 522 57 542 79 l 556 0 l 671 0 l 671 726 l 550 726 l 550 369 b 524 203 550 299 542 243 b 350 88 493 126 435 88 b 229 153 292 88 251 110 b 211 244 218 176 211 207 z "},"Ů":{"ha":1003,"x_min":0,"x_max":0,"o":"m 524 1325 b 425 1283 486 1325 453 1311 b 383 1183 397 1256 383 1221 b 425 1083 383 1144 397 1111 b 524 1042 453 1056 486 1042 b 625 1083 563 1042 597 1056 b 665 1183 653 1111 665 1144 b 625 1283 665 1221 653 1256 b 524 1325 597 1311 563 1325 z m 524 1097 b 464 1122 501 1097 482 1106 b 439 1183 447 1139 439 1158 b 464 1243 439 1207 447 1226 b 524 1268 482 1260 501 1268 b 585 1243 549 1268 568 1260 b 610 1183 601 1226 610 1207 b 585 1122 610 1158 601 1139 b 524 1097 568 1106 549 1097 z m 253 381 l 253 996 l 115 996 l 115 436 b 165 154 115 314 132 219 b 507 -26 225 33 339 -26 b 850 154 675 -26 790 33 b 900 436 883 219 900 314 l 900 996 l 763 996 l 763 381 b 729 208 763 308 753 251 b 496 92 689 131 611 92 b 293 200 401 92 333 128 b 253 381 265 249 253 308 z "},"ů":{"ha":772,"x_min":0,"x_max":0,"o":"m 389 1033 b 289 992 350 1033 317 1019 b 247 892 261 964 247 931 b 289 792 247 853 261 819 b 389 750 317 764 350 750 b 489 792 428 750 461 764 b 531 892 517 819 531 853 b 489 992 531 931 517 964 b 389 1033 461 1019 428 1033 z m 389 807 b 329 832 365 807 346 814 b 304 892 313 849 304 868 b 329 953 304 915 313 935 b 389 978 346 969 365 978 b 449 953 413 978 432 969 b 474 892 465 935 474 915 b 449 832 474 868 465 849 b 389 807 432 814 413 807 z m 211 244 l 211 726 l 86 726 l 86 232 b 117 85 86 171 97 121 b 329 -19 154 15 225 -19 b 499 38 396 -19 451 0 b 557 107 522 57 542 79 l 556 0 l 671 0 l 671 726 l 550 726 l 550 369 b 524 203 550 299 542 243 b 350 88 493 126 435 88 b 229 153 292 88 251 110 b 211 244 218 176 211 207 z "},"Ű":{"ha":1003,"x_min":0,"x_max":0,"o":"m 399 1065 l 551 1263 l 406 1263 l 313 1065 z m 625 1065 l 776 1263 l 632 1263 l 539 1065 z m 253 381 l 253 996 l 115 996 l 115 436 b 165 154 115 314 132 219 b 507 -26 225 33 339 -26 b 850 154 675 -26 790 33 b 900 436 883 219 900 314 l 900 996 l 763 996 l 763 381 b 729 208 763 308 753 251 b 496 92 689 131 611 92 b 293 200 401 92 333 128 b 253 381 265 249 253 308 z "},"ű":{"ha":772,"x_min":0,"x_max":0,"o":"m 272 824 l 426 1021 l 279 1021 l 186 824 z m 499 824 l 650 1021 l 506 1021 l 413 824 z m 211 244 l 211 726 l 86 726 l 86 232 b 117 85 86 171 97 121 b 329 -19 154 15 225 -19 b 499 38 396 -19 451 0 b 557 107 522 57 542 79 l 556 0 l 671 0 l 671 726 l 550 726 l 550 369 b 524 203 550 299 542 243 b 350 88 493 126 435 88 b 229 153 292 88 251 110 b 211 244 218 176 211 207 z "},"Ų":{"ha":1003,"x_min":0,"x_max":0,"o":"m 900 996 l 763 996 l 763 381 b 729 208 763 308 753 251 b 496 92 689 131 611 92 b 293 200 401 92 333 128 b 253 381 265 249 253 308 l 253 996 l 115 996 l 115 436 b 165 154 115 314 132 219 b 454 -25 218 47 315 -12 b 367 -97 415 -51 386 -76 b 326 -197 340 -126 326 -160 b 363 -282 326 -229 339 -257 b 463 -319 385 -307 418 -319 b 531 -311 486 -319 508 -318 b 571 -297 543 -308 556 -303 l 571 -208 b 546 -219 563 -212 553 -217 b 517 -222 539 -221 528 -222 b 464 -204 493 -222 475 -217 b 446 -161 451 -192 446 -178 b 460 -114 446 -143 450 -128 b 524 -51 468 -99 490 -78 l 556 -25 b 850 154 697 -14 796 46 b 900 436 883 219 900 314 z "},"ų":{"ha":772,"x_min":0,"x_max":0,"o":"m 622 -31 l 658 0 l 671 0 l 671 726 l 550 726 l 550 369 b 524 203 550 299 542 243 b 350 88 493 126 435 88 b 229 153 292 88 251 110 b 211 244 218 176 211 207 l 211 726 l 86 726 l 86 232 b 117 85 86 171 97 121 b 329 -19 154 15 225 -19 b 499 38 396 -19 451 0 b 557 107 522 57 542 79 l 556 0 l 558 0 b 464 -78 517 -29 485 -54 b 425 -176 438 -107 425 -140 b 461 -261 425 -208 436 -236 b 560 -300 483 -287 517 -300 b 629 -290 583 -300 607 -297 b 669 -276 640 -287 654 -283 l 669 -187 b 644 -199 661 -193 651 -197 b 614 -203 636 -201 626 -203 b 563 -183 592 -203 574 -196 b 544 -140 550 -172 544 -157 b 558 -93 544 -122 549 -107 b 622 -31 567 -79 589 -58 z "},"Ŵ":{"ha":1311,"x_min":0,"x_max":0,"o":"m 757 1082 l 868 1082 l 729 1278 l 601 1278 l 463 1082 l 574 1082 l 665 1213 z m 585 996 l 360 186 l 172 996 l 25 996 l 286 0 l 428 0 l 658 826 l 889 0 l 1031 0 l 1292 996 l 1144 996 l 956 186 l 731 996 z "},"ŵ":{"ha":1003,"x_min":0,"x_max":0,"o":"m 592 822 l 703 822 l 565 1018 l 436 1018 l 299 822 l 408 822 l 500 953 z m 428 726 l 286 154 l 146 726 l 13 726 l 222 0 l 349 0 l 492 563 l 639 0 l 767 0 l 978 726 l 856 726 l 707 157 l 564 726 z "},"Ŷ":{"ha":926,"x_min":0,"x_max":0,"o":"m 574 1079 l 685 1079 l 547 1275 l 418 1275 l 281 1079 l 390 1079 l 482 1210 z m 472 518 l 186 996 l 29 996 l 406 401 l 406 0 l 540 0 l 540 401 l 917 996 l 758 996 z "},"ŷ":{"ha":694,"x_min":0,"x_max":0,"o":"m 444 818 l 556 818 l 417 1014 l 289 1014 l 150 818 l 261 818 l 353 949 z m 678 726 l 543 726 l 347 135 l 153 726 l 14 726 l 283 -21 l 253 -96 b 228 -151 238 -129 231 -147 b 201 -179 221 -162 211 -172 b 151 -190 190 -186 174 -190 b 126 -187 144 -190 136 -189 b 81 -176 117 -186 101 -183 l 81 -289 b 115 -296 93 -292 106 -294 b 154 -297 124 -297 138 -297 b 303 -236 225 -297 274 -278 b 453 103 332 -196 382 -83 b 564 407 482 181 519 283 b 678 726 622 574 661 679 z "},"Ź":{"ha":849,"x_min":0,"x_max":0,"o":"m 385 1054 l 479 1054 l 660 1250 l 510 1250 z m 76 878 l 643 878 l 32 113 l 32 0 l 817 0 l 817 118 l 203 118 l 817 881 l 817 996 l 76 996 z "},"ź":{"ha":694,"x_min":0,"x_max":0,"o":"m 275 825 l 369 825 l 550 1021 l 400 1021 z m 67 617 l 465 617 l 35 96 l 35 0 l 643 0 l 643 110 l 203 110 l 631 626 l 631 726 l 67 726 z "},"Ż":{"ha":849,"x_min":0,"x_max":0,"o":"m 511 1092 l 511 1232 l 383 1232 l 383 1092 z m 76 878 l 643 878 l 32 113 l 32 0 l 817 0 l 817 118 l 203 118 l 817 881 l 817 996 l 76 996 z "},"ż":{"ha":694,"x_min":0,"x_max":0,"o":"m 422 839 l 422 981 l 296 981 l 296 839 z m 67 617 l 465 617 l 35 96 l 35 0 l 643 0 l 643 110 l 203 110 l 631 626 l 631 726 l 67 726 z "},"Ș":{"ha":926,"x_min":0,"x_max":0,"o":"m 194 321 l 67 321 b 171 65 65 214 100 129 b 461 -29 240 3 338 -29 b 742 42 568 -29 661 -6 b 861 279 821 89 861 168 b 767 482 861 368 829 435 b 610 544 729 508 678 529 l 471 576 b 289 631 376 599 317 617 b 229 738 249 653 229 689 b 281 854 229 782 246 821 b 453 904 315 888 374 904 b 663 826 550 904 621 879 b 706 704 685 799 699 757 l 832 704 b 724 946 832 814 796 896 b 457 1021 650 996 561 1021 b 193 935 343 1021 256 993 b 100 715 132 878 100 804 b 196 528 100 632 132 569 b 382 463 232 504 294 482 l 518 432 b 679 374 590 415 644 396 b 729 257 713 350 729 311 b 608 107 729 185 690 135 b 471 85 568 92 521 85 b 233 183 357 85 279 118 b 194 321 210 219 197 265 z m 401 -351 l 401 -404 b 492 -343 444 -396 474 -376 b 518 -231 508 -311 518 -272 l 518 -121 l 401 -121 l 401 -239 l 461 -239 b 463 -246 461 -242 463 -243 l 463 -253 b 454 -300 463 -268 460 -283 b 401 -351 444 -331 426 -347 z "},"ș":{"ha":694,"x_min":0,"x_max":0,"o":"m 163 228 l 44 228 b 117 46 49 156 72 94 b 347 -28 163 -3 239 -28 b 571 43 447 -28 521 -4 b 644 210 619 89 644 146 b 574 357 644 278 621 326 b 397 419 543 376 485 399 l 317 439 b 236 468 281 447 254 457 b 189 544 204 488 189 513 b 225 614 189 574 201 597 b 329 640 249 632 283 640 b 475 593 399 640 447 625 b 504 518 492 571 503 546 l 619 518 b 576 649 621 564 607 608 b 339 746 528 714 449 746 b 140 682 256 746 189 724 b 65 515 90 639 65 583 b 144 378 65 457 92 411 b 281 326 174 358 219 342 l 378 301 b 482 267 431 289 464 278 b 524 196 510 251 524 228 b 472 106 524 154 507 125 b 353 75 438 86 399 75 b 193 135 276 75 224 94 b 163 228 175 156 165 188 z m 283 -350 l 283 -403 b 374 -342 325 -394 356 -375 b 399 -229 390 -310 399 -271 l 399 -119 l 283 -119 l 283 -237 l 342 -237 l 344 -244 l 344 -251 b 336 -299 344 -267 342 -282 b 283 -350 325 -329 308 -347 z "},"Ț":{"ha":849,"x_min":0,"x_max":0,"o":"m 494 878 l 831 878 l 831 996 l 22 996 l 22 878 l 358 878 l 358 0 l 494 0 z m 365 -322 l 365 -375 b 456 -314 407 -367 438 -347 b 481 -201 472 -282 481 -243 l 481 -92 l 365 -92 l 365 -210 l 424 -210 l 426 -217 l 426 -224 b 418 -271 426 -239 424 -254 b 365 -322 407 -301 390 -318 z "},"ț":{"ha":386,"x_min":0,"x_max":0,"o":"m 238 726 l 238 929 l 114 929 l 114 726 l 15 726 l 15 626 l 114 626 l 114 146 b 144 32 114 99 124 61 b 260 -11 165 3 203 -11 b 310 -8 278 -11 294 -11 b 353 0 325 -7 339 -4 l 353 96 b 329 94 344 96 336 94 l 311 94 b 263 101 289 94 272 97 b 238 153 246 111 238 128 l 238 626 l 353 626 l 353 726 z m 126 -335 l 126 -386 b 217 -325 169 -378 199 -358 b 242 -212 233 -293 242 -256 l 242 -103 l 126 -103 l 126 -221 l 185 -221 b 186 -228 186 -224 186 -226 l 186 -235 b 178 -282 186 -250 183 -265 b 126 -335 168 -312 151 -329 z "},"¤":{"ha":772,"x_min":0,"x_max":0,"o":"m 208 714 l 115 807 l 51 743 l 146 651 b 104 574 129 628 115 601 b 88 474 93 546 88 513 b 103 385 88 443 93 413 b 146 307 113 357 126 331 l 51 214 l 115 147 l 208 242 b 299 194 240 218 271 203 b 382 182 326 186 354 182 b 471 197 413 182 443 188 b 551 240 499 207 525 221 l 644 149 l 708 214 l 614 307 b 663 390 638 333 654 361 b 675 472 671 419 675 446 b 661 565 675 506 671 538 b 614 647 650 594 635 621 l 708 743 l 644 807 l 551 713 b 472 756 526 731 500 746 b 375 771 444 767 411 771 b 288 757 343 771 314 767 b 208 714 260 747 233 732 z m 239 338 b 181 478 201 376 181 424 b 239 618 181 533 201 579 b 381 676 278 657 325 676 b 521 619 433 676 481 657 b 579 478 558 581 579 533 b 521 336 579 421 558 374 b 381 279 481 299 433 279 b 239 338 325 279 278 299 z "},"̀":{"ha":0,"x_min":0,"x_max":0,"o":"m -524 1018 l -342 822 l -249 822 l -372 1018 z "},"́":{"ha":0,"x_min":0,"x_max":0,"o":"m -524 822 l -431 822 l -249 1018 l -400 1018 z "},"̂":{"ha":0,"x_min":0,"x_max":0,"o":"m -294 822 l -183 822 l -322 1018 l -451 1018 l -589 822 l -478 822 l -386 953 z "},"̃":{"ha":0,"x_min":0,"x_max":0,"o":"m -353 951 b -429 979 -385 965 -410 974 b -481 985 -447 983 -464 985 b -594 924 -531 985 -569 964 b -624 836 -608 900 -618 871 l -557 836 b -537 883 -554 857 -547 872 b -497 899 -526 893 -514 899 b -460 893 -485 899 -472 897 b -407 875 -446 889 -428 883 l -371 863 b -331 850 -360 858 -346 854 b -292 844 -315 847 -303 844 b -204 878 -261 844 -231 856 b -149 996 -176 899 -158 939 l -221 996 b -232 957 -222 979 -226 967 b -287 933 -243 942 -261 933 b -318 939 -297 933 -308 935 b -353 951 -329 942 -340 946 z "},"̄":{"ha":0,"x_min":0,"x_max":0,"o":"m -169 869 l -169 950 l -604 950 l -604 869 z "},"̆":{"ha":0,"x_min":0,"x_max":0,"o":"m -532 1017 l -601 1017 b -568 910 -597 974 -586 938 b -396 829 -533 857 -475 829 b -243 874 -331 829 -281 844 b -172 1017 -204 903 -181 951 l -239 1017 b -271 951 -247 988 -257 967 b -382 911 -296 925 -332 911 b -500 951 -435 911 -475 925 b -532 1017 -514 965 -524 988 z "},"̇":{"ha":0,"x_min":0,"x_max":0,"o":"m -322 839 l -322 981 l -450 981 l -450 839 z "},"̈":{"ha":0,"x_min":0,"x_max":0,"o":"m -435 839 l -435 981 l -561 981 l -561 839 z m -211 839 l -211 981 l -337 981 l -337 839 z "},"̊":{"ha":0,"x_min":0,"x_max":0,"o":"m -386 1103 b -486 1061 -425 1103 -458 1089 b -528 961 -514 1033 -528 1000 b -486 861 -528 922 -514 889 b -386 819 -458 833 -425 819 b -287 861 -347 819 -315 833 b -244 961 -260 889 -244 922 b -287 1061 -244 1000 -260 1033 b -386 1103 -315 1089 -347 1103 z m -386 875 b -446 900 -410 875 -429 883 b -471 961 -462 918 -471 938 b -446 1021 -471 985 -462 1004 b -386 1046 -429 1039 -410 1046 b -326 1021 -362 1046 -343 1039 b -301 961 -310 1004 -301 985 b -326 900 -301 938 -310 918 b -386 875 -343 883 -362 875 z "},"̋":{"ha":0,"x_min":0,"x_max":0,"o":"m -533 821 l -379 1018 l -525 1018 l -618 821 z m -307 821 l -154 1018 l -300 1018 l -393 821 z "},"̌":{"ha":0,"x_min":0,"x_max":0,"o":"m -589 1018 l -451 822 l -322 822 l -183 1018 l -294 1018 l -386 889 l -478 1018 z "},"̦":{"ha":0,"x_min":0,"x_max":0,"o":"m -460 -378 l -460 -442 b -350 -374 -410 -436 -374 -412 b -314 -225 -326 -332 -314 -283 l -314 -89 l -460 -89 l -460 -236 l -385 -236 b -383 -246 -385 -240 -383 -243 l -383 -254 b -403 -336 -383 -285 -390 -312 b -460 -378 -415 -360 -435 -375 z "},"̧":{"ha":0,"x_min":0,"x_max":0,"o":"m -397 -87 l -333 0 l -400 0 l -487 -121 l -464 -149 b -436 -140 -453 -144 -443 -142 b -408 -137 -428 -137 -419 -137 b -361 -153 -389 -137 -374 -143 b -343 -190 -349 -164 -343 -176 b -378 -242 -343 -215 -354 -232 b -422 -250 -390 -247 -406 -250 b -472 -242 -436 -250 -454 -247 l -512 -229 l -536 -283 b -478 -303 -511 -292 -492 -299 b -403 -312 -451 -310 -426 -312 b -278 -275 -347 -312 -306 -300 b -237 -186 -251 -250 -237 -221 b -268 -108 -237 -153 -247 -126 b -347 -81 -289 -90 -315 -81 b -397 -87 -368 -81 -385 -83 z "},"̨":{"ha":0,"x_min":0,"x_max":0,"o":"m -312 -32 l -272 0 l -372 0 b -469 -79 -417 -29 -449 -56 b -508 -178 -496 -108 -508 -142 b -474 -264 -508 -210 -497 -239 b -374 -301 -450 -289 -417 -301 b -304 -293 -350 -301 -326 -299 l -264 -279 l -264 -190 l -289 -201 b -319 -204 -297 -203 -307 -204 b -372 -186 -343 -204 -360 -199 b -390 -143 -383 -174 -390 -160 b -376 -94 -390 -125 -385 -110 b -312 -32 -367 -81 -346 -60 z "},"̸":{"ha":0,"x_min":0,"x_max":0,"o":"m -493 0 l -176 996 l -281 996 l -596 0 z "},"Đ":{"ha":1003,"x_min":0,"x_max":0,"o":"m 113 996 l 113 586 l 22 586 l 22 465 l 113 465 l 113 0 l 514 0 b 872 219 682 0 801 74 b 935 515 914 306 935 404 b 853 826 935 639 908 743 b 493 996 778 939 658 996 z m 532 465 l 532 586 l 247 586 l 247 881 l 488 881 b 724 778 596 881 675 846 b 797 490 774 710 797 614 b 788 386 797 458 794 424 b 729 232 776 322 756 271 b 601 129 696 181 653 147 b 489 115 572 119 533 115 l 247 115 l 247 465 z "},"Ģ":{"ha":1081,"x_min":0,"x_max":0,"o":"m 779 968 b 536 1022 711 1004 631 1022 b 203 881 400 1022 289 975 b 67 483 113 782 67 650 b 206 88 67 315 114 183 b 511 -26 290 11 393 -26 b 736 24 603 -26 678 -10 b 858 128 772 43 813 78 l 890 0 l 978 0 l 978 533 l 540 533 l 540 421 l 851 421 b 761 168 850 304 821 221 b 538 89 703 115 628 89 b 283 201 421 89 336 126 b 206 490 232 275 206 372 b 300 800 206 628 238 731 b 533 903 364 868 440 903 b 726 854 611 903 675 888 b 828 694 778 821 811 767 l 961 694 b 779 968 939 825 878 915 z m 468 -399 l 468 -462 b 581 -387 521 -454 558 -429 b 613 -246 603 -347 613 -300 l 613 -110 l 468 -110 l 468 -257 l 542 -257 b 544 -265 543 -261 543 -262 l 544 -274 b 533 -333 544 -293 540 -312 b 468 -399 521 -372 499 -393 z "},"ģ":{"ha":772,"x_min":0,"x_max":0,"o":"m 450 1133 l 450 1197 b 338 1122 397 1188 360 1163 b 306 981 317 1082 306 1035 l 306 843 l 450 843 l 450 992 l 376 992 b 375 1000 375 994 375 997 l 375 1008 b 385 1068 375 1028 378 1047 b 450 1133 397 1106 419 1128 z m 494 697 b 346 739 453 725 403 739 b 131 636 261 739 190 706 b 42 351 71 568 42 474 b 131 75 42 224 71 131 b 336 -8 189 19 258 -8 b 472 18 393 -8 438 0 b 561 101 507 36 536 64 b 538 -107 563 1 554 -68 b 353 -206 508 -174 447 -206 b 224 -165 294 -206 251 -193 b 188 -90 206 -147 194 -122 l 64 -90 b 153 -256 69 -165 100 -219 b 350 -307 207 -289 272 -307 b 638 -160 492 -307 586 -258 b 678 58 665 -106 678 -33 l 678 719 l 565 719 l 565 628 b 494 697 542 658 518 682 z m 510 567 b 565 367 547 522 565 457 b 536 210 565 307 556 254 b 350 90 500 131 438 90 b 217 156 294 90 250 113 b 167 342 183 199 167 260 b 192 511 167 411 175 468 b 368 632 224 592 282 632 b 510 567 426 632 472 610 z "},"Ļ":{"ha":772,"x_min":0,"x_max":0,"o":"m 240 118 l 240 996 l 106 996 l 106 0 l 746 0 l 746 118 z m 353 -365 l 353 -429 b 465 -354 406 -419 443 -394 b 497 -212 488 -314 497 -265 l 497 -75 l 353 -75 l 353 -224 l 426 -224 b 429 -232 428 -226 428 -229 l 429 -240 b 418 -299 429 -260 425 -279 b 353 -365 406 -337 383 -360 z "},"ļ":{"ha":308,"x_min":0,"x_max":0,"o":"m 215 0 l 215 996 l 93 996 l 93 0 z m 96 -365 l 96 -429 b 208 -354 150 -419 188 -394 b 242 -212 231 -314 242 -265 l 242 -75 l 96 -75 l 96 -224 l 171 -224 b 172 -232 171 -226 172 -229 l 172 -240 b 163 -299 172 -260 169 -279 b 96 -365 149 -337 128 -360 z "},"Ķ":{"ha":926,"x_min":0,"x_max":0,"o":"m 238 511 l 238 996 l 106 996 l 106 0 l 238 0 l 238 347 l 397 500 l 746 0 l 921 0 l 494 594 l 910 996 l 724 996 z m 353 -351 l 353 -415 b 465 -340 406 -406 443 -381 b 497 -199 488 -300 497 -253 l 497 -61 l 353 -61 l 353 -210 l 426 -210 b 429 -218 428 -212 428 -215 l 429 -226 b 418 -286 429 -246 425 -265 b 353 -351 406 -324 383 -346 z "},"ķ":{"ha":694,"x_min":0,"x_max":0,"o":"m 204 418 l 204 996 l 86 996 l 86 0 l 204 0 l 204 272 l 307 367 l 533 0 l 689 0 l 396 454 l 674 726 l 518 726 z m 285 -358 l 285 -422 b 397 -347 339 -412 376 -387 b 431 -206 419 -307 431 -260 l 431 -68 l 285 -68 l 285 -217 l 358 -217 b 361 -225 360 -219 360 -222 l 361 -233 b 350 -292 361 -253 357 -272 b 285 -358 338 -331 317 -353 z "},"Ņ":{"ha":1003,"x_min":0,"x_max":0,"o":"m 768 189 l 265 996 l 106 996 l 106 0 l 235 0 l 235 807 l 746 0 l 897 0 l 897 996 l 768 996 z m 399 -372 l 399 -436 b 511 -361 453 -426 490 -401 b 544 -219 533 -319 544 -272 l 544 -82 l 399 -82 l 399 -231 l 472 -231 b 475 -239 474 -233 474 -236 l 475 -247 b 464 -306 475 -265 471 -286 b 399 -372 451 -344 431 -367 z "},"ņ":{"ha":772,"x_min":0,"x_max":0,"o":"m 206 624 l 206 726 l 89 726 l 89 0 l 211 0 l 211 381 b 221 490 211 428 215 464 b 260 564 228 515 240 540 b 349 624 286 594 315 614 b 419 633 367 631 390 633 b 538 565 476 633 517 610 b 557 458 550 538 557 501 l 557 0 l 682 0 l 682 465 b 651 635 682 539 671 596 b 443 743 615 707 546 743 b 315 715 396 743 353 733 b 206 624 276 696 240 665 z m 306 -358 l 306 -422 b 418 -347 358 -412 396 -387 b 450 -206 439 -307 450 -260 l 450 -68 l 306 -68 l 306 -217 l 379 -217 b 381 -225 379 -219 381 -222 l 381 -233 b 371 -292 381 -253 378 -272 b 306 -358 358 -331 336 -353 z "},"Ŗ":{"ha":1003,"x_min":0,"x_max":0,"o":"m 583 996 l 122 996 l 122 0 l 257 0 l 257 428 l 564 428 b 686 408 619 428 660 421 b 758 278 731 386 754 343 l 767 113 b 774 33 768 74 771 47 b 783 0 776 19 779 8 l 950 0 l 950 22 b 906 83 928 31 914 51 b 897 168 901 101 897 131 l 892 301 b 860 428 890 360 879 401 b 771 490 839 453 810 474 b 875 581 815 513 850 543 b 911 728 899 619 911 668 b 771 963 911 842 865 921 b 583 996 722 985 660 996 z m 569 540 l 257 540 l 257 881 l 586 881 b 697 860 633 881 669 874 b 775 715 749 835 775 786 b 719 578 775 649 756 603 b 569 540 682 553 632 540 z m 429 -347 l 429 -412 b 542 -337 483 -403 521 -378 b 575 -196 564 -296 575 -249 l 575 -58 l 429 -58 l 429 -206 l 503 -206 b 506 -215 504 -210 504 -212 l 506 -224 b 494 -282 506 -242 501 -261 b 429 -347 482 -321 461 -343 z "},"ŗ":{"ha":463,"x_min":0,"x_max":0,"o":"m 208 601 l 208 726 l 93 726 l 93 0 l 215 0 l 215 418 b 264 554 215 469 232 515 b 406 614 297 594 344 614 b 426 613 414 614 421 614 b 446 610 433 613 439 611 l 446 739 l 418 742 b 407 743 413 743 408 743 b 279 690 358 743 317 725 b 208 601 242 656 218 625 z m 96 -358 l 96 -422 b 208 -347 150 -412 188 -387 b 242 -206 231 -307 242 -260 l 242 -68 l 96 -68 l 96 -217 l 171 -217 b 172 -225 171 -219 172 -222 l 172 -233 b 163 -292 172 -253 169 -272 b 96 -358 149 -331 128 -353 z "},"ϳ":{"ha":289,"x_min":0,"x_max":0,"o":"m 193 867 l 193 993 l 82 993 l 82 867 z m 193 -104 l 193 729 l 82 729 l 82 -87 b 79 -121 82 -101 82 -112 b 65 -149 78 -129 74 -139 b 38 -169 58 -158 49 -165 b 0 -176 26 -174 14 -176 b -25 -174 -7 -176 -15 -175 l -25 -264 b 32 -274 -8 -269 11 -274 b 139 -237 79 -274 115 -261 b 185 -174 163 -214 178 -192 b 193 -104 190 -156 193 -132 z "},";":{"ha":385,"x_min":0,"x_max":0,"o":"m 299 572 l 299 717 l 154 717 l 154 572 z m 299 0 l 299 144 l 154 144 l 154 0 l 238 0 b 215 -83 238 -29 231 -57 b 153 -144 200 -110 179 -131 l 153 -208 b 244 -144 183 -203 214 -182 b 299 0 275 -106 293 -58 z "},"ȷ":{"ha":308,"x_min":0,"x_max":0,"o":"m -26 -183 l -26 -289 l 6 -292 b 24 -293 11 -293 18 -293 b 186 -226 103 -293 157 -271 b 211 -108 203 -200 211 -161 l 211 724 l 89 724 l 89 -94 b 74 -169 89 -136 85 -161 b -26 -183 61 -176 29 -182 z "},"ĸ":{"ha":694,"x_min":0,"x_max":0,"o":"m 204 418 l 204 726 l 86 726 l 86 0 l 204 0 l 204 272 l 307 367 l 533 0 l 689 0 l 396 454 l 674 726 l 518 726 z "},"ſ":{"ha":386,"x_min":0,"x_max":0,"o":"m 119 0 l 240 0 l 240 626 b 253 869 242 769 246 850 b 319 899 260 889 282 899 l 336 899 b 363 897 342 897 350 897 l 363 1008 l 335 1010 b 311 1011 326 1011 318 1011 b 146 949 231 1011 175 989 b 119 838 131 925 122 888 l 119 724 l 19 724 l 19 626 l 119 626 z "},"ɘ":{"ha":772,"x_min":0,"x_max":0,"o":"m 108 613 b 60 485 85 576 68 533 b 49 324 53 451 49 397 l 581 324 b 529 147 579 250 561 192 b 378 81 496 103 446 81 b 225 143 314 81 263 101 b 179 228 203 168 188 196 l 58 228 b 90 139 63 201 72 172 b 150 58 108 106 128 79 b 289 -15 188 22 233 -1 b 388 -26 318 -22 350 -26 b 618 74 478 -26 554 7 b 713 349 681 139 713 231 b 617 633 713 465 681 561 b 369 743 554 706 471 743 b 219 707 318 743 267 731 b 108 613 171 682 133 651 z m 578 421 l 174 421 b 208 549 179 474 190 517 b 376 636 242 607 299 636 b 518 576 433 636 479 615 b 578 421 556 535 576 483 z "},"ə":{"ha":772,"x_min":0,"x_max":0,"o":"m 108 104 b 219 10 133 65 171 33 b 369 -26 267 -14 318 -26 b 617 83 471 -26 554 10 b 713 367 681 156 713 250 b 618 643 713 486 681 578 b 388 742 554 710 478 742 b 289 731 350 742 318 739 b 150 658 233 718 188 694 b 90 578 128 636 108 610 b 58 489 72 544 63 515 l 179 489 b 225 574 188 521 203 549 b 378 636 263 615 314 636 b 529 569 446 636 496 614 b 581 392 561 525 579 465 l 49 392 b 60 232 49 318 53 265 b 108 104 68 183 85 140 z m 174 294 l 578 294 b 518 142 576 232 556 181 b 376 81 479 100 433 81 b 208 168 299 81 242 110 b 174 294 190 200 179 242 z "},"ɔ":{"ha":694,"x_min":0,"x_max":0,"o":"m 158 243 l 39 243 b 132 38 50 146 81 78 b 332 -22 183 -1 250 -22 b 568 85 428 -22 507 14 b 661 382 631 156 661 256 b 576 643 661 486 633 574 b 349 747 521 713 444 747 b 142 681 264 747 196 724 b 39 468 86 636 53 565 l 158 468 b 219 596 169 522 190 565 b 340 642 249 626 289 642 b 485 568 406 642 454 617 b 531 383 515 518 531 457 b 499 201 531 311 521 251 b 332 88 465 125 410 88 b 207 132 275 88 233 103 b 158 243 182 161 165 199 z "},"ɐ":{"ha":772,"x_min":0,"x_max":0,"o":"m 318 279 l 514 303 b 679 372 582 313 636 335 b 742 528 721 408 742 461 b 678 682 742 590 721 640 b 513 743 636 724 579 743 b 358 707 457 743 406 731 b 251 622 313 683 276 656 b 231 690 247 651 240 674 b 139 735 211 719 181 735 b 99 732 122 735 108 733 b 56 722 88 731 74 728 l 56 632 b 76 636 63 633 69 635 l 94 636 b 128 625 113 636 122 632 b 136 594 133 617 136 607 l 136 175 b 215 24 136 107 163 57 b 424 -25 268 -8 338 -25 b 618 28 497 -25 561 -7 b 704 214 674 63 703 125 l 590 214 b 561 129 586 176 576 149 b 426 78 535 94 490 78 b 299 107 371 78 328 88 b 254 197 269 125 254 156 b 263 243 254 217 257 232 b 318 279 272 263 290 275 z m 485 639 b 576 608 519 639 550 629 b 614 525 601 589 614 561 b 558 424 614 479 596 444 b 458 396 536 411 503 403 l 385 386 b 315 374 363 383 339 379 b 258 349 292 367 272 358 l 258 447 b 360 610 258 522 292 576 b 485 639 400 629 442 639 z "},"̉":{"ha":0,"x_min":0,"x_max":0,"o":"m -386 1032 b -365 1013 -376 1025 -371 1019 b -358 988 -361 1004 -358 996 b -381 946 -358 972 -367 958 b -443 921 -396 932 -417 924 l -443 869 l -383 869 l -381 899 b -339 914 -364 903 -350 908 b -311 936 -326 921 -318 928 b -296 963 -304 944 -299 954 b -292 990 -293 972 -292 982 b -297 1021 -292 1001 -293 1013 b -307 1044 -300 1031 -303 1039 b -358 1088 -322 1065 -339 1081 b -422 1099 -378 1096 -400 1099 b -451 1097 -432 1099 -440 1099 b -481 1094 -461 1097 -469 1096 l -478 1040 b -433 1044 -460 1043 -444 1044 b -407 1042 -424 1044 -414 1043 b -386 1032 -400 1040 -393 1036 z "},"̅":{"ha":0,"x_min":0,"x_max":0,"o":"m -147 869 l -147 950 l -625 950 l -625 869 z "},"̑":{"ha":0,"x_min":0,"x_max":0,"o":"m -242 829 l -172 829 b -206 936 -176 872 -187 908 b -378 1017 -240 989 -297 1017 b -531 972 -442 1017 -493 1001 b -601 829 -568 943 -592 896 l -533 829 b -501 896 -526 858 -517 879 b -392 935 -478 922 -440 935 b -274 896 -337 935 -299 922 b -242 829 -260 881 -249 858 z "},"Ĭ":{"ha":386,"x_min":0,"x_max":0,"o":"m 65 1288 l -3 1288 b 29 1181 0 1244 11 1208 b 203 1100 64 1126 122 1100 b 356 1143 267 1100 318 1114 b 425 1288 393 1172 417 1221 l 358 1288 b 326 1221 350 1258 340 1236 b 215 1181 301 1194 265 1181 b 97 1221 163 1181 122 1194 b 65 1288 83 1236 74 1258 z m 272 0 l 272 996 l 136 996 l 136 0 z "},"ĭ":{"ha":386,"x_min":0,"x_max":0,"o":"m 65 1017 l -3 1017 b 29 910 0 974 11 938 b 203 829 64 857 122 829 b 356 874 267 829 318 844 b 425 1017 393 903 417 951 l 358 1017 b 326 951 350 988 340 967 b 215 911 301 925 265 911 b 97 951 163 911 122 925 b 65 1017 83 965 74 988 z m 253 0 l 253 724 l 128 724 l 128 0 z "},"Ŋ":{"ha":1003,"x_min":0,"x_max":0,"o":"m 660 -183 l 660 -289 l 690 -292 b 708 -293 696 -293 703 -293 b 871 -226 788 -293 842 -271 b 897 -108 888 -200 897 -161 l 897 996 l 768 996 l 768 189 l 265 996 l 106 996 l 106 0 l 235 0 l 235 807 l 746 0 l 775 0 l 775 -94 b 758 -169 775 -136 769 -161 b 660 -183 747 -176 714 -182 z "},"ŋ":{"ha":772,"x_min":0,"x_max":0,"o":"m 444 -183 l 444 -289 l 475 -292 b 493 -293 482 -293 488 -293 b 656 -226 574 -293 628 -271 b 682 -108 672 -200 682 -161 l 682 465 b 651 635 682 539 671 596 b 443 743 615 707 546 743 b 315 715 396 743 353 733 b 206 624 276 696 240 665 l 206 726 l 89 726 l 89 0 l 211 0 l 211 381 b 221 490 211 428 215 464 b 260 564 228 515 240 540 b 349 624 286 594 315 614 b 419 633 367 631 390 633 b 538 565 476 633 517 610 b 557 458 550 538 557 501 l 557 0 l 560 0 l 560 -94 b 543 -169 560 -136 554 -161 b 444 -183 532 -176 499 -182 z "},"̛":{"ha":0,"x_min":0,"x_max":0,"o":"m -533 768 l -561 701 b -481 671 -554 683 -526 674 b -337 699 -435 669 -387 678 l -211 751 l -267 886 l -403 829 l -375 761 b -382 756 -376 758 -379 757 l -389 753 b -449 739 -407 744 -426 740 b -533 768 -489 732 -517 742 z "},"А":{"ha":942,"x_min":0,"x_max":0,"o":"m 560 1013 l 399 1013 l 25 0 l 165 0 l 276 306 l 668 306 l 774 0 l 922 0 z m 311 411 l 479 854 l 631 411 z "},"Б":{"ha":919,"x_min":0,"x_max":0,"o":"m 785 881 l 785 997 l 103 997 l 103 0 l 542 0 b 676 21 592 0 636 7 b 775 81 715 35 749 56 b 836 174 801 106 822 138 b 857 293 850 208 857 249 b 838 415 857 339 850 379 b 774 507 822 451 801 482 b 665 565 744 532 708 551 b 514 586 624 579 572 586 l 236 586 l 236 881 z m 524 117 l 236 117 l 236 469 l 494 469 b 588 461 529 469 560 467 b 657 432 614 454 638 444 b 700 376 675 417 690 399 b 715 293 711 354 715 326 b 701 210 715 260 711 232 b 661 156 692 188 678 169 b 600 125 643 142 624 132 b 524 117 576 119 551 117 z "},"В":{"ha":926,"x_min":0,"x_max":0,"o":"m 460 997 l 103 997 l 103 0 l 524 0 b 639 13 567 0 606 4 b 728 47 672 21 701 32 b 793 97 753 61 775 78 b 839 160 811 117 826 138 b 864 228 850 181 858 203 b 871 294 868 250 871 272 b 854 393 871 332 865 365 b 811 463 842 419 828 443 b 753 510 793 482 774 497 b 690 538 732 521 711 531 b 753 579 715 549 736 561 b 794 632 771 594 783 613 b 817 690 804 651 811 671 b 824 746 821 710 824 729 b 810 835 824 779 818 808 b 771 903 800 860 788 883 b 715 951 754 922 736 939 b 646 981 693 964 669 974 b 563 994 619 988 592 992 b 460 997 533 996 499 997 z m 485 572 l 236 572 l 236 881 l 485 881 b 581 869 522 881 554 876 b 644 840 607 864 629 854 b 681 794 661 828 672 813 b 690 732 688 776 690 756 b 683 669 690 710 688 689 b 654 619 678 650 668 633 b 592 585 639 606 618 593 b 485 572 564 576 529 572 z m 504 117 l 236 117 l 236 464 l 504 464 b 614 451 547 464 583 460 b 686 417 643 443 667 432 b 725 361 704 401 717 382 b 738 290 733 340 738 317 b 725 219 738 264 733 240 b 686 165 717 199 704 179 b 614 129 667 149 643 138 b 504 117 583 121 547 117 z "},"Г":{"ha":721,"x_min":0,"x_max":0,"o":"m 689 881 l 689 997 l 103 997 l 103 0 l 236 0 l 236 881 z "},"Д":{"ha":974,"x_min":0,"x_max":0,"o":"m 115 117 l 25 117 l 25 -214 l 150 -214 l 150 0 l 844 0 l 844 -214 l 969 -214 l 969 117 l 857 117 l 857 997 l 231 997 b 229 908 231 974 231 944 b 225 786 229 872 228 832 b 217 643 224 742 219 694 b 201 486 213 592 207 539 b 185 356 196 436 190 393 b 165 260 178 319 172 288 b 142 183 157 231 150 206 b 115 117 133 161 125 139 z m 356 881 l 721 881 l 721 117 l 254 117 l 279 190 b 297 267 286 213 292 239 b 314 363 303 294 308 326 b 329 493 318 399 324 442 b 347 688 336 558 343 622 b 356 881 353 751 356 815 z "},"Е":{"ha":926,"x_min":0,"x_max":0,"o":"m 831 881 l 831 997 l 103 997 l 103 0 l 840 0 l 840 117 l 236 117 l 236 456 l 785 456 l 785 572 l 236 572 l 236 881 z "},"Ж":{"ha":1378,"x_min":0,"x_max":0,"o":"m 1196 997 l 844 569 l 756 569 l 756 997 l 622 997 l 622 569 l 533 569 l 185 997 l 13 997 l 417 517 l 7 0 l 188 0 l 533 457 l 622 457 l 622 0 l 756 0 l 756 457 l 844 457 l 1189 0 l 1371 0 l 969 522 l 1371 997 z "},"З":{"ha":925,"x_min":0,"x_max":0,"o":"m 538 579 l 357 579 l 357 467 l 529 467 b 621 454 564 467 594 463 b 685 417 646 446 668 433 b 724 361 701 401 715 382 b 736 289 732 339 736 315 b 717 199 736 254 729 224 b 660 138 703 174 683 153 b 569 103 635 121 604 110 b 453 92 535 94 494 92 b 331 107 406 92 364 96 b 247 147 297 115 269 129 b 199 208 225 164 208 185 b 178 288 186 232 179 260 l 47 288 b 86 140 50 229 63 181 b 175 43 108 100 139 68 b 306 -10 213 19 256 1 b 464 -25 354 -19 407 -25 b 618 -6 518 -25 569 -19 b 747 53 667 7 710 26 b 836 149 785 78 814 110 b 869 282 858 188 869 232 b 857 378 869 318 865 350 b 819 451 847 406 836 431 b 764 503 804 472 785 489 b 693 535 743 517 719 526 l 693 538 b 797 618 743 556 778 582 b 828 749 817 654 828 697 b 801 868 828 794 818 833 b 726 954 783 901 758 931 b 614 1006 694 976 658 993 b 467 1022 569 1017 521 1022 b 371 1015 435 1022 403 1019 b 281 992 339 1011 308 1003 b 200 950 251 981 225 967 b 136 886 175 932 154 911 b 94 799 118 861 104 832 b 79 685 85 765 79 728 l 204 685 b 219 769 203 714 208 743 b 268 839 229 796 246 819 b 350 888 289 860 317 875 b 463 906 382 899 421 906 b 558 896 497 906 529 901 b 635 867 588 890 613 879 b 685 813 656 851 672 835 b 703 733 696 790 703 764 b 693 678 703 714 699 696 b 663 628 686 660 676 642 b 611 593 649 613 632 601 b 538 579 590 583 565 579 z "},"И":{"ha":1003,"x_min":0,"x_max":0,"o":"m 236 190 l 236 997 l 103 997 l 103 0 l 257 0 l 764 811 l 767 811 l 767 0 l 900 0 l 900 997 l 746 997 l 239 190 z "},"Й":{"ha":1003,"x_min":0,"x_max":0,"o":"m 369 1254 l 247 1254 b 264 1178 246 1226 253 1201 b 314 1118 275 1154 292 1135 b 394 1078 336 1100 363 1088 b 501 1063 426 1068 461 1063 b 606 1076 539 1063 574 1068 b 686 1114 636 1085 664 1097 b 738 1175 708 1131 725 1151 b 756 1254 750 1199 756 1225 l 633 1254 b 590 1178 628 1219 613 1194 b 501 1153 568 1161 538 1153 b 413 1176 465 1153 435 1160 b 369 1254 390 1192 375 1217 z m 236 190 l 236 997 l 103 997 l 103 0 l 257 0 l 764 811 l 767 811 l 767 0 l 900 0 l 900 997 l 746 997 l 239 190 z "},"К":{"ha":926,"x_min":0,"x_max":0,"o":"m 236 511 l 236 997 l 103 997 l 103 0 l 236 0 l 236 347 l 397 503 l 749 0 l 919 0 l 493 594 l 908 997 l 722 997 z "},"Л":{"ha":954,"x_min":0,"x_max":0,"o":"m 361 881 l 717 881 l 717 0 l 850 0 l 850 997 l 231 997 b 229 851 231 950 229 901 l 228 700 b 222 550 226 649 225 600 b 213 411 221 501 217 456 b 196 290 208 368 203 328 b 169 193 189 253 179 221 b 131 131 158 167 144 144 b 76 107 115 115 97 107 b 44 110 61 107 51 108 b 25 115 36 111 29 114 l 25 -8 b 54 -15 35 -11 46 -14 b 86 -19 63 -18 74 -19 b 197 15 129 -19 167 -7 b 272 111 226 38 251 69 b 319 257 292 151 308 200 b 347 440 332 313 340 374 b 358 653 353 507 356 578 b 361 881 360 726 361 803 z "},"М":{"ha":1157,"x_min":0,"x_max":0,"o":"m 576 158 l 294 997 l 103 997 l 103 0 l 228 0 l 228 839 l 231 839 l 511 0 l 644 0 l 925 839 l 928 839 l 928 0 l 1053 0 l 1053 997 l 861 997 l 579 158 z "},"Н":{"ha":1003,"x_min":0,"x_max":0,"o":"m 236 586 l 236 997 l 103 997 l 103 0 l 236 0 l 236 469 l 767 469 l 767 0 l 900 0 l 900 997 l 767 997 l 767 586 z "},"О":{"ha":1081,"x_min":0,"x_max":0,"o":"m 1026 499 b 993 711 1026 576 1015 646 b 899 876 971 775 940 831 b 746 983 857 922 807 958 b 540 1022 686 1010 617 1022 b 335 983 464 1022 396 1010 b 182 876 275 958 224 922 b 88 711 142 831 110 775 b 54 499 65 646 54 576 b 67 371 54 456 58 413 b 107 249 76 328 89 288 b 174 140 124 210 146 174 b 267 54 200 107 232 78 b 389 -4 303 29 344 10 b 540 -25 435 -18 486 -25 b 692 -4 596 -25 646 -18 b 814 54 738 10 778 29 b 908 140 850 78 882 107 b 974 249 935 174 956 210 b 1013 371 992 288 1004 328 b 1026 499 1022 413 1026 456 z m 893 499 b 871 333 893 438 886 382 b 807 204 857 283 836 240 b 696 121 778 168 740 142 b 540 92 651 101 600 92 b 385 121 481 92 429 101 b 275 204 342 142 304 168 b 208 333 246 240 224 283 b 188 499 194 382 188 438 b 211 663 188 557 196 613 b 281 792 226 713 250 756 b 390 875 310 828 347 856 b 540 906 435 896 485 906 b 690 875 596 906 646 896 b 801 792 733 856 771 828 b 869 663 831 756 854 713 b 893 499 885 613 893 557 z "},"П":{"ha":1003,"x_min":0,"x_max":0,"o":"m 900 0 l 900 997 l 103 997 l 103 0 l 236 0 l 236 881 l 767 881 l 767 0 z "},"Р":{"ha":926,"x_min":0,"x_max":0,"o":"m 522 997 l 103 997 l 103 0 l 236 0 l 236 414 l 522 414 b 665 435 578 414 625 421 b 764 494 704 449 738 468 b 822 586 790 519 810 550 b 842 706 836 622 842 661 b 822 825 842 750 836 789 b 764 917 810 861 790 892 b 665 976 738 942 704 961 b 522 997 625 990 578 997 z m 508 531 l 236 531 l 236 881 l 508 881 b 661 836 579 881 631 865 b 708 706 693 806 708 763 b 661 575 708 649 693 606 b 508 531 631 546 579 531 z "},"С":{"ha":1003,"x_min":0,"x_max":0,"o":"m 188 500 b 211 668 188 561 196 618 b 279 796 226 718 250 760 b 385 876 308 831 344 858 b 524 906 426 896 472 906 b 619 892 557 906 589 900 b 699 851 649 882 675 868 b 760 788 724 835 743 813 b 797 701 776 763 789 733 l 928 701 b 913 774 926 725 921 749 b 878 847 904 799 893 824 b 821 914 863 871 843 893 b 744 971 799 935 774 954 b 643 1008 714 986 681 999 b 519 1022 607 1017 565 1022 b 408 1011 483 1022 446 1018 b 301 974 372 1003 336 990 b 206 906 267 956 235 933 b 126 806 175 878 149 844 b 74 667 104 765 86 719 b 54 486 61 614 54 553 b 76 306 54 418 61 357 b 133 171 90 254 110 208 b 217 76 157 133 185 101 b 315 17 249 51 281 31 b 418 -15 349 1 383 -10 b 515 -25 453 -22 485 -25 b 636 -8 560 -25 600 -19 b 738 35 674 1 707 17 b 817 101 768 54 794 76 b 876 181 840 126 860 153 b 917 268 893 208 906 238 b 935 357 926 299 932 328 l 806 357 b 776 260 801 324 790 292 b 717 175 761 229 742 201 b 631 115 693 150 664 131 b 515 92 596 99 558 92 b 382 121 467 92 422 101 b 278 203 342 140 307 167 b 211 331 249 238 226 281 b 188 500 196 381 188 438 z "},"Т":{"ha":849,"x_min":0,"x_max":0,"o":"m 831 881 l 831 997 l 19 997 l 19 881 l 358 881 l 358 0 l 492 0 l 492 881 z "},"У":{"ha":926,"x_min":0,"x_max":0,"o":"m 203 133 l 203 4 b 247 -17 213 -4 228 -11 b 307 -25 267 -22 286 -25 b 407 -10 346 -25 379 -21 b 482 39 435 0 460 17 b 543 125 504 61 524 89 b 604 251 561 160 582 203 l 917 997 l 767 997 l 517 336 l 188 997 l 32 997 l 440 199 b 425 161 436 186 432 174 b 399 129 418 149 408 139 b 361 107 388 119 375 113 b 308 99 346 101 328 99 b 279 101 299 99 289 100 l 249 110 b 222 121 239 114 231 117 b 203 133 214 125 207 129 z "},"Ф":{"ha":1188,"x_min":0,"x_max":0,"o":"m 526 90 l 526 -21 l 661 -21 l 661 90 b 863 117 736 90 803 100 b 1014 194 922 135 974 160 b 1111 322 1056 229 1089 272 b 1144 499 1133 374 1144 432 b 1111 675 1144 565 1133 624 b 1014 803 1089 725 1056 768 b 863 881 974 838 922 863 b 661 906 803 897 736 906 l 661 1017 l 526 1017 l 526 906 b 325 881 451 906 385 897 b 174 803 265 863 214 838 b 78 675 132 768 100 725 b 44 499 56 624 44 565 b 78 322 44 432 56 374 b 174 194 100 272 132 229 b 325 117 214 160 265 135 b 526 90 385 100 451 90 z m 175 499 b 197 622 175 544 182 586 b 261 715 211 658 232 690 b 371 774 289 740 326 760 b 526 793 414 786 467 793 l 526 204 b 371 225 467 204 414 211 b 261 283 326 238 289 258 b 197 375 232 308 211 339 b 175 499 182 411 175 453 z m 1013 499 b 990 375 1013 453 1006 411 b 926 283 976 339 956 308 b 817 225 897 258 861 238 b 661 204 774 211 721 204 l 661 793 b 817 774 721 793 774 786 b 926 715 861 760 897 740 b 990 622 956 690 976 658 b 1013 499 1006 586 1013 544 z "},"Х":{"ha":926,"x_min":0,"x_max":0,"o":"m 44 997 l 379 511 l 25 0 l 190 0 l 463 410 l 735 0 l 900 0 l 546 511 l 881 997 l 715 997 l 463 615 l 210 997 z "},"Ц":{"ha":1017,"x_min":0,"x_max":0,"o":"m 236 117 l 236 997 l 103 997 l 103 0 l 878 0 l 878 -214 l 1003 -214 l 1003 117 l 900 117 l 900 997 l 767 997 l 767 117 z "},"Ч":{"ha":904,"x_min":0,"x_max":0,"o":"m 668 411 l 668 0 l 801 0 l 801 997 l 668 997 l 668 528 b 629 510 658 521 646 515 b 575 493 613 503 594 499 b 511 483 554 489 533 486 b 444 479 489 481 465 479 b 340 488 406 479 371 482 b 264 518 310 493 285 503 b 215 579 243 533 226 553 b 199 681 204 607 199 639 l 199 997 l 65 997 l 65 667 b 93 519 65 607 75 557 b 171 425 113 479 139 449 b 283 376 203 401 240 385 b 418 363 325 367 371 363 b 493 367 443 363 468 364 b 563 376 518 369 540 372 b 622 392 583 381 604 386 b 668 411 639 399 656 404 z "},"Ш":{"ha":1311,"x_min":0,"x_max":0,"o":"m 236 117 l 236 997 l 103 997 l 103 0 l 1208 0 l 1208 997 l 1075 997 l 1075 117 l 722 117 l 722 997 l 589 997 l 589 117 z "},"Щ":{"ha":1325,"x_min":0,"x_max":0,"o":"m 236 117 l 236 997 l 103 997 l 103 0 l 1186 0 l 1186 -214 l 1311 -214 l 1311 117 l 1208 117 l 1208 997 l 1075 997 l 1075 117 l 722 117 l 722 997 l 589 997 l 589 117 z "},"Ъ":{"ha":1157,"x_min":0,"x_max":0,"o":"m 19 997 l 19 881 l 356 881 l 356 0 l 788 0 b 922 21 838 0 882 7 b 1021 81 960 35 993 56 b 1082 174 1047 106 1068 138 b 1103 293 1096 208 1103 249 b 1082 415 1103 339 1096 379 b 1018 507 1068 451 1046 482 b 910 565 989 532 954 551 b 754 586 865 579 814 586 l 489 586 l 489 997 z m 769 117 l 489 117 l 489 469 l 740 469 b 833 461 775 469 806 467 b 901 432 860 454 883 444 b 946 376 921 417 936 399 b 961 293 956 354 961 326 b 947 210 961 260 956 232 b 906 156 936 188 924 169 b 846 125 889 142 868 132 b 769 117 822 119 797 117 z "},"Ы":{"ha":1221,"x_min":0,"x_max":0,"o":"m 236 586 l 236 997 l 103 997 l 103 0 l 535 0 b 669 21 585 0 631 7 b 768 81 708 35 742 56 b 829 174 794 106 815 138 b 850 293 843 208 850 249 b 829 415 850 339 843 379 b 765 507 815 451 794 482 b 657 565 738 532 701 551 b 501 586 613 579 561 586 z m 1118 0 l 1118 997 l 985 997 l 985 0 z m 518 117 l 236 117 l 236 469 l 489 469 b 581 461 522 469 553 467 b 650 432 607 454 631 444 b 694 376 668 417 683 399 b 708 293 704 354 708 326 b 694 210 708 260 704 232 b 654 156 685 188 671 169 b 593 125 636 142 617 132 b 518 117 569 119 544 117 z "},"Ь":{"ha":904,"x_min":0,"x_max":0,"o":"m 236 586 l 236 997 l 103 997 l 103 0 l 535 0 b 669 21 585 0 631 7 b 768 81 708 35 742 56 b 829 174 794 106 815 138 b 850 293 843 208 850 249 b 829 415 850 339 843 379 b 765 507 815 451 794 482 b 657 565 738 532 701 551 b 501 586 613 579 561 586 z m 518 117 l 236 117 l 236 469 l 489 469 b 581 461 522 469 553 467 b 650 432 607 454 631 444 b 694 376 668 417 683 399 b 708 293 704 354 708 326 b 694 210 708 260 704 232 b 654 156 685 188 671 169 b 593 125 636 142 617 132 b 518 117 569 119 544 117 z "},"Э":{"ha":1003,"x_min":0,"x_max":0,"o":"m 807 572 l 424 572 l 424 456 l 807 456 b 792 332 807 408 801 368 b 753 238 782 296 769 264 b 697 169 738 210 718 188 b 629 124 675 150 653 136 b 557 99 606 113 582 104 b 488 92 533 94 510 92 b 371 114 444 92 406 99 b 279 171 335 128 304 146 b 219 256 253 194 233 224 b 197 357 204 288 197 321 l 68 357 b 97 214 68 307 78 260 b 179 92 117 168 144 126 b 308 7 214 57 258 28 b 481 -25 360 -14 417 -25 b 581 -15 513 -25 546 -22 b 686 19 617 -8 651 3 b 785 83 721 35 753 57 b 869 182 817 110 844 143 b 926 321 893 221 913 267 b 949 506 942 375 949 435 b 932 675 949 568 943 625 b 883 808 921 725 904 769 b 810 906 864 846 839 878 b 717 972 782 932 751 954 b 608 1011 683 989 647 1003 b 492 1022 571 1018 532 1022 b 368 1008 446 1022 406 1017 b 265 972 329 1000 296 988 b 186 917 235 956 208 938 b 129 850 163 896 144 874 b 94 776 114 826 103 801 b 83 701 88 751 83 725 l 214 701 b 244 793 218 738 229 768 b 307 857 261 819 282 840 b 390 894 331 874 358 886 b 488 906 421 901 454 906 b 633 878 544 906 592 896 b 732 803 672 858 706 833 b 789 696 758 771 778 736 b 807 572 801 656 808 614 z "},"Ю":{"ha":1389,"x_min":0,"x_max":0,"o":"m 236 558 l 236 997 l 103 997 l 103 0 l 236 0 l 236 442 l 393 442 b 413 324 396 401 403 363 b 456 214 424 285 436 249 b 519 118 472 179 494 147 b 608 43 544 89 575 64 b 722 -7 642 22 679 4 b 863 -25 764 -19 811 -25 b 1013 -4 917 -25 967 -18 b 1132 54 1057 10 1097 29 b 1224 140 1167 78 1197 107 b 1286 249 1249 174 1269 210 b 1324 371 1303 288 1315 328 b 1335 499 1331 413 1335 456 b 1304 711 1335 576 1325 646 b 1214 876 1283 775 1254 831 b 1065 983 1174 922 1125 958 b 863 1022 1007 1010 939 1022 b 671 989 790 1022 726 1011 b 528 894 614 967 567 935 b 435 749 489 854 457 806 b 393 558 411 692 397 628 z m 1201 499 b 1182 333 1201 438 1194 382 b 1121 204 1169 283 1149 240 b 1015 121 1093 168 1058 142 b 863 92 974 101 922 92 b 724 121 811 92 764 101 b 617 204 682 142 646 168 b 547 333 586 240 564 283 b 522 499 531 382 522 438 b 547 663 522 557 531 613 b 614 792 563 713 585 756 b 721 875 643 828 679 856 b 863 906 763 896 810 906 b 1004 875 914 906 961 896 b 1111 792 1046 856 1082 828 b 1179 663 1140 756 1163 713 b 1201 499 1194 613 1201 557 z "},"Я":{"ha":992,"x_min":0,"x_max":0,"o":"m 756 424 l 756 0 l 889 0 l 889 997 l 476 997 b 421 996 461 997 442 997 b 356 992 400 996 378 994 b 289 981 333 990 311 986 b 231 958 267 975 247 968 b 185 924 215 950 200 938 b 144 872 169 910 156 892 b 115 803 132 851 122 829 b 104 717 108 778 104 749 b 124 607 104 672 111 636 b 169 538 136 579 150 556 b 225 497 186 521 204 507 l 275 476 b 201 440 243 467 219 454 b 158 392 182 426 168 410 b 139 333 149 374 143 354 l 131 268 l 119 132 b 113 82 117 113 115 96 b 101 46 108 68 106 57 b 88 19 97 36 92 28 b 72 0 83 13 78 6 l 225 0 b 236 28 231 10 233 19 l 244 54 b 250 85 246 63 249 74 b 253 119 251 94 253 107 l 260 228 b 268 296 261 256 264 278 b 282 343 271 315 276 331 b 301 375 288 356 294 367 b 329 397 310 383 318 390 b 356 411 338 403 347 407 b 390 419 365 414 376 417 b 438 424 403 421 419 422 l 507 424 z m 414 879 l 756 879 l 756 536 l 468 536 l 417 536 b 372 539 401 536 386 538 b 335 550 358 542 346 544 b 299 569 322 554 310 561 b 265 603 285 579 274 590 b 247 639 258 614 251 626 b 238 675 242 651 239 664 b 236 707 236 688 236 697 b 240 750 236 721 238 735 b 254 792 243 764 247 778 b 276 829 260 806 267 817 b 311 857 286 840 297 850 b 343 869 321 863 331 867 b 378 876 354 872 365 875 b 414 879 390 878 403 878 z "},"а":{"ha":772,"x_min":0,"x_max":0,"o":"m 90 508 l 207 508 b 253 614 210 556 226 590 b 376 649 281 636 321 649 b 500 619 431 649 471 639 b 543 525 529 600 543 569 b 526 463 543 496 538 476 b 481 440 515 450 500 442 l 276 415 b 197 396 250 411 224 406 b 126 353 171 385 147 372 b 78 285 107 335 90 313 b 58 188 64 257 58 225 b 78 97 58 153 64 122 b 128 31 90 71 107 49 b 200 -8 149 14 174 0 b 281 -22 226 -18 253 -22 b 369 -14 314 -22 343 -19 b 440 13 396 -7 419 1 b 499 50 463 22 482 35 b 547 96 515 64 532 79 b 558 47 550 76 553 60 b 583 14 565 33 574 22 b 624 -4 594 6 607 0 b 679 -10 639 -7 657 -10 b 715 -6 693 -10 706 -8 b 746 1 725 -4 736 -1 l 746 88 b 725 85 739 86 732 85 b 706 82 718 83 711 82 b 675 94 692 82 681 86 b 665 125 668 103 665 114 l 665 547 b 642 640 665 583 658 615 b 579 703 626 665 606 688 b 492 738 554 719 525 731 b 389 749 458 746 424 749 b 271 736 346 749 307 744 b 178 694 235 728 204 714 b 115 621 151 676 131 651 b 90 508 100 590 92 553 z m 540 369 l 540 253 b 529 197 540 232 536 214 b 499 151 521 179 511 165 b 456 118 486 139 471 128 b 406 96 439 110 424 101 b 357 83 389 89 374 86 b 315 78 342 79 328 78 b 261 86 296 78 278 81 b 221 111 246 92 232 100 b 193 150 208 121 200 135 b 183 206 186 167 183 185 b 194 253 183 224 188 239 b 228 288 203 265 213 278 b 276 310 242 296 258 304 b 339 324 296 317 317 319 l 399 332 b 456 340 418 333 438 336 b 504 351 472 343 489 347 b 540 369 518 357 531 363 z "},"б":{"ha":772,"x_min":0,"x_max":0,"o":"m 656 1006 l 561 1006 b 550 983 558 996 554 988 b 535 971 547 978 542 974 b 510 965 528 968 519 965 b 472 963 499 964 486 963 l 428 961 b 340 953 396 960 367 957 b 264 929 313 947 288 940 b 197 888 240 919 218 906 b 138 817 176 868 157 846 b 94 724 119 790 106 758 b 67 613 83 688 74 651 b 53 501 60 575 56 538 b 49 403 50 464 49 432 b 56 289 49 358 51 321 b 72 206 60 257 65 229 b 97 146 81 182 88 163 b 124 101 106 129 115 115 b 183 39 142 76 161 56 b 251 1 206 24 228 10 b 321 -18 275 -7 297 -14 b 388 -22 344 -21 367 -22 b 517 -1 438 -22 481 -15 b 608 54 553 14 583 32 b 668 132 633 76 653 103 b 703 218 683 160 694 189 b 719 301 711 247 717 275 b 724 368 722 328 724 350 b 699 522 724 428 715 479 b 632 635 682 567 660 604 b 532 701 603 664 569 686 b 413 724 494 717 454 724 b 315 711 375 724 343 719 b 242 678 288 703 263 692 b 189 632 221 664 203 649 b 154 578 175 614 164 596 b 185 690 161 619 171 657 b 239 776 200 724 217 753 b 314 832 260 800 285 818 b 408 853 342 844 374 851 l 460 854 b 517 857 483 854 501 856 b 550 864 531 860 542 861 b 574 874 560 867 567 869 b 593 886 579 876 585 882 b 625 918 606 896 617 906 b 643 950 632 928 638 939 b 653 982 647 961 650 971 b 656 1006 654 990 656 999 z m 174 350 b 186 457 174 388 178 424 b 226 544 196 490 208 519 b 293 604 243 569 265 589 b 390 625 319 618 353 625 b 488 603 429 625 461 618 b 551 544 514 588 535 568 b 588 460 568 519 581 492 b 599 363 596 428 599 396 l 599 324 b 592 265 597 306 594 288 b 574 201 588 244 581 224 b 536 140 564 178 551 158 b 476 96 521 122 500 107 b 386 78 451 85 422 78 b 303 93 354 78 326 83 b 246 131 281 103 261 115 b 207 183 231 146 217 164 b 186 244 199 203 190 224 b 176 301 181 264 178 283 b 174 350 174 319 174 336 z "},"в":{"ha":761,"x_min":0,"x_max":0,"o":"m 401 726 l 92 726 l 92 0 l 421 0 b 547 15 468 0 511 6 b 635 58 582 26 611 40 b 686 128 657 78 674 101 b 703 219 697 156 703 186 b 668 325 703 263 692 297 b 578 388 646 351 615 374 b 642 449 604 406 625 425 b 665 533 658 471 665 500 b 600 676 665 596 644 643 b 401 726 556 710 490 726 z m 406 419 l 217 419 l 217 626 l 422 626 b 465 622 436 626 451 625 b 504 604 481 618 492 613 b 531 572 515 596 524 585 b 542 522 538 558 542 542 b 504 444 542 488 529 461 b 406 419 481 428 447 419 z m 406 100 l 217 100 l 217 328 l 406 328 b 489 319 439 328 467 325 b 542 297 511 315 528 307 b 569 261 554 288 564 276 b 578 214 575 247 578 232 b 569 167 578 196 575 181 b 542 131 564 151 554 140 b 489 108 528 119 511 113 b 406 100 467 103 439 100 z "},"г":{"ha":560,"x_min":0,"x_max":0,"o":"m 543 618 l 543 726 l 92 726 l 92 0 l 217 0 l 217 618 z "},"д":{"ha":842,"x_min":0,"x_max":0,"o":"m 136 -178 l 136 0 l 697 0 l 697 -178 l 814 -178 l 814 108 l 711 108 l 711 726 l 204 726 b 201 568 204 674 203 621 b 189 413 200 517 196 464 b 163 258 183 360 174 310 b 115 108 150 207 135 157 l 19 108 l 19 -178 z m 324 618 l 586 618 l 586 108 l 242 108 b 278 232 257 147 268 189 b 300 361 288 274 294 317 b 314 492 306 404 311 447 b 324 618 318 535 319 576 z "},"е":{"ha":772,"x_min":0,"x_max":0,"o":"m 710 232 l 589 232 b 565 181 582 215 575 199 b 529 135 556 164 544 149 b 474 100 514 119 496 108 b 392 86 451 90 424 86 b 307 103 360 86 332 92 b 243 150 282 114 260 129 b 203 224 225 171 211 194 b 188 319 193 253 188 285 l 718 319 l 718 382 b 694 544 718 443 710 497 b 625 658 676 589 654 628 b 518 726 594 689 560 711 b 382 749 476 742 432 749 b 308 739 358 749 333 746 b 235 710 283 732 258 722 b 165 658 210 696 188 679 b 108 585 144 638 125 613 b 69 489 92 557 79 525 b 54 368 58 453 54 413 b 81 196 54 303 63 244 b 151 75 97 147 121 107 b 258 1 181 42 217 18 b 393 -22 300 -14 344 -22 b 517 0 438 -22 479 -15 b 611 58 553 14 585 33 b 678 139 639 82 661 108 b 710 232 694 169 706 200 z m 593 419 l 188 419 b 207 508 189 451 196 481 b 250 578 218 535 232 558 b 314 624 268 597 289 613 b 392 640 338 635 364 640 b 474 626 422 640 449 636 b 536 583 497 615 519 601 b 578 514 553 564 567 542 b 593 419 586 486 592 454 z "},"ж":{"ha":1083,"x_min":0,"x_max":0,"o":"m 907 726 l 668 429 l 606 429 l 606 726 l 481 726 l 481 429 l 417 429 l 182 726 l 31 726 l 315 382 l 15 0 l 169 0 l 417 331 l 481 331 l 481 0 l 606 0 l 606 331 l 668 331 l 914 0 l 1068 0 l 772 382 l 1057 726 z "},"з":{"ha":694,"x_min":0,"x_max":0,"o":"m 343 419 l 279 419 l 279 315 l 299 318 l 321 318 b 344 319 329 319 336 319 l 364 319 b 439 314 393 319 418 318 b 488 292 458 308 475 301 b 514 258 499 283 508 271 b 521 214 518 246 521 231 b 478 121 521 175 507 144 b 349 86 449 97 406 86 b 285 93 326 86 306 88 b 228 115 264 97 244 106 b 183 157 210 125 196 140 b 160 224 171 175 164 197 l 35 224 b 64 124 38 188 47 154 b 128 46 79 93 101 67 b 225 -4 156 24 188 7 b 350 -22 263 -17 304 -22 b 457 -8 386 -22 421 -18 b 551 36 492 1 524 17 b 619 111 579 57 603 81 b 646 217 636 140 646 175 b 633 290 646 246 642 269 b 600 340 624 310 613 326 b 557 369 586 353 572 363 b 515 383 542 376 528 381 l 515 386 b 551 408 526 393 539 400 b 586 440 565 418 576 428 b 611 486 597 454 606 468 b 621 544 617 503 621 521 b 597 635 621 579 613 608 b 538 699 582 660 563 682 b 451 736 513 715 483 728 b 356 749 419 744 388 749 b 297 744 338 749 318 747 b 236 728 276 740 257 736 b 178 699 217 721 197 711 b 128 654 160 688 143 672 b 90 590 113 636 100 614 b 71 504 81 565 74 536 l 188 504 b 213 574 190 532 200 556 b 257 615 225 592 239 606 b 307 635 272 625 289 632 b 351 640 324 638 339 640 b 414 632 375 640 396 638 b 460 607 433 625 447 618 b 488 572 471 597 481 585 b 496 531 493 558 496 544 b 482 479 496 511 492 493 b 444 446 471 465 460 454 b 394 426 429 436 413 431 b 343 419 376 422 360 419 z "},"и":{"ha":810,"x_min":0,"x_max":0,"o":"m 217 169 l 217 726 l 92 726 l 92 0 l 235 0 l 590 557 l 593 557 l 593 0 l 719 0 l 719 726 l 576 726 l 219 169 z "},"й":{"ha":810,"x_min":0,"x_max":0,"o":"m 288 1008 l 172 1008 b 190 935 174 981 179 956 b 238 878 203 913 218 894 b 311 843 258 863 283 851 b 406 831 340 835 372 831 b 501 843 440 831 472 835 b 576 879 531 851 554 864 b 624 935 596 894 611 913 b 640 1008 635 957 640 982 l 525 1008 b 489 939 519 979 507 956 b 406 914 471 922 443 914 b 324 940 371 914 343 924 b 288 1008 306 957 293 979 z m 217 169 l 217 726 l 92 726 l 92 0 l 235 0 l 590 557 l 593 557 l 593 0 l 719 0 l 719 726 l 576 726 l 219 169 z "},"к":{"ha":761,"x_min":0,"x_max":0,"o":"m 217 375 l 217 726 l 92 726 l 92 0 l 217 0 l 217 253 l 308 329 l 592 0 l 753 0 l 406 406 l 747 726 l 583 726 z "},"л":{"ha":797,"x_min":0,"x_max":0,"o":"m 297 443 l 303 618 l 581 618 l 581 0 l 706 0 l 706 726 l 183 726 l 178 458 b 171 322 176 406 174 361 b 158 226 168 285 163 253 b 140 161 153 200 146 178 b 118 122 133 144 125 132 b 93 104 110 114 101 108 b 65 100 85 101 75 100 b 18 110 51 100 36 103 l 18 0 b 40 -12 24 -4 31 -8 b 72 -18 49 -15 60 -18 b 164 4 107 -18 138 -10 b 232 81 190 19 214 44 b 276 224 251 117 265 164 b 297 443 288 282 294 356 z "},"м":{"ha":925,"x_min":0,"x_max":0,"o":"m 465 131 l 274 726 l 92 726 l 92 0 l 208 0 l 208 585 l 211 585 l 403 0 l 522 0 l 714 585 l 717 585 l 717 0 l 833 0 l 833 726 l 663 726 l 468 131 z "},"н":{"ha":772,"x_min":0,"x_max":0,"o":"m 217 433 l 217 726 l 92 726 l 92 0 l 217 0 l 217 325 l 556 325 l 556 0 l 681 0 l 681 726 l 556 726 l 556 433 z "},"о":{"ha":772,"x_min":0,"x_max":0,"o":"m 724 364 b 700 524 724 424 717 476 b 635 644 685 571 664 611 b 528 722 606 678 569 704 b 386 749 486 740 439 749 b 244 722 333 749 286 740 b 139 644 203 704 168 678 b 72 524 110 611 88 571 b 49 364 57 476 49 424 b 72 203 49 304 57 251 b 139 82 88 156 110 115 b 244 4 168 49 203 22 b 386 -22 286 -14 333 -22 b 528 4 439 -22 486 -14 b 635 82 569 22 606 49 b 700 203 664 115 685 156 b 724 364 717 251 724 304 z m 599 364 b 585 253 599 324 594 286 b 544 164 576 218 563 189 b 478 107 526 140 504 121 b 386 86 451 93 421 86 b 294 107 351 86 321 93 b 228 164 268 121 246 140 b 188 253 210 189 196 218 b 174 364 178 286 174 324 b 188 475 174 404 178 442 b 228 563 196 508 210 538 b 294 619 246 586 268 606 b 386 640 321 633 351 640 b 478 619 421 640 451 633 b 544 563 504 606 526 586 b 585 475 563 538 576 508 b 599 364 594 442 599 404 z "},"п":{"ha":772,"x_min":0,"x_max":0,"o":"m 217 0 l 217 618 l 556 618 l 556 0 l 681 0 l 681 726 l 92 726 l 92 0 z "},"р":{"ha":772,"x_min":0,"x_max":0,"o":"m 210 626 l 210 726 l 85 726 l 85 -286 l 210 -286 l 210 82 l 213 82 b 239 46 218 71 228 58 b 282 13 250 33 264 22 b 338 -12 297 1 317 -7 b 404 -22 358 -19 381 -22 b 536 0 453 -22 496 -15 b 636 72 575 15 608 39 b 701 200 665 106 686 147 b 724 390 717 253 724 315 b 699 547 724 450 715 501 b 633 660 683 592 661 629 b 539 726 606 689 575 711 b 426 749 503 742 465 749 b 349 739 397 749 371 746 b 289 714 325 733 306 724 b 243 674 271 701 256 689 b 213 626 231 660 221 643 z m 207 360 b 218 472 207 401 211 438 b 254 561 226 507 238 536 b 315 619 269 586 290 606 b 400 640 339 633 367 640 b 490 619 435 640 464 633 b 551 561 515 606 535 586 b 588 472 568 536 579 507 b 599 360 594 438 599 401 b 588 251 599 319 594 285 b 551 164 579 218 568 189 b 490 107 535 140 515 121 b 400 86 464 93 435 86 b 315 107 367 86 339 93 b 254 164 290 121 269 140 b 218 251 238 189 226 218 b 207 360 211 285 207 319 z "},"с":{"ha":694,"x_min":0,"x_max":0,"o":"m 663 256 l 546 256 b 522 181 542 228 533 203 b 483 125 513 158 499 140 b 432 90 468 110 451 97 b 369 78 411 82 392 78 b 288 94 339 78 311 83 b 226 144 263 104 243 121 b 188 229 208 167 196 194 b 174 353 178 264 174 304 b 186 469 174 396 178 433 b 225 561 194 506 207 536 b 289 619 242 586 263 606 b 378 640 314 633 343 640 b 494 599 428 640 467 626 b 546 482 522 571 540 532 l 663 482 b 654 540 661 500 658 521 b 633 601 649 561 642 581 b 596 657 624 621 611 639 b 542 704 581 675 563 690 b 465 736 519 718 494 728 b 364 749 436 744 403 749 b 244 722 322 749 282 740 b 144 644 206 703 172 678 b 75 522 115 611 92 571 b 49 360 58 474 49 419 b 63 231 49 311 54 267 b 99 131 71 192 83 158 b 151 58 114 101 132 78 b 215 11 172 39 193 24 b 285 -15 238 0 260 -10 b 351 -22 308 -19 331 -22 b 456 -10 390 -22 425 -18 b 535 26 486 0 513 11 b 592 76 557 40 576 58 b 629 136 607 96 619 115 b 653 199 639 157 647 176 b 663 256 657 219 661 238 z "},"т":{"ha":694,"x_min":0,"x_max":0,"o":"m 35 726 l 35 618 l 285 618 l 285 0 l 410 0 l 410 618 l 660 618 l 660 726 z "},"у":{"ha":694,"x_min":0,"x_max":0,"o":"m 346 135 l 153 726 l 15 726 l 285 -19 l 244 -122 b 211 -169 236 -143 226 -158 b 156 -186 197 -181 178 -186 b 114 -182 142 -186 126 -185 b 82 -174 101 -179 90 -176 l 82 -286 b 110 -292 89 -289 99 -290 b 151 -294 119 -293 133 -294 b 210 -290 174 -294 193 -293 b 257 -276 228 -289 242 -283 b 294 -247 269 -269 283 -260 b 328 -200 306 -235 317 -219 b 363 -128 340 -181 351 -156 b 401 -29 375 -100 388 -67 l 679 726 l 542 726 l 349 135 z "},"ф":{"ha":1156,"x_min":0,"x_max":0,"o":"m 513 88 l 515 88 l 515 -286 l 640 -286 l 640 88 l 643 88 b 683 32 656 64 669 46 b 729 -1 697 18 714 6 b 778 -18 744 -10 761 -15 b 829 -22 794 -21 811 -22 b 932 3 865 -22 899 -14 b 1022 78 965 19 996 44 b 1085 200 1047 110 1069 150 b 1108 368 1100 249 1108 304 b 1101 463 1108 400 1106 431 b 1081 550 1097 492 1090 522 b 1044 629 1071 578 1058 604 b 992 692 1029 653 1013 674 b 921 733 971 710 947 724 b 831 749 894 744 864 749 b 764 739 806 749 783 746 b 711 711 744 731 726 722 b 672 676 696 700 683 689 b 643 640 661 664 651 651 l 640 640 l 640 997 l 515 997 l 515 640 l 513 640 l 485 676 b 444 711 472 689 460 700 b 392 739 429 722 411 731 b 325 749 372 746 350 749 b 235 733 292 749 261 744 b 165 692 208 724 185 710 b 113 629 144 674 126 653 b 75 550 97 604 85 578 b 54 463 65 522 58 492 b 47 368 50 431 47 400 b 71 200 47 304 56 249 b 135 78 86 150 108 110 b 224 3 160 44 190 19 b 326 -22 257 -14 290 -22 b 378 -18 344 -22 361 -21 b 428 -1 396 -15 411 -10 b 472 32 443 6 458 18 b 513 88 486 46 500 64 z m 515 426 l 515 290 b 475 133 515 222 501 171 b 356 78 447 96 407 78 b 292 90 331 78 310 82 b 243 125 274 99 257 111 b 210 175 231 139 218 156 b 188 235 201 194 193 214 b 176 300 182 257 178 278 b 172 364 174 322 172 344 b 182 471 172 403 175 438 b 215 560 189 504 200 535 b 272 618 231 585 249 604 b 358 640 296 633 325 640 b 418 626 379 640 399 636 b 468 585 436 617 454 603 b 503 518 482 567 493 544 b 515 426 511 492 515 461 z m 797 78 b 681 133 747 78 708 96 b 640 290 654 171 640 222 l 640 426 b 653 518 640 461 644 492 b 688 585 663 544 674 567 b 738 626 701 603 719 617 b 797 640 757 636 776 640 b 882 618 831 640 858 633 b 940 560 906 604 925 585 b 974 471 954 535 965 504 b 983 364 981 438 983 403 b 981 300 983 344 982 322 b 968 235 978 278 974 257 b 947 175 963 214 956 194 b 913 125 938 156 926 139 b 864 90 899 111 882 99 b 797 78 844 82 822 78 z "},"х":{"ha":694,"x_min":0,"x_max":0,"o":"m 14 0 l 168 0 l 339 271 l 524 0 l 681 0 l 424 372 l 669 726 l 519 726 l 356 474 l 183 726 l 26 726 l 268 372 z "},"ц":{"ha":793,"x_min":0,"x_max":0,"o":"m 217 108 l 217 726 l 92 726 l 92 0 l 654 0 l 654 -178 l 771 -178 l 771 108 l 681 108 l 681 726 l 556 726 l 556 108 z "},"ч":{"ha":747,"x_min":0,"x_max":0,"o":"m 529 293 l 529 0 l 654 0 l 654 726 l 529 726 l 529 396 b 494 386 519 393 508 389 b 454 376 482 382 468 379 b 413 369 439 374 426 372 b 378 367 400 368 388 367 b 289 376 343 367 313 371 b 229 406 264 382 244 393 b 197 454 214 418 203 435 b 188 525 190 474 188 497 l 188 726 l 63 726 l 63 500 b 133 324 63 419 86 361 b 349 267 179 286 253 267 b 440 275 376 267 407 269 b 529 293 472 279 501 286 z "},"ш":{"ha":1081,"x_min":0,"x_max":0,"o":"m 217 108 l 217 726 l 92 726 l 92 0 l 989 0 l 989 726 l 864 726 l 864 108 l 603 108 l 603 726 l 478 726 l 478 108 z "},"щ":{"ha":1100,"x_min":0,"x_max":0,"o":"m 92 726 l 92 0 l 963 0 l 963 -178 l 1079 -178 l 1079 108 l 989 108 l 989 726 l 864 726 l 864 108 l 603 108 l 603 726 l 478 726 l 478 108 l 217 108 l 217 726 z "}}}
